<?xml version="1.0" standalone="no"?>
<svg xmlns="http://www.w3.org/2000/svg" xmlns:xlink="http://www.w3.org/1999/xlink" width="1012pt" height="1303pt" viewBox="0.00 0.00 1011.90 1303.00">
<g id="graph0" class="graph" transform="translate(4,1299) scale(1)" data-name="G">

<polygon fill="#2e3e56" stroke="transparent" points="-4,4 -4,-1299 1007.9,-1299 1007.9,4 -4,4" style=""/>
<g id="clust1" class="cluster" data-name="clusterIGame">

<path fill="#445773" stroke="#445773" d="M37.68,-35C37.68,-35 254.53,-35 254.53,-35 260.53,-35 266.53,-41 266.53,-47 266.53,-47 266.53,-154 266.53,-154 266.53,-160 260.53,-166 254.53,-166 254.53,-166 37.68,-166 37.68,-166 31.68,-166 25.68,-160 25.68,-154 25.68,-154 25.68,-47 25.68,-47 25.68,-41 31.68,-35 37.68,-35" style=""/>
<text text-anchor="middle" x="146.11" y="-149.4" font-family="Times,serif" font-size="14.00" fill="#f0f0f0" style="">IGame  (iface)</text>
</g>
<g id="clust2" class="cluster" data-name="clusterBank">

<path fill="#445773" stroke="#445773" d="M20,-201C20,-201 983.9,-201 983.9,-201 989.9,-201 995.9,-207 995.9,-213 995.9,-213 995.9,-1138 995.9,-1138 995.9,-1144 989.9,-1150 983.9,-1150 983.9,-1150 20,-1150 20,-1150 14,-1150 8,-1144 8,-1138 8,-1138 8,-213 8,-213 8,-207 14,-201 20,-201" style=""/>
<text text-anchor="middle" x="501.95" y="-1133.4" font-family="Times,serif" font-size="14.00" fill="#f0f0f0" style="">Bank</text>
</g>
<g id="clust3" class="cluster" data-name="clusterIERC20Metadata">

<path fill="#3b4b63" stroke="#e8726d" stroke-dasharray="5,2" d="M864.93,-8C864.93,-8 954.65,-8 954.65,-8 960.65,-8 966.65,-14 966.65,-20 966.65,-20 966.65,-181 966.65,-181 966.65,-187 960.65,-193 954.65,-193 954.65,-193 864.93,-193 864.93,-193 858.93,-193 852.93,-187 852.93,-181 852.93,-181 852.93,-20 852.93,-20 852.93,-14 858.93,-8 864.93,-8" style=""/>
<text text-anchor="middle" x="909.79" y="-176.4" font-family="Times,serif" font-size="14.00" fill="#f0f0f0" style="">IERC20Metadata</text>
</g>
<g id="clust4" class="cluster" data-name="cluster_01">

<polygon fill="#2e3e56" stroke="black" points="73.11,-1158 73.11,-1287 470.9,-1287 470.9,-1158 73.11,-1158" style=""/>
<text text-anchor="middle" x="272" y="-1270.4" font-family="Times,serif" font-size="14.00" style="">Legend</text>
</g>
<!-- IGame.hasPendingBets -->
<g id="node1" class="node" pointer-events="visible" data-name="IGame.hasPendingBets">

<ellipse fill="#ffbdb9" stroke="#ffbdb9" stroke-width="3" cx="146.11" cy="-115" rx="72.96" ry="18" style=""/>
<text text-anchor="middle" x="146.11" y="-110.8" font-family="Times,serif" font-size="14.00" style="">hasPendingBets</text>
</g>
<!-- IGame.withdrawTokensVRFFees -->
<g id="node2" class="node" pointer-events="visible" data-name="IGame.withdrawTokensVRFFees">

<ellipse fill="#ffbdb9" stroke="#ffbdb9" stroke-width="3" cx="146.11" cy="-61" rx="112.35" ry="18" style=""/>
<text text-anchor="middle" x="146.11" y="-56.8" font-family="Times,serif" font-size="14.00" style="">withdrawTokensVRFFees</text>
</g>
<!-- Bank.onlyTokenOwner -->
<g id="node3" class="node" pointer-events="visible" data-name="Bank.onlyTokenOwner">

<polygon fill="#edad56" stroke="#1bc6a6" stroke-width="3" points="231.95,-1087.54 231.95,-1102.46 181.66,-1113 110.55,-1113 60.26,-1102.46 60.26,-1087.54 110.55,-1077 181.66,-1077 231.95,-1087.54" style=""/>
<polygon fill="none" stroke="#1bc6a6" stroke-width="3" points="235.96,-1084.3 235.96,-1105.7 182.08,-1117 110.13,-1117 56.26,-1105.7 56.26,-1084.3 110.13,-1073 182.08,-1073 235.96,-1084.3" style=""/>
<text text-anchor="middle" x="146.11" y="-1090.8" font-family="Times,serif" font-size="14.00" style="">onlyTokenOwner</text>
</g>
<!-- Bank._checkRole -->
<g id="node34" class="node" pointer-events="visible" data-name="Bank._checkRole">

<ellipse fill="#edad56" stroke="#edad56" stroke-width="3" cx="435.9" cy="-1045" rx="56.74" ry="18" style=""/>
<text text-anchor="middle" x="435.9" y="-1040.8" font-family="Times,serif" font-size="14.00" style="">_checkRole</text>
</g>
<!-- Bank.onlyTokenOwner&#45;&gt;Bank._checkRole -->
<g id="edge1" class="edge" data-name="Bank.onlyTokenOwner-&gt;Bank._checkRole">

<path fill="none" stroke="#1bc6a6" stroke-width="2" d="M223.85,-1081.67C271.58,-1073.37 332.03,-1062.87 375.98,-1055.24" style=""/>
<polygon fill="#1bc6a6" stroke="#1bc6a6" stroke-width="2" points="376.69,-1058.67 385.94,-1053.51 375.49,-1051.77 376.69,-1058.67" style=""/>
</g>
<!-- Bank.AccessDenied -->
<g id="node35" class="node" pointer-events="visible" data-name="Bank.AccessDenied">

<ellipse fill="#edad56" stroke="#edad56" stroke-width="3" cx="435.9" cy="-1099" rx="66.04" ry="18" style=""/>
<text text-anchor="middle" x="435.9" y="-1094.8" font-family="Times,serif" font-size="14.00" style="">AccessDenied</text>
</g>
<!-- Bank.onlyTokenOwner&#45;&gt;Bank.AccessDenied -->
<g id="edge2" class="edge" data-name="Bank.onlyTokenOwner-&gt;Bank.AccessDenied">

<path fill="none" stroke="#1bc6a6" stroke-width="2" d="M235.8,-1096.23C275.2,-1096.78 321.11,-1097.42 358.91,-1097.94" style=""/>
<polygon fill="#1bc6a6" stroke="#1bc6a6" stroke-width="2" points="359.3,-1101.45 369.34,-1098.09 359.39,-1094.45 359.3,-1101.45" style=""/>
</g>
<!-- Bank.&lt;Constructor&gt; -->
<g id="node4" class="node" pointer-events="visible" data-name="Bank.&lt;Constructor&gt;">

<ellipse fill="#ff9797" stroke="#ff9797" stroke-width="3" cx="146.11" cy="-1037" rx="67.55" ry="18" style=""/>
<text text-anchor="middle" x="146.11" y="-1032.8" font-family="Times,serif" font-size="14.00" style="">&lt;Constructor&gt;</text>
</g>
<!-- Bank.setTeamWallet -->
<g id="node30" class="node" pointer-events="visible" data-name="Bank.setTeamWallet">

<ellipse fill="#edad56" stroke="#edad56" stroke-width="3" cx="435.9" cy="-917" rx="69.47" ry="18" style=""/>
<text text-anchor="middle" x="435.9" y="-912.8" font-family="Times,serif" font-size="14.00" style="">setTeamWallet</text>
</g>
<!-- Bank.&lt;Constructor&gt;&#45;&gt;Bank.setTeamWallet -->
<g id="edge5" class="edge" data-name="Bank.&lt;Constructor&gt;-&gt;Bank.setTeamWallet">

<path fill="none" stroke="#1bc6a6" stroke-width="2" d="M212.76,-1033.84C234.54,-1030.17 257.88,-1023.14 276.21,-1010 301.8,-991.66 287.09,-967.96 312.21,-949 326.46,-938.25 343.99,-931.1 361.3,-926.35" style=""/>
<polygon fill="#1bc6a6" stroke="#1bc6a6" stroke-width="2" points="362.58,-929.63 371.43,-923.82 360.88,-922.84 362.58,-929.63" style=""/>
</g>
<!-- Bank.WrongAddress -->
<g id="node36" class="node" pointer-events="visible" data-name="Bank.WrongAddress">

<ellipse fill="#edad56" stroke="#edad56" stroke-width="3" cx="695.12" cy="-935" rx="69.5" ry="18" style=""/>
<text text-anchor="middle" x="695.12" y="-930.8" font-family="Times,serif" font-size="14.00" style="">WrongAddress</text>
</g>
<!-- Bank.&lt;Constructor&gt;&#45;&gt;Bank.WrongAddress -->
<g id="edge3" class="edge" data-name="Bank.&lt;Constructor&gt;-&gt;Bank.WrongAddress">

<path fill="none" stroke="#1bc6a6" stroke-width="2" d="M211.5,-1032.5C233.3,-1028.72 256.96,-1021.97 276.21,-1010 298.26,-996.29 289.32,-976.25 312.21,-964 315.55,-962.22 507.31,-948.3 617.79,-940.41" style=""/>
<polygon fill="#1bc6a6" stroke="#1bc6a6" stroke-width="2" points="618.17,-943.89 627.9,-939.69 617.67,-936.91 618.17,-943.89" style=""/>
</g>
<!-- Bank._setupRole -->
<g id="node37" class="node" pointer-events="visible" data-name="Bank._setupRole">

<ellipse fill="#edad56" stroke="#edad56" stroke-width="3" cx="435.9" cy="-991" rx="54.48" ry="18" style=""/>
<text text-anchor="middle" x="435.9" y="-986.8" font-family="Times,serif" font-size="14.00" style="">_setupRole</text>
</g>
<!-- Bank.&lt;Constructor&gt;&#45;&gt;Bank._setupRole -->
<g id="edge4" class="edge" data-name="Bank.&lt;Constructor&gt;-&gt;Bank._setupRole">

<path fill="none" stroke="#1bc6a6" stroke-width="2" d="M204.31,-1027.86C254.15,-1019.89 326.11,-1008.39 376.35,-1000.36" style=""/>
<polygon fill="#1bc6a6" stroke="#1bc6a6" stroke-width="2" points="377.08,-1003.79 386.41,-998.75 375.98,-996.87 377.08,-1003.79" style=""/>
</g>
<!-- Bank._safeTransfer -->
<g id="node5" class="node" pointer-events="visible" data-name="Bank._safeTransfer">

<ellipse fill="#edad56" stroke="#edad56" stroke-width="3" cx="695.12" cy="-447" rx="64.23" ry="18" style=""/>
<text text-anchor="middle" x="695.12" y="-442.8" font-family="Times,serif" font-size="14.00" style="">_safeTransfer</text>
</g>
<!-- Bank._isGasToken -->
<g id="node6" class="node" pointer-events="visible" data-name="Bank._isGasToken">

<ellipse fill="#edad56" stroke="#edad56" stroke-width="3" cx="909.29" cy="-524" rx="61.99" ry="18" style=""/>
<text text-anchor="middle" x="909.29" y="-519.8" font-family="Times,serif" font-size="14.00" style="">_isGasToken</text>
</g>
<!-- Bank._safeTransfer&#45;&gt;Bank._isGasToken -->
<g id="edge6" class="edge" data-name="Bank._safeTransfer-&gt;Bank._isGasToken">

<path fill="none" stroke="#1bc6a6" stroke-width="2" d="M735.04,-461.12C770.18,-473.88 822.02,-492.69 859.84,-506.42" style=""/>
<polygon fill="#1bc6a6" stroke="#1bc6a6" stroke-width="2" points="859.03,-509.84 869.62,-509.97 861.41,-503.26 859.03,-509.84" style=""/>
</g>
<!-- Bank.payable -->
<g id="node38" class="node" pointer-events="visible" data-name="Bank.payable">

<ellipse fill="#edad56" stroke="#edad56" stroke-width="3" cx="909.29" cy="-447" rx="41.13" ry="18" style=""/>
<text text-anchor="middle" x="909.29" y="-442.8" font-family="Times,serif" font-size="14.00" style="">payable</text>
</g>
<!-- Bank._safeTransfer&#45;&gt;Bank.payable -->
<g id="edge7" class="edge" data-name="Bank._safeTransfer-&gt;Bank.payable">

<path fill="none" stroke="#1bc6a6" stroke-width="2" d="M759.49,-447C790.95,-447 828.42,-447 857.89,-447" style=""/>
<polygon fill="#1bc6a6" stroke="#1bc6a6" stroke-width="2" points="857.96,-450.5 867.96,-447 857.96,-443.5 857.96,-450.5" style=""/>
</g>
<!-- Bank.IERC20 -->
<g id="node39" class="node" pointer-events="visible" data-name="Bank.IERC20">

<ellipse fill="#edad56" stroke="#edad56" stroke-width="3" cx="909.29" cy="-578" rx="42.88" ry="18" style=""/>
<text text-anchor="middle" x="909.29" y="-573.8" font-family="Times,serif" font-size="14.00" style="">IERC20</text>
</g>
<!-- Bank._safeTransfer&#45;&gt;Bank.IERC20 -->
<g id="edge8" class="edge" data-name="Bank._safeTransfer-&gt;Bank.IERC20">

<path fill="none" stroke="#1bc6a6" stroke-width="2" d="M714.36,-464.26C739.05,-486.83 785.24,-526.39 830.67,-551 840.86,-556.52 852.39,-561.25 863.4,-565.14" style=""/>
<polygon fill="#1bc6a6" stroke="#1bc6a6" stroke-width="2" points="862.29,-568.46 872.88,-568.35 864.53,-561.83 862.29,-568.46" style=""/>
</g>
<!-- Bank.deposit -->
<g id="node7" class="node" pointer-events="visible" data-name="Bank.deposit">

<ellipse fill="#ffbdb9" stroke="brown" stroke-width="3" cx="695.12" cy="-846" rx="38.86" ry="18" style=""/>
<text text-anchor="middle" x="695.12" y="-841.8" font-family="Times,serif" font-size="14.00" style="">deposit</text>
</g>
<!-- Bank.deposit&#45;&gt;Bank._isGasToken -->
<g id="edge9" class="edge" data-name="Bank.deposit-&gt;Bank._isGasToken">

<path fill="none" stroke="#1bc6a6" stroke-width="2" d="M734.19,-845.32C755.09,-842.84 779.72,-836.09 794.67,-819 873.78,-728.52 754.66,-644.09 830.67,-551 835.1,-545.58 840.68,-541.25 846.8,-537.78" style=""/>
<polygon fill="#1bc6a6" stroke="#1bc6a6" stroke-width="2" points="848.61,-540.79 856.1,-533.3 845.58,-534.49 848.61,-540.79" style=""/>
</g>
<!-- Bank.deposit&#45;&gt;Bank.IERC20 -->
<g id="edge10" class="edge" data-name="Bank.deposit-&gt;Bank.IERC20">

<path fill="none" stroke="#1bc6a6" stroke-width="2" d="M733.79,-843.23C753.8,-840.04 777.69,-833.27 794.67,-819 862.28,-762.19 892.24,-656.07 903.1,-605.79" style=""/>
<polygon fill="#1bc6a6" stroke="#1bc6a6" stroke-width="2" points="906.54,-606.45 905.14,-595.95 899.68,-605.03 906.54,-606.45" style=""/>
</g>
<!-- Bank.withdraw -->
<g id="node8" class="node" pointer-events="visible" data-name="Bank.withdraw">

<ellipse fill="#ff9797" stroke="#ff9797" stroke-width="3" cx="435.9" cy="-735" rx="47.52" ry="18" style=""/>
<text text-anchor="middle" x="435.9" y="-730.8" font-family="Times,serif" font-size="14.00" style="">withdraw</text>
</g>
<!-- Bank.withdraw&#45;&gt;Bank._safeTransfer -->
<g id="edge16" class="edge" data-name="Bank.withdraw-&gt;Bank._safeTransfer">

<path fill="none" stroke="#1bc6a6" stroke-width="2" d="M473.01,-723.75C500.47,-713.42 537.23,-695.5 559.58,-668 594.42,-625.12 567.6,-596.65 595.58,-549 613.68,-518.18 642.94,-489.51 664.88,-470.47" style=""/>
<polygon fill="#1bc6a6" stroke="#1bc6a6" stroke-width="2" points="667.25,-473.05 672.6,-463.9 662.72,-467.71 667.25,-473.05" style=""/>
</g>
<!-- Bank.getBalance -->
<g id="node33" class="node" pointer-events="visible" data-name="Bank.getBalance">

<ellipse fill="#edad56" stroke="#edad56" stroke-width="3" cx="695.12" cy="-576" rx="53.86" ry="18" style=""/>
<text text-anchor="middle" x="695.12" y="-571.8" font-family="Times,serif" font-size="14.00" style="">getBalance</text>
</g>
<!-- Bank.withdraw&#45;&gt;Bank.getBalance -->
<g id="edge11" class="edge" data-name="Bank.withdraw-&gt;Bank.getBalance">

<path fill="none" stroke="#1bc6a6" stroke-width="2" d="M477.38,-726.02C503.62,-718.4 537,-705.08 559.58,-683 587.45,-655.73 565.95,-628.35 595.58,-603 606.26,-593.86 619.78,-587.79 633.34,-583.77" style=""/>
<polygon fill="#1bc6a6" stroke="#1bc6a6" stroke-width="2" points="634.41,-587.11 643.19,-581.19 632.63,-580.34 634.41,-587.11" style=""/>
</g>
<!-- Bank.TokenNotPaused -->
<g id="node40" class="node" pointer-events="visible" data-name="Bank.TokenNotPaused">

<ellipse fill="#edad56" stroke="#edad56" stroke-width="3" cx="695.12" cy="-738" rx="77.6" ry="18" style=""/>
<text text-anchor="middle" x="695.12" y="-733.8" font-family="Times,serif" font-size="14.00" style="">TokenNotPaused</text>
</g>
<!-- Bank.withdraw&#45;&gt;Bank.TokenNotPaused -->
<g id="edge12" class="edge" data-name="Bank.withdraw-&gt;Bank.TokenNotPaused">

<path fill="none" stroke="#1bc6a6" stroke-width="2" d="M483.48,-735.54C517.98,-735.95 566.01,-736.51 607.5,-736.99" style=""/>
<polygon fill="#1bc6a6" stroke="#1bc6a6" stroke-width="2" points="607.57,-740.49 617.61,-737.11 607.65,-733.49 607.57,-740.49" style=""/>
</g>
<!-- Bank.getRoleMemberCount -->
<g id="node41" class="node" pointer-events="visible" data-name="Bank.getRoleMemberCount">

<ellipse fill="#edad56" stroke="#edad56" stroke-width="3" cx="695.12" cy="-630" rx="97.29" ry="18" style=""/>
<text text-anchor="middle" x="695.12" y="-625.8" font-family="Times,serif" font-size="14.00" style="">getRoleMemberCount</text>
</g>
<!-- Bank.withdraw&#45;&gt;Bank.getRoleMemberCount -->
<g id="edge13" class="edge" data-name="Bank.withdraw-&gt;Bank.getRoleMemberCount">

<path fill="none" stroke="#1bc6a6" stroke-width="2" d="M482.03,-730.35C506.55,-726.15 536.48,-718.16 559.58,-703 581.28,-688.75 573.96,-671.38 595.58,-657 601.77,-652.88 608.58,-649.38 615.64,-646.42" style=""/>
<polygon fill="#1bc6a6" stroke="#1bc6a6" stroke-width="2" points="617.28,-649.54 625.38,-642.7 614.79,-643 617.28,-649.54" style=""/>
</g>
<!-- Bank.getRoleMember -->
<g id="node42" class="node" pointer-events="visible" data-name="Bank.getRoleMember">

<ellipse fill="#edad56" stroke="#edad56" stroke-width="3" cx="695.12" cy="-792" rx="73.58" ry="18" style=""/>
<text text-anchor="middle" x="695.12" y="-787.8" font-family="Times,serif" font-size="14.00" style="">getRoleMember</text>
</g>
<!-- Bank.withdraw&#45;&gt;Bank.getRoleMember -->
<g id="edge14" class="edge" data-name="Bank.withdraw-&gt;Bank.getRoleMember">

<path fill="none" stroke="#1bc6a6" stroke-width="2" d="M477.37,-743.97C518.32,-753.04 582.23,-767.21 630.06,-777.8" style=""/>
<polygon fill="#1bc6a6" stroke="#1bc6a6" stroke-width="2" points="629.49,-781.26 640.01,-780.01 631,-774.43 629.49,-781.26" style=""/>
</g>
<!-- Bank.TokenHasPendingBets -->
<g id="node43" class="node" pointer-events="visible" data-name="Bank.TokenHasPendingBets">

<ellipse fill="#edad56" stroke="#edad56" stroke-width="3" cx="695.12" cy="-684" rx="99.6" ry="18" style=""/>
<text text-anchor="middle" x="695.12" y="-679.8" font-family="Times,serif" font-size="14.00" style="">TokenHasPendingBets</text>
</g>
<!-- Bank.withdraw&#45;&gt;Bank.TokenHasPendingBets -->
<g id="edge15" class="edge" data-name="Bank.withdraw-&gt;Bank.TokenHasPendingBets">

<path fill="none" stroke="#1bc6a6" stroke-width="2" d="M478.22,-726.81C515.67,-719.38 571.8,-708.25 617.44,-699.2" style=""/>
<polygon fill="#1bc6a6" stroke="#1bc6a6" stroke-width="2" points="618.18,-702.63 627.31,-697.25 616.82,-695.76 618.18,-702.63" style=""/>
</g>
<!-- Bank.setBalanceRisk -->
<g id="node9" class="node" pointer-events="visible" data-name="Bank.setBalanceRisk">

<ellipse fill="#ffbdb9" stroke="#ffbdb9" stroke-width="3" cx="146.11" cy="-983" rx="70.64" ry="18" style=""/>
<text text-anchor="middle" x="146.11" y="-978.8" font-family="Times,serif" font-size="14.00" style="">setBalanceRisk</text>
</g>
<!-- Bank.addToken -->
<g id="node10" class="node" pointer-events="visible" data-name="Bank.addToken">

<ellipse fill="#ffbdb9" stroke="#ffbdb9" stroke-width="3" cx="146.11" cy="-929" rx="49.8" ry="18" style=""/>
<text text-anchor="middle" x="146.11" y="-924.8" font-family="Times,serif" font-size="14.00" style="">addToken</text>
</g>
<!-- Bank.TokenExists -->
<g id="node44" class="node" pointer-events="visible" data-name="Bank.TokenExists">

<ellipse fill="#edad56" stroke="#edad56" stroke-width="3" cx="435.9" cy="-863" rx="59.13" ry="18" style=""/>
<text text-anchor="middle" x="435.9" y="-858.8" font-family="Times,serif" font-size="14.00" style="">TokenExists</text>
</g>
<!-- Bank.addToken&#45;&gt;Bank.TokenExists -->
<g id="edge17" class="edge" data-name="Bank.addToken-&gt;Bank.TokenExists">

<path fill="none" stroke="#1bc6a6" stroke-width="2" d="M191.03,-921.12C216.15,-916.29 248.14,-909.59 276.21,-902 292.5,-897.6 295.96,-894.49 312.21,-890 332.72,-884.34 355.4,-879.08 375.63,-874.73" style=""/>
<polygon fill="#1bc6a6" stroke="#1bc6a6" stroke-width="2" points="376.6,-878.1 385.65,-872.6 375.14,-871.25 376.6,-878.1" style=""/>
</g>
<!-- Bank.setAllowedToken -->
<g id="node11" class="node" pointer-events="visible" data-name="Bank.setAllowedToken">

<ellipse fill="#ffbdb9" stroke="#ffbdb9" stroke-width="3" cx="146.11" cy="-875" rx="79.88" ry="18" style=""/>
<text text-anchor="middle" x="146.11" y="-870.8" font-family="Times,serif" font-size="14.00" style="">setAllowedToken</text>
</g>
<!-- Bank.setPausedToken -->
<g id="node12" class="node" pointer-events="visible" data-name="Bank.setPausedToken">

<ellipse fill="#ffbdb9" stroke="#ffbdb9" stroke-width="3" cx="146.11" cy="-821" rx="73.59" ry="18" style=""/>
<text text-anchor="middle" x="146.11" y="-816.8" font-family="Times,serif" font-size="14.00" style="">setPausedToken</text>
</g>
<!-- Bank.setMinPartnerTransferAmount -->
<g id="node13" class="node" pointer-events="visible" data-name="Bank.setMinPartnerTransferAmount">

<ellipse fill="#ffbdb9" stroke="#ffbdb9" stroke-width="3" cx="146.11" cy="-767" rx="130.21" ry="18" style=""/>
<text text-anchor="middle" x="146.11" y="-762.8" font-family="Times,serif" font-size="14.00" style="">setMinPartnerTransferAmount</text>
</g>
<!-- Bank.setTokenPartner -->
<g id="node14" class="node" pointer-events="visible" data-name="Bank.setTokenPartner">

<ellipse fill="#ffbdb9" stroke="#ffbdb9" stroke-width="3" cx="146.11" cy="-713" rx="74.14" ry="18" style=""/>
<text text-anchor="middle" x="146.11" y="-708.8" font-family="Times,serif" font-size="14.00" style="">setTokenPartner</text>
</g>
<!-- Bank.setTokenPartner&#45;&gt;Bank.withdraw -->
<g id="edge21" class="edge" data-name="Bank.setTokenPartner-&gt;Bank.withdraw">

<path fill="none" stroke="#1bc6a6" stroke-width="2" d="M217.14,-718.35C266.79,-722.15 332.54,-727.18 378.76,-730.71" style=""/>
<polygon fill="#1bc6a6" stroke="#1bc6a6" stroke-width="2" points="378.65,-734.21 388.89,-731.48 379.19,-727.23 378.65,-734.21" style=""/>
</g>
<!-- Bank.withdrawPartnerAmount -->
<g id="node32" class="node" pointer-events="visible" data-name="Bank.withdrawPartnerAmount">

<ellipse fill="#edad56" stroke="#edad56" stroke-width="3" cx="435.9" cy="-317" rx="107.1" ry="18" style=""/>
<text text-anchor="middle" x="435.9" y="-312.8" font-family="Times,serif" font-size="14.00" style="">withdrawPartnerAmount</text>
</g>
<!-- Bank.setTokenPartner&#45;&gt;Bank.withdrawPartnerAmount -->
<g id="edge20" class="edge" data-name="Bank.setTokenPartner-&gt;Bank.withdrawPartnerAmount">

<path fill="none" stroke="#1bc6a6" stroke-width="2" d="M220.45,-713.26C241.22,-709.6 262.01,-701.72 276.21,-686 378.68,-572.59 210.35,-457.94 312.21,-344 317.53,-338.06 323.83,-333.26 330.72,-329.4" style=""/>
<polygon fill="#1bc6a6" stroke="#1bc6a6" stroke-width="2" points="332.29,-332.53 339.74,-325.01 329.22,-326.24 332.29,-332.53" style=""/>
</g>
<!-- Bank.setTokenPartner&#45;&gt;Bank.getBalance -->
<g id="edge22" class="edge" data-name="Bank.setTokenPartner-&gt;Bank.getBalance">

<path fill="none" stroke="#1bc6a6" stroke-width="2" d="M202.65,-701.2C234.56,-694.85 275.48,-687.43 312.21,-683 339.55,-679.7 536.29,-682.69 559.58,-668 587.51,-650.38 569.61,-623.41 595.58,-603 606.69,-594.27 620.42,-588.35 634.08,-584.35" style=""/>
<polygon fill="#1bc6a6" stroke="#1bc6a6" stroke-width="2" points="635.18,-587.68 643.97,-581.76 633.41,-580.91 635.18,-587.68" style=""/>
</g>
<!-- Bank.setTokenPartner&#45;&gt;Bank.getRoleMemberCount -->
<g id="edge18" class="edge" data-name="Bank.setTokenPartner-&gt;Bank.getRoleMemberCount">

<path fill="none" stroke="#1bc6a6" stroke-width="2" d="M219.72,-709.88C329.58,-704.82 528.58,-694.28 559.58,-683 578.12,-676.25 577.77,-665.52 595.58,-657 603.74,-653.09 612.57,-649.67 621.47,-646.69" style=""/>
<polygon fill="#1bc6a6" stroke="#1bc6a6" stroke-width="2" points="622.65,-649.99 631.13,-643.63 620.54,-643.31 622.65,-649.99" style=""/>
</g>
<!-- Bank.setTokenPartner&#45;&gt;Bank.getRoleMember -->
<g id="edge19" class="edge" data-name="Bank.setTokenPartner-&gt;Bank.getRoleMember">

<path fill="none" stroke="#1bc6a6" stroke-width="2" d="M211.09,-721.9C232.27,-726.02 255.67,-731.86 276.21,-740 293.65,-746.91 294.38,-756.22 312.21,-762 315.78,-763.15 503.4,-777.54 614.31,-785.96" style=""/>
<polygon fill="#1bc6a6" stroke="#1bc6a6" stroke-width="2" points="614.22,-789.46 624.46,-786.73 614.75,-782.48 614.22,-789.46" style=""/>
</g>
<!-- Bank.setHouseEdgeSplit -->
<g id="node15" class="node" pointer-events="visible" data-name="Bank.setHouseEdgeSplit">

<ellipse fill="#ffbdb9" stroke="#ffbdb9" stroke-width="3" cx="146.11" cy="-659" rx="84.56" ry="18" style=""/>
<text text-anchor="middle" x="146.11" y="-654.8" font-family="Times,serif" font-size="14.00" style="">setHouseEdgeSplit</text>
</g>
<!-- Bank.WrongHouseEdgeSplit -->
<g id="node45" class="node" pointer-events="visible" data-name="Bank.WrongHouseEdgeSplit">

<ellipse fill="#edad56" stroke="#edad56" stroke-width="3" cx="435.9" cy="-587" rx="100.74" ry="18" style=""/>
<text text-anchor="middle" x="435.9" y="-582.8" font-family="Times,serif" font-size="14.00" style="">WrongHouseEdgeSplit</text>
</g>
<!-- Bank.setHouseEdgeSplit&#45;&gt;Bank.WrongHouseEdgeSplit -->
<g id="edge23" class="edge" data-name="Bank.setHouseEdgeSplit-&gt;Bank.WrongHouseEdgeSplit">

<path fill="none" stroke="#1bc6a6" stroke-width="2" d="M214.34,-648.35C234.53,-644.24 256.53,-638.85 276.21,-632 293.11,-626.12 295.35,-619.97 312.21,-614 325.37,-609.35 339.61,-605.33 353.57,-601.93" style=""/>
<polygon fill="#1bc6a6" stroke="#1bc6a6" stroke-width="2" points="354.73,-605.25 363.67,-599.56 353.13,-598.44 354.73,-605.25" style=""/>
</g>
<!-- Bank.setTokenMinBetAmount -->
<g id="node16" class="node" pointer-events="visible" data-name="Bank.setTokenMinBetAmount">

<ellipse fill="#ffbdb9" stroke="#ffbdb9" stroke-width="3" cx="146.11" cy="-605" rx="107.69" ry="18" style=""/>
<text text-anchor="middle" x="146.11" y="-600.8" font-family="Times,serif" font-size="14.00" style="">setTokenMinBetAmount</text>
</g>
<!-- Bank.setTokenVRFSubId -->
<g id="node17" class="node" pointer-events="visible" data-name="Bank.setTokenVRFSubId">

<ellipse fill="#ffbdb9" stroke="#ffbdb9" stroke-width="3" cx="146.11" cy="-551" rx="88.08" ry="18" style=""/>
<text text-anchor="middle" x="146.11" y="-546.8" font-family="Times,serif" font-size="14.00" style="">setTokenVRFSubId</text>
</g>
<!-- Bank.harvestDividends -->
<g id="node18" class="node" pointer-events="visible" data-name="Bank.harvestDividends">

<ellipse fill="#ffbdb9" stroke="#ffbdb9" stroke-width="3" cx="435.9" cy="-371" rx="78.74" ry="18" style=""/>
<text text-anchor="middle" x="435.9" y="-366.8" font-family="Times,serif" font-size="14.00" style="">harvestDividends</text>
</g>
<!-- Bank.harvestDividends&#45;&gt;Bank._safeTransfer -->
<g id="edge24" class="edge" data-name="Bank.harvestDividends-&gt;Bank._safeTransfer">

<path fill="none" stroke="#1bc6a6" stroke-width="2" d="M496.58,-382.47C516.73,-386.79 539.26,-392.09 559.58,-398 589.53,-406.71 622.44,-418.65 648.22,-428.57" style=""/>
<polygon fill="#1bc6a6" stroke="#1bc6a6" stroke-width="2" points="647.14,-431.9 657.72,-432.26 649.67,-425.37 647.14,-431.9" style=""/>
</g>
<!-- Bank.getDividends -->
<g id="node19" class="node" pointer-events="visible" data-name="Bank.getDividends">

<ellipse fill="#ffbdb9" stroke="#ffbdb9" stroke-width="3" cx="146.11" cy="-497" rx="62.56" ry="18" style=""/>
<text text-anchor="middle" x="146.11" y="-492.8" font-family="Times,serif" font-size="14.00" style="">getDividends</text>
</g>
<!-- Bank.payout -->
<g id="node20" class="node" pointer-events="visible" data-name="Bank.payout">

<ellipse fill="#ffbdb9" stroke="brown" stroke-width="3" cx="435.9" cy="-479" rx="37.14" ry="18" style=""/>
<text text-anchor="middle" x="435.9" y="-474.8" font-family="Times,serif" font-size="14.00" style="">payout</text>
</g>
<!-- Bank.payout&#45;&gt;Bank._safeTransfer -->
<g id="edge25" class="edge" data-name="Bank.payout-&gt;Bank._safeTransfer">

<path fill="none" stroke="#1bc6a6" stroke-width="2" d="M472.12,-474.62C511.64,-469.7 576.68,-461.61 626.17,-455.45" style=""/>
<polygon fill="#1bc6a6" stroke="#1bc6a6" stroke-width="2" points="626.68,-458.92 636.17,-454.21 625.81,-451.97 626.68,-458.92" style=""/>
</g>
<!-- Bank.payout&#45;&gt;Bank.getBalance -->
<g id="edge26" class="edge" data-name="Bank.payout-&gt;Bank.getBalance">

<path fill="none" stroke="#1bc6a6" stroke-width="2" d="M471.69,-484.14C496.63,-488.43 530.77,-495.55 559.58,-506 595.22,-518.94 633.34,-539.47 659.87,-554.96" style=""/>
<polygon fill="#1bc6a6" stroke="#1bc6a6" stroke-width="2" points="658.36,-558.14 668.75,-560.21 661.92,-552.11 658.36,-558.14" style=""/>
</g>
<!-- Bank.cashIn -->
<g id="node21" class="node" pointer-events="visible" data-name="Bank.cashIn">

<ellipse fill="#ffbdb9" stroke="brown" stroke-width="3" cx="435.9" cy="-533" rx="36.48" ry="18" style=""/>
<text text-anchor="middle" x="435.9" y="-528.8" font-family="Times,serif" font-size="14.00" style="">cashIn</text>
</g>
<!-- Bank.cashIn&#45;&gt;Bank._isGasToken -->
<g id="edge28" class="edge" data-name="Bank.cashIn-&gt;Bank._isGasToken">

<path fill="none" stroke="#1bc6a6" stroke-width="2" d="M472.33,-532.32C549.64,-530.85 734.75,-527.31 837.15,-525.36" style=""/>
<polygon fill="#1bc6a6" stroke="#1bc6a6" stroke-width="2" points="837.47,-528.85 847.4,-525.16 837.33,-521.85 837.47,-528.85" style=""/>
</g>
<!-- Bank.cashIn&#45;&gt;Bank.getBalance -->
<g id="edge27" class="edge" data-name="Bank.cashIn-&gt;Bank.getBalance">

<path fill="none" stroke="#1bc6a6" stroke-width="2" d="M470.52,-538.62C512.65,-545.66 585.51,-557.84 636.58,-566.38" style=""/>
<polygon fill="#1bc6a6" stroke="#1bc6a6" stroke-width="2" points="636.04,-569.84 646.48,-568.04 637.2,-562.94 636.04,-569.84" style=""/>
</g>
<!-- Bank.performUpkeep -->
<g id="node22" class="node" pointer-events="visible" data-name="Bank.performUpkeep">

<ellipse fill="#ffbdb9" stroke="#ffbdb9" stroke-width="3" cx="146.11" cy="-443" rx="72.34" ry="18" style=""/>
<text text-anchor="middle" x="146.11" y="-438.8" font-family="Times,serif" font-size="14.00" style="">performUpkeep</text>
</g>
<!-- Bank.performUpkeep&#45;&gt;Bank.withdrawPartnerAmount -->
<g id="edge29" class="edge" data-name="Bank.performUpkeep-&gt;Bank.withdrawPartnerAmount">

<path fill="none" stroke="#1bc6a6" stroke-width="2" d="M217.3,-439.85C237.93,-436.04 259.44,-428.93 276.21,-416 304.55,-394.16 283.99,-365.99 312.21,-344 319.42,-338.39 327.54,-333.89 336.1,-330.29" style=""/>
<polygon fill="#1bc6a6" stroke="#1bc6a6" stroke-width="2" points="337.41,-333.54 345.53,-326.73 334.94,-326.99 337.41,-333.54" style=""/>
</g>
<!-- Bank.getTokens -->
<g id="node23" class="node" pointer-events="visible" data-name="Bank.getTokens">

<ellipse fill="#ffbdb9" stroke="#ffbdb9" stroke-width="3" cx="695.12" cy="-227" rx="51.03" ry="18" style=""/>
<text text-anchor="middle" x="695.12" y="-222.8" font-family="Times,serif" font-size="14.00" style="">getTokens</text>
</g>
<!-- Bank.getTokens&#45;&gt;Bank._isGasToken -->
<g id="edge30" class="edge" data-name="Bank.getTokens-&gt;Bank._isGasToken">

<path fill="none" stroke="#1bc6a6" stroke-width="2" d="M705.12,-244.7C732.34,-298.09 813.05,-455.04 830.67,-474 841.31,-485.45 855.1,-495.43 868.1,-503.4" style=""/>
<polygon fill="#1bc6a6" stroke="#1bc6a6" stroke-width="2" points="866.54,-506.54 876.93,-508.59 870.08,-500.5 866.54,-506.54" style=""/>
</g>
<!-- Bank.IERC20Metadata -->
<g id="node46" class="node" pointer-events="visible" data-name="Bank.IERC20Metadata">

<ellipse fill="#edad56" stroke="#edad56" stroke-width="3" cx="909.29" cy="-227" rx="78.73" ry="18" style=""/>
<text text-anchor="middle" x="909.29" y="-222.8" font-family="Times,serif" font-size="14.00" style="">IERC20Metadata</text>
</g>
<!-- Bank.getTokens&#45;&gt;Bank.IERC20Metadata -->
<g id="edge31" class="edge" data-name="Bank.getTokens-&gt;Bank.IERC20Metadata">

<path fill="none" stroke="#1bc6a6" stroke-width="2" d="M746.4,-227C768.48,-227 795.07,-227 820.26,-227" style=""/>
<polygon fill="#1bc6a6" stroke="#1bc6a6" stroke-width="2" points="820.57,-230.5 830.57,-227 820.57,-223.5 820.57,-230.5" style=""/>
</g>
<!-- IERC20Metadata.decimals -->
<g id="node47" class="node" pointer-events="visible" data-name="IERC20Metadata.decimals">

<ellipse fill="#edad56" stroke="#edad56" stroke-width="3" cx="909.29" cy="-34" rx="45.22" ry="18" style=""/>
<text text-anchor="middle" x="909.29" y="-29.8" font-family="Times,serif" font-size="14.00" style="">decimals</text>
</g>
<!-- Bank.getTokens&#45;&gt;IERC20Metadata.decimals -->
<g id="edge32" class="edge" data-name="Bank.getTokens-&gt;IERC20Metadata.decimals">

<path fill="none" stroke="white" stroke-width="2" d="M705.91,-209.26C725.36,-175.6 772.08,-102.15 830.67,-61 839.43,-54.85 849.72,-49.98 859.89,-46.18" style=""/>
<polygon fill="white" stroke="white" stroke-width="2" points="861.24,-49.42 869.56,-42.85 858.96,-42.8 861.24,-49.42" style=""/>
</g>
<!-- IERC20Metadata.name -->
<g id="node48" class="node" pointer-events="visible" data-name="IERC20Metadata.name">

<ellipse fill="#edad56" stroke="#edad56" stroke-width="3" cx="909.29" cy="-142" rx="31.9" ry="18" style=""/>
<text text-anchor="middle" x="909.29" y="-137.8" font-family="Times,serif" font-size="14.00" style="">name</text>
</g>
<!-- Bank.getTokens&#45;&gt;IERC20Metadata.name -->
<g id="edge33" class="edge" data-name="Bank.getTokens-&gt;IERC20Metadata.name">

<path fill="none" stroke="white" stroke-width="2" d="M729.74,-213.53C769.03,-197.79 833.73,-171.87 873.51,-155.93" style=""/>
<polygon fill="white" stroke="white" stroke-width="2" points="874.84,-159.17 882.82,-152.2 872.23,-152.67 874.84,-159.17" style=""/>
</g>
<!-- IERC20Metadata.symbol -->
<g id="node49" class="node" pointer-events="visible" data-name="IERC20Metadata.symbol">

<ellipse fill="#edad56" stroke="#edad56" stroke-width="3" cx="909.29" cy="-88" rx="39.45" ry="18" style=""/>
<text text-anchor="middle" x="909.29" y="-83.8" font-family="Times,serif" font-size="14.00" style="">symbol</text>
</g>
<!-- Bank.getTokens&#45;&gt;IERC20Metadata.symbol -->
<g id="edge34" class="edge" data-name="Bank.getTokens-&gt;IERC20Metadata.symbol">

<path fill="none" stroke="white" stroke-width="2" d="M712.46,-209.96C736.4,-185.86 783.31,-141.77 830.67,-115 841.34,-108.97 853.6,-103.94 865.17,-99.93" style=""/>
<polygon fill="white" stroke="white" stroke-width="2" points="866.28,-103.25 874.68,-96.79 864.08,-96.6 866.28,-103.25" style=""/>
</g>
<!-- Bank.getMinBetAmount -->
<g id="node24" class="node" pointer-events="visible" data-name="Bank.getMinBetAmount">

<ellipse fill="#ffbdb9" stroke="#ffbdb9" stroke-width="3" cx="146.11" cy="-389" rx="83.99" ry="18" style=""/>
<text text-anchor="middle" x="146.11" y="-384.8" font-family="Times,serif" font-size="14.00" style="">getMinBetAmount</text>
</g>
<!-- Bank.getMaxBetAmount -->
<g id="node25" class="node" pointer-events="visible" data-name="Bank.getMaxBetAmount">

<ellipse fill="#ffbdb9" stroke="#ffbdb9" stroke-width="3" cx="435.9" cy="-641" rx="85.7" ry="18" style=""/>
<text text-anchor="middle" x="435.9" y="-636.8" font-family="Times,serif" font-size="14.00" style="">getMaxBetAmount</text>
</g>
<!-- Bank.getMaxBetAmount&#45;&gt;Bank.getBalance -->
<g id="edge35" class="edge" data-name="Bank.getMaxBetAmount-&gt;Bank.getBalance">

<path fill="none" stroke="#1bc6a6" stroke-width="2" d="M497.97,-628.57C517.71,-624.28 539.64,-619.23 559.58,-614 575.76,-609.75 579.51,-607.66 595.58,-603 610.81,-598.59 627.43,-593.96 642.6,-589.81" style=""/>
<polygon fill="#1bc6a6" stroke="#1bc6a6" stroke-width="2" points="643.6,-593.17 652.33,-587.16 641.76,-586.41 643.6,-593.17" style=""/>
</g>
<!-- Bank.isAllowedToken -->
<g id="node26" class="node" pointer-events="visible" data-name="Bank.isAllowedToken">

<ellipse fill="#ffbdb9" stroke="#ffbdb9" stroke-width="3" cx="146.11" cy="-335" rx="75.31" ry="18" style=""/>
<text text-anchor="middle" x="146.11" y="-330.8" font-family="Times,serif" font-size="14.00" style="">isAllowedToken</text>
</g>
<!-- Bank.checkUpkeep -->
<g id="node27" class="node" pointer-events="visible" data-name="Bank.checkUpkeep">

<ellipse fill="#ffbdb9" stroke="#ffbdb9" stroke-width="3" cx="146.11" cy="-281" rx="63.67" ry="18" style=""/>
<text text-anchor="middle" x="146.11" y="-276.8" font-family="Times,serif" font-size="14.00" style="">checkUpkeep</text>
</g>
<!-- Bank.getVRFSubId -->
<g id="node28" class="node" pointer-events="visible" data-name="Bank.getVRFSubId">

<ellipse fill="#ffbdb9" stroke="#ffbdb9" stroke-width="3" cx="146.11" cy="-227" rx="64.88" ry="18" style=""/>
<text text-anchor="middle" x="146.11" y="-222.8" font-family="Times,serif" font-size="14.00" style="">getVRFSubId</text>
</g>
<!-- Bank.getTokenOwner -->
<g id="node29" class="node" pointer-events="visible" data-name="Bank.getTokenOwner">

<ellipse fill="#ffbdb9" stroke="#ffbdb9" stroke-width="3" cx="435.9" cy="-809" rx="73.57" ry="18" style=""/>
<text text-anchor="middle" x="435.9" y="-804.8" font-family="Times,serif" font-size="14.00" style="">getTokenOwner</text>
</g>
<!-- Bank.getTokenOwner&#45;&gt;Bank.getRoleMember -->
<g id="edge36" class="edge" data-name="Bank.getTokenOwner-&gt;Bank.getRoleMember">

<path fill="none" stroke="#1bc6a6" stroke-width="2" d="M507.18,-804.35C539.94,-802.19 579.1,-799.6 613.1,-797.35" style=""/>
<polygon fill="#1bc6a6" stroke="#1bc6a6" stroke-width="2" points="613.73,-800.82 623.47,-796.67 613.26,-793.84 613.73,-800.82" style=""/>
</g>
<!-- Bank.setTeamWallet&#45;&gt;Bank.WrongAddress -->
<g id="edge37" class="edge" data-name="Bank.setTeamWallet-&gt;Bank.WrongAddress">

<path fill="none" stroke="#1bc6a6" stroke-width="2" d="M503.14,-921.64C538.11,-924.08 581.19,-927.1 617.58,-929.64" style=""/>
<polygon fill="#1bc6a6" stroke="#1bc6a6" stroke-width="2" points="617.44,-933.14 627.66,-930.35 617.93,-926.16 617.44,-933.14" style=""/>
</g>
<!-- Bank.withdrawHouseEdgeAmount -->
<g id="node31" class="node" pointer-events="visible" data-name="Bank.withdrawHouseEdgeAmount">

<ellipse fill="#ff9797" stroke="#ff9797" stroke-width="3" cx="435.9" cy="-425" rx="123.86" ry="18" style=""/>
<text text-anchor="middle" x="435.9" y="-420.8" font-family="Times,serif" font-size="14.00" style="">withdrawHouseEdgeAmount</text>
</g>
<!-- Bank.withdrawHouseEdgeAmount&#45;&gt;Bank._safeTransfer -->
<g id="edge38" class="edge" data-name="Bank.withdrawHouseEdgeAmount-&gt;Bank._safeTransfer">

<path fill="none" stroke="#1bc6a6" stroke-width="2" d="M557.22,-428.55C582.96,-430.68 609.15,-433.2 631.63,-435.77" style=""/>
<polygon fill="#1bc6a6" stroke="#1bc6a6" stroke-width="2" points="631.34,-439.26 641.68,-436.95 632.16,-432.31 631.34,-439.26" style=""/>
</g>
<!-- Bank.withdrawHouseEdgeAmount&#45;&gt;Bank._safeTransfer -->
<g id="edge39" class="edge" data-name="Bank.withdrawHouseEdgeAmount-&gt;Bank._safeTransfer">

<path fill="none" stroke="#1bc6a6" stroke-width="2" d="M518.99,-438.36C551.63,-441.75 588.88,-444.88 620.62,-446.88" style=""/>
<polygon fill="#1bc6a6" stroke="#1bc6a6" stroke-width="2" points="620.52,-450.38 630.72,-447.49 620.95,-443.39 620.52,-450.38" style=""/>
</g>
<!-- Bank.withdrawPartnerAmount&#45;&gt;Bank._safeTransfer -->
<g id="edge40" class="edge" data-name="Bank.withdrawPartnerAmount-&gt;Bank._safeTransfer">

<path fill="none" stroke="#1bc6a6" stroke-width="2" d="M515.8,-329.02C530.73,-332.77 545.93,-337.66 559.58,-344 602.13,-363.77 643.89,-398.89 669.32,-422.56" style=""/>
<polygon fill="#1bc6a6" stroke="#1bc6a6" stroke-width="2" points="667,-425.18 676.67,-429.5 671.81,-420.09 667,-425.18" style=""/>
</g>
<!-- Bank.getBalance&#45;&gt;Bank._isGasToken -->
<g id="edge41" class="edge" data-name="Bank.getBalance-&gt;Bank._isGasToken">

<path fill="none" stroke="#1bc6a6" stroke-width="2" d="M739.06,-565.48C771.35,-557.56 815.91,-546.64 851.2,-537.99" style=""/>
<polygon fill="#1bc6a6" stroke="#1bc6a6" stroke-width="2" points="852.48,-541.28 861.36,-535.5 850.82,-534.48 852.48,-541.28" style=""/>
</g>
<!-- Bank.getBalance&#45;&gt;Bank.IERC20 -->
<g id="edge42" class="edge" data-name="Bank.getBalance-&gt;Bank.IERC20">

<path fill="none" stroke="#1bc6a6" stroke-width="2" d="M749.11,-576.5C781.9,-576.81 823.79,-577.2 856.37,-577.51" style=""/>
<polygon fill="#1bc6a6" stroke="#1bc6a6" stroke-width="2" points="856.57,-581.01 866.6,-577.61 856.63,-574.01 856.57,-581.01" style=""/>
</g>
<!-- key -->
<g id="node50" class="node" pointer-events="visible" data-name="key">

<polygon fill="#edad56" stroke="transparent" stroke-width="3" points="211.11,-1254 81.11,-1254 81.11,-1166 211.11,-1166 211.11,-1254" style=""/>
<text text-anchor="start" x="130.75" y="-1235.4" font-family="Times,serif" font-size="14.00" style="">Internal Call</text>
<text text-anchor="start" x="126.86" y="-1215.4" font-family="Times,serif" font-size="14.00" style="">External Call</text>
<text text-anchor="start" x="104.31" y="-1195.4" font-family="Times,serif" font-size="14.00" style="">Defined Contract</text>
<text text-anchor="start" x="90.71" y="-1175.4" font-family="Times,serif" font-size="14.00" style="">Undefined Contract</text>
</g>
<!-- key2 -->
<g id="node51" class="node" pointer-events="visible" data-name="key2">

<polygon fill="#edad56" stroke="transparent" stroke-width="3" points="462.9,-1254 408.9,-1254 408.9,-1166 462.9,-1166 462.9,-1254" style=""/>
<text text-anchor="start" x="425.9" y="-1235.4" font-family="Times,serif" font-size="14.00" style="">   </text>
<text text-anchor="start" x="425.9" y="-1215.4" font-family="Times,serif" font-size="14.00" style="">   </text>
<polygon fill="#445773" stroke="transparent" points="423.9,-1190 423.9,-1210 448.9,-1210 448.9,-1190 423.9,-1190" style=""/>
<text text-anchor="start" x="425.9" y="-1195.4" font-family="Times,serif" font-size="14.00" style="">   </text>
<polygon fill="none" stroke="#e8726d" points="425.9,-1172 425.9,-1188 446.9,-1188 446.9,-1172 425.9,-1172" style=""/>
</g>
<!-- key&#45;&gt;key2 -->
<g id="edge43" class="edge" data-name="key-&gt;key2">

<path fill="none" stroke="#1bc6a6" stroke-width="2" d="M204.11,-1240C297.83,-1240 323.8,-1240 412.63,-1240" style=""/>
<polygon fill="#1bc6a6" stroke="#1bc6a6" stroke-width="2" points="412.9,-1243.5 422.9,-1240 412.9,-1236.5 412.9,-1243.5" style=""/>
</g>
<!-- key&#45;&gt;key2 -->
<g id="edge44" class="edge" data-name="key-&gt;key2">

<path fill="none" stroke="white" stroke-width="2" d="M204.11,-1220C297.83,-1220 323.8,-1220 412.63,-1220" style=""/>
<polygon fill="white" stroke="white" stroke-width="2" points="412.9,-1223.5 422.9,-1220 412.9,-1216.5 412.9,-1223.5" style=""/>
</g>
</g>
</svg>