<?xml version="1.0" standalone="no"?>
<svg xmlns="http://www.w3.org/2000/svg" xmlns:xlink="http://www.w3.org/1999/xlink" width="993pt" height="1176pt" viewBox="0.00 0.00 992.52 1176.00">
<g id="graph0" class="graph" transform="translate(4,1172) scale(1)" data-name="G">

<polygon fill="#2e3e56" stroke="transparent" points="-4,4 -4,-1172 988.52,-1172 988.52,4 -4,4" style=""/>
<g id="clust1" class="cluster" data-name="clusterBank">

<path fill="#445773" stroke="#445773" d="M20,-286C20,-286 964.52,-286 964.52,-286 970.52,-286 976.52,-292 976.52,-298 976.52,-298 976.52,-1011 976.52,-1011 976.52,-1017 970.52,-1023 964.52,-1023 964.52,-1023 20,-1023 20,-1023 14,-1023 8,-1017 8,-1011 8,-1011 8,-298 8,-298 8,-292 14,-286 20,-286" style=""/>
<text text-anchor="middle" x="492.26" y="-1006.4" font-family="Times,serif" font-size="14.00" fill="#f0f0f0" style="">Bank</text>
</g>
<g id="clust2" class="cluster" data-name="clusteruser">

<path fill="#3b4b63" stroke="#e8726d" stroke-dasharray="5,2" d="M853.39,-201C853.39,-201 926.43,-201 926.43,-201 932.43,-201 938.43,-207 938.43,-213 938.43,-213 938.43,-266 938.43,-266 938.43,-272 932.43,-278 926.43,-278 926.43,-278 853.39,-278 853.39,-278 847.39,-278 841.39,-272 841.39,-266 841.39,-266 841.39,-213 841.39,-213 841.39,-207 847.39,-201 853.39,-201" style=""/>
<text text-anchor="middle" x="889.91" y="-261.4" font-family="Times,serif" font-size="14.00" fill="#f0f0f0" style="">user</text>
</g>
<g id="clust3" class="cluster" data-name="clusterIReferral">

<path fill="#3b4b63" stroke="#e8726d" stroke-dasharray="5,2" d="M625.86,-201C625.86,-201 731.08,-201 731.08,-201 737.08,-201 743.08,-207 743.08,-213 743.08,-213 743.08,-266 743.08,-266 743.08,-272 737.08,-278 731.08,-278 731.08,-278 625.86,-278 625.86,-278 619.86,-278 613.86,-272 613.86,-266 613.86,-266 613.86,-213 613.86,-213 613.86,-207 619.86,-201 625.86,-201" style=""/>
<text text-anchor="middle" x="678.47" y="-261.4" font-family="Times,serif" font-size="14.00" fill="#f0f0f0" style="">IReferral</text>
</g>
<g id="clust4" class="cluster" data-name="clusterIERC20Metadata">

<path fill="#3b4b63" stroke="#e8726d" stroke-dasharray="5,2" d="M845.55,-8C845.55,-8 935.27,-8 935.27,-8 941.27,-8 947.27,-14 947.27,-20 947.27,-20 947.27,-181 947.27,-181 947.27,-187 941.27,-193 935.27,-193 935.27,-193 845.55,-193 845.55,-193 839.55,-193 833.55,-187 833.55,-181 833.55,-181 833.55,-20 833.55,-20 833.55,-14 839.55,-8 845.55,-8" style=""/>
<text text-anchor="middle" x="890.41" y="-176.4" font-family="Times,serif" font-size="14.00" fill="#f0f0f0" style="">IERC20Metadata</text>
</g>
<g id="clust5" class="cluster" data-name="cluster_01">

<polygon fill="#2e3e56" stroke="black" points="54.88,-1031 54.88,-1160 445.7,-1160 445.7,-1031 54.88,-1031" style=""/>
<text text-anchor="middle" x="250.29" y="-1143.4" font-family="Times,serif" font-size="14.00" style="">Legend</text>
</g>
<!-- Bank.&lt;Constructor&gt; -->
<g id="node1" class="node" pointer-events="visible" data-name="Bank.&lt;Constructor&gt;">

<ellipse fill="#ff9797" stroke="#ff9797" stroke-width="3" cx="127.88" cy="-972" rx="67.54" ry="18" style=""/>
<text text-anchor="middle" x="127.88" y="-967.8" font-family="Times,serif" font-size="14.00" style="">&lt;Constructor&gt;</text>
</g>
<!-- Bank.setTeamWallet -->
<g id="node21" class="node" pointer-events="visible" data-name="Bank.setTeamWallet">

<ellipse fill="#edad56" stroke="#edad56" stroke-width="3" cx="410.7" cy="-972" rx="69.47" ry="18" style=""/>
<text text-anchor="middle" x="410.7" y="-967.8" font-family="Times,serif" font-size="14.00" style="">setTeamWallet</text>
</g>
<!-- Bank.&lt;Constructor&gt;&#45;&gt;Bank.setTeamWallet -->
<g id="edge2" class="edge" data-name="Bank.&lt;Constructor&gt;-&gt;Bank.setTeamWallet">

<path fill="none" stroke="#1bc6a6" stroke-width="2" d="M195.43,-972C236.12,-972 288.38,-972 331.11,-972" style=""/>
<polygon fill="#1bc6a6" stroke="#1bc6a6" stroke-width="2" points="331.19,-975.5 341.19,-972 331.19,-968.5 331.19,-975.5" style=""/>
</g>
<!-- Bank.setReferralProgram -->
<g id="node22" class="node" pointer-events="visible" data-name="Bank.setReferralProgram">

<ellipse fill="#edad56" stroke="#edad56" stroke-width="3" cx="410.7" cy="-864" rx="86.79" ry="18" style=""/>
<text text-anchor="middle" x="410.7" y="-859.8" font-family="Times,serif" font-size="14.00" style="">setReferralProgram</text>
</g>
<!-- Bank.&lt;Constructor&gt;&#45;&gt;Bank.setReferralProgram -->
<g id="edge3" class="edge" data-name="Bank.&lt;Constructor&gt;-&gt;Bank.setReferralProgram">

<path fill="none" stroke="#1bc6a6" stroke-width="2" d="M190.72,-965.36C207.71,-961.39 225.39,-955.06 239.76,-945 263.38,-928.46 251.8,-907.07 275.76,-891 288.52,-882.44 303.41,-876.48 318.53,-872.35" style=""/>
<polygon fill="#1bc6a6" stroke="#1bc6a6" stroke-width="2" points="319.6,-875.69 328.47,-869.9 317.92,-868.9 319.6,-875.69" style=""/>
</g>
<!-- Bank._setupRole -->
<g id="node24" class="node" pointer-events="visible" data-name="Bank._setupRole">

<ellipse fill="#edad56" stroke="#edad56" stroke-width="3" cx="410.7" cy="-918" rx="54.47" ry="18" style=""/>
<text text-anchor="middle" x="410.7" y="-913.8" font-family="Times,serif" font-size="14.00" style="">_setupRole</text>
</g>
<!-- Bank.&lt;Constructor&gt;&#45;&gt;Bank._setupRole -->
<g id="edge1" class="edge" data-name="Bank.&lt;Constructor&gt;-&gt;Bank._setupRole">

<path fill="none" stroke="#1bc6a6" stroke-width="2" d="M183.02,-961.59C231.93,-952.18 303.64,-938.4 353.25,-928.86" style=""/>
<polygon fill="#1bc6a6" stroke="#1bc6a6" stroke-width="2" points="354.01,-932.27 363.17,-926.95 352.69,-925.4 354.01,-932.27" style=""/>
</g>
<!-- Bank._safeTransfer -->
<g id="node2" class="node" pointer-events="visible" data-name="Bank._safeTransfer">

<ellipse fill="#edad56" stroke="#edad56" stroke-width="3" cx="678.47" cy="-379" rx="64.22" ry="18" style=""/>
<text text-anchor="middle" x="678.47" y="-374.8" font-family="Times,serif" font-size="14.00" style="">_safeTransfer</text>
</g>
<!-- Bank._isGasToken -->
<g id="node5" class="node" pointer-events="visible" data-name="Bank._isGasToken">

<ellipse fill="#edad56" stroke="#edad56" stroke-width="3" cx="889.91" cy="-507" rx="61.98" ry="18" style=""/>
<text text-anchor="middle" x="889.91" y="-502.8" font-family="Times,serif" font-size="14.00" style="">_isGasToken</text>
</g>
<!-- Bank._safeTransfer&#45;&gt;Bank._isGasToken -->
<g id="edge4" class="edge" data-name="Bank._safeTransfer-&gt;Bank._isGasToken">

<path fill="none" stroke="#1bc6a6" stroke-width="2" d="M731.87,-389.19C746.46,-393.23 761.95,-398.7 775.29,-406 811.33,-425.72 845.55,-458.8 866.83,-481.7" style=""/>
<polygon fill="#1bc6a6" stroke="#1bc6a6" stroke-width="2" points="864.48,-484.31 873.81,-489.34 869.65,-479.59 864.48,-484.31" style=""/>
</g>
<!-- Bank.IERC20 -->
<g id="node25" class="node" pointer-events="visible" data-name="Bank.IERC20">

<ellipse fill="#edad56" stroke="#edad56" stroke-width="3" cx="889.91" cy="-561" rx="42.88" ry="18" style=""/>
<text text-anchor="middle" x="889.91" y="-556.8" font-family="Times,serif" font-size="14.00" style="">IERC20</text>
</g>
<!-- Bank._safeTransfer&#45;&gt;Bank.IERC20 -->
<g id="edge6" class="edge" data-name="Bank._safeTransfer-&gt;Bank.IERC20">

<path fill="none" stroke="#1bc6a6" stroke-width="2" d="M738.21,-385.57C751.84,-389.6 765.27,-395.98 775.29,-406 817.07,-447.8 770.79,-490.97 811.29,-534 818.93,-542.11 829.13,-547.79 839.62,-551.76" style=""/>
<polygon fill="#1bc6a6" stroke="#1bc6a6" stroke-width="2" points="838.67,-555.13 849.27,-554.95 840.87,-548.49 838.67,-555.13" style=""/>
</g>
<!-- user.transfer -->
<g id="node31" class="node" pointer-events="visible" data-name="user.transfer">

<ellipse fill="#edad56" stroke="#edad56" stroke-width="3" cx="889.91" cy="-227" rx="40.54" ry="18" style=""/>
<text text-anchor="middle" x="889.91" y="-222.8" font-family="Times,serif" font-size="14.00" style="">transfer</text>
</g>
<!-- Bank._safeTransfer&#45;&gt;user.transfer -->
<g id="edge5" class="edge" data-name="Bank._safeTransfer-&gt;user.transfer">

<path fill="none" stroke="white" stroke-width="2" d="M725.07,-366.42C742.12,-360.14 760.83,-351.22 775.29,-339 798.18,-319.66 790.68,-303.74 811.29,-282 824.19,-268.4 840.89,-256.06 855.51,-246.52" style=""/>
<polygon fill="white" stroke="white" stroke-width="2" points="857.71,-249.27 864.28,-240.96 853.96,-243.36 857.71,-249.27" style=""/>
</g>
<!-- Bank._allocateHouseEdge -->
<g id="node3" class="node" pointer-events="visible" data-name="Bank._allocateHouseEdge">

<ellipse fill="#edad56" stroke="#edad56" stroke-width="3" cx="410.7" cy="-332" rx="90.31" ry="18" style=""/>
<text text-anchor="middle" x="410.7" y="-327.8" font-family="Times,serif" font-size="14.00" style="">_allocateHouseEdge</text>
</g>
<!-- Bank._allocateHouseEdge&#45;&gt;Bank._safeTransfer -->
<g id="edge8" class="edge" data-name="Bank._allocateHouseEdge-&gt;Bank._safeTransfer">

<path fill="none" stroke="#1bc6a6" stroke-width="2" d="M478.77,-343.86C520.16,-351.18 572.96,-360.52 613.72,-367.73" style=""/>
<polygon fill="#1bc6a6" stroke="#1bc6a6" stroke-width="2" points="613.35,-371.22 623.81,-369.51 614.57,-364.32 613.35,-371.22" style=""/>
</g>
<!-- Bank.payable -->
<g id="node26" class="node" pointer-events="visible" data-name="Bank.payable">

<ellipse fill="#edad56" stroke="#edad56" stroke-width="3" cx="678.47" cy="-433" rx="41.13" ry="18" style=""/>
<text text-anchor="middle" x="678.47" y="-428.8" font-family="Times,serif" font-size="14.00" style="">payable</text>
</g>
<!-- Bank._allocateHouseEdge&#45;&gt;Bank.payable -->
<g id="edge9" class="edge" data-name="Bank._allocateHouseEdge-&gt;Bank.payable">

<path fill="none" stroke="#1bc6a6" stroke-width="2" d="M464.79,-346.51C490.05,-354.43 520.21,-365.42 545.65,-379 563.29,-388.42 563.72,-397.14 581.65,-406 596.92,-413.55 614.63,-419.29 630.64,-423.49" style=""/>
<polygon fill="#1bc6a6" stroke="#1bc6a6" stroke-width="2" points="629.81,-426.89 640.36,-425.91 631.5,-420.09 629.81,-426.89" style=""/>
</g>
<!-- IReferral.payReferral -->
<g id="node32" class="node" pointer-events="visible" data-name="IReferral.payReferral">

<ellipse fill="#edad56" stroke="#edad56" stroke-width="3" cx="678.47" cy="-227" rx="56.72" ry="18" style=""/>
<text text-anchor="middle" x="678.47" y="-222.8" font-family="Times,serif" font-size="14.00" style="">payReferral</text>
</g>
<!-- Bank._allocateHouseEdge&#45;&gt;IReferral.payReferral -->
<g id="edge7" class="edge" data-name="Bank._allocateHouseEdge-&gt;IReferral.payReferral">

<path fill="none" stroke="white" stroke-width="2" d="M452.36,-315.94C501.13,-296.67 582.6,-264.48 633,-244.57" style=""/>
<polygon fill="white" stroke="white" stroke-width="2" points="634.33,-247.81 642.34,-240.88 631.76,-241.3 634.33,-247.81" style=""/>
</g>
<!-- Bank._setBalanceReference -->
<g id="node4" class="node" pointer-events="visible" data-name="Bank._setBalanceReference">

<ellipse fill="#edad56" stroke="#edad56" stroke-width="3" cx="678.47" cy="-487" rx="96.64" ry="18" style=""/>
<text text-anchor="middle" x="678.47" y="-482.8" font-family="Times,serif" font-size="14.00" style="">_setBalanceReference</text>
</g>
<!-- Bank.deposit -->
<g id="node6" class="node" pointer-events="visible" data-name="Bank.deposit">

<ellipse fill="#ffbdb9" stroke="brown" stroke-width="3" cx="410.7" cy="-534" rx="38.86" ry="18" style=""/>
<text text-anchor="middle" x="410.7" y="-529.8" font-family="Times,serif" font-size="14.00" style="">deposit</text>
</g>
<!-- Bank.deposit&#45;&gt;Bank._setBalanceReference -->
<g id="edge12" class="edge" data-name="Bank.deposit-&gt;Bank._setBalanceReference">

<path fill="none" stroke="#1bc6a6" stroke-width="2" d="M443.23,-523.87C477.58,-515.83 534.17,-505.18 583.12,-497.2" style=""/>
<polygon fill="#1bc6a6" stroke="#1bc6a6" stroke-width="2" points="583.8,-500.63 593.12,-495.59 582.69,-493.72 583.8,-500.63" style=""/>
</g>
<!-- Bank.deposit&#45;&gt;Bank._setBalanceReference -->
<g id="edge13" class="edge" data-name="Bank.deposit-&gt;Bank._setBalanceReference">

<path fill="none" stroke="#1bc6a6" stroke-width="2" d="M449.5,-532.2C492.36,-526.73 562.93,-514.57 614.21,-504.03" style=""/>
<polygon fill="#1bc6a6" stroke="#1bc6a6" stroke-width="2" points="615.13,-507.42 624.2,-501.95 613.7,-500.57 615.13,-507.42" style=""/>
</g>
<!-- Bank.deposit&#45;&gt;Bank._isGasToken -->
<g id="edge11" class="edge" data-name="Bank.deposit-&gt;Bank._isGasToken">

<path fill="none" stroke="#1bc6a6" stroke-width="2" d="M449.66,-531.99C515.8,-528.48 656.49,-520.93 775.29,-514 789.34,-513.18 804.37,-512.28 818.74,-511.4" style=""/>
<polygon fill="#1bc6a6" stroke="#1bc6a6" stroke-width="2" points="819.3,-514.87 829.06,-510.76 818.87,-507.88 819.3,-514.87" style=""/>
</g>
<!-- Bank.getBalance -->
<g id="node23" class="node" pointer-events="visible" data-name="Bank.getBalance">

<ellipse fill="#edad56" stroke="#edad56" stroke-width="3" cx="678.47" cy="-581" rx="53.87" ry="18" style=""/>
<text text-anchor="middle" x="678.47" y="-576.8" font-family="Times,serif" font-size="14.00" style="">getBalance</text>
</g>
<!-- Bank.deposit&#45;&gt;Bank.getBalance -->
<g id="edge10" class="edge" data-name="Bank.deposit-&gt;Bank.getBalance">

<path fill="none" stroke="#1bc6a6" stroke-width="2" d="M447.27,-540.29C491.56,-548.12 567.78,-561.6 620.3,-570.89" style=""/>
<polygon fill="#1bc6a6" stroke="#1bc6a6" stroke-width="2" points="620.02,-574.39 630.48,-572.69 621.24,-567.5 620.02,-574.39" style=""/>
</g>
<!-- Bank.deposit&#45;&gt;Bank.IERC20 -->
<g id="edge14" class="edge" data-name="Bank.deposit-&gt;Bank.IERC20">

<path fill="none" stroke="#1bc6a6" stroke-width="2" d="M449.66,-536.01C515.8,-539.52 656.49,-547.07 775.29,-554 795.61,-555.18 817.97,-556.55 837.44,-557.76" style=""/>
<polygon fill="#1bc6a6" stroke="#1bc6a6" stroke-width="2" points="837.43,-561.26 847.63,-558.39 837.86,-554.28 837.43,-561.26" style=""/>
</g>
<!-- Bank.withdraw -->
<g id="node7" class="node" pointer-events="visible" data-name="Bank.withdraw">

<ellipse fill="#ffbdb9" stroke="#ffbdb9" stroke-width="3" cx="410.7" cy="-460" rx="47.51" ry="18" style=""/>
<text text-anchor="middle" x="410.7" y="-455.8" font-family="Times,serif" font-size="14.00" style="">withdraw</text>
</g>
<!-- Bank.withdraw&#45;&gt;Bank._safeTransfer -->
<g id="edge17" class="edge" data-name="Bank.withdraw-&gt;Bank._safeTransfer">

<path fill="none" stroke="#1bc6a6" stroke-width="2" d="M457.27,-455.9C483.93,-452.27 517.72,-445.51 545.65,-433 563.9,-424.82 563.72,-414.86 581.65,-406 592.54,-400.61 604.68,-396.15 616.56,-392.51" style=""/>
<polygon fill="#1bc6a6" stroke="#1bc6a6" stroke-width="2" points="617.81,-395.79 626.44,-389.64 615.86,-389.07 617.81,-395.79" style=""/>
</g>
<!-- Bank.withdraw&#45;&gt;Bank._setBalanceReference -->
<g id="edge15" class="edge" data-name="Bank.withdraw-&gt;Bank._setBalanceReference">

<path fill="none" stroke="#1bc6a6" stroke-width="2" d="M456.79,-464.58C491.27,-468.08 540.03,-473.04 582.95,-477.4" style=""/>
<polygon fill="#1bc6a6" stroke="#1bc6a6" stroke-width="2" points="582.84,-480.9 593.15,-478.43 583.55,-473.94 582.84,-480.9" style=""/>
</g>
<!-- Bank.withdraw&#45;&gt;Bank.getBalance -->
<g id="edge16" class="edge" data-name="Bank.withdraw-&gt;Bank.getBalance">

<path fill="none" stroke="#1bc6a6" stroke-width="2" d="M448.47,-470.99C475.77,-479.61 513.65,-492.54 545.65,-507 580.09,-522.57 617.5,-544.04 643.64,-559.85" style=""/>
<polygon fill="#1bc6a6" stroke="#1bc6a6" stroke-width="2" points="642.03,-562.96 652.39,-565.18 645.68,-556.99 642.03,-562.96" style=""/>
</g>
<!-- Bank.withdraw&#45;&gt;Bank.payable -->
<g id="edge18" class="edge" data-name="Bank.withdraw-&gt;Bank.payable">

<path fill="none" stroke="#1bc6a6" stroke-width="2" d="M456.79,-455.42C504.35,-450.59 579.07,-443 628.17,-438.01" style=""/>
<polygon fill="#1bc6a6" stroke="#1bc6a6" stroke-width="2" points="628.64,-441.48 638.24,-436.99 627.94,-434.51 628.64,-441.48" style=""/>
</g>
<!-- Bank.setBalanceRisk -->
<g id="node8" class="node" pointer-events="visible" data-name="Bank.setBalanceRisk">

<ellipse fill="#ffbdb9" stroke="#ffbdb9" stroke-width="3" cx="127.88" cy="-918" rx="70.64" ry="18" style=""/>
<text text-anchor="middle" x="127.88" y="-913.8" font-family="Times,serif" font-size="14.00" style="">setBalanceRisk</text>
</g>
<!-- Bank.addToken -->
<g id="node9" class="node" pointer-events="visible" data-name="Bank.addToken">

<ellipse fill="#ffbdb9" stroke="#ffbdb9" stroke-width="3" cx="127.88" cy="-864" rx="49.8" ry="18" style=""/>
<text text-anchor="middle" x="127.88" y="-859.8" font-family="Times,serif" font-size="14.00" style="">addToken</text>
</g>
<!-- Bank.TokenExists -->
<g id="node27" class="node" pointer-events="visible" data-name="Bank.TokenExists">

<ellipse fill="#edad56" stroke="#edad56" stroke-width="3" cx="410.7" cy="-810" rx="59.13" ry="18" style=""/>
<text text-anchor="middle" x="410.7" y="-805.8" font-family="Times,serif" font-size="14.00" style="">TokenExists</text>
</g>
<!-- Bank.addToken&#45;&gt;Bank.TokenExists -->
<g id="edge19" class="edge" data-name="Bank.addToken-&gt;Bank.TokenExists">

<path fill="none" stroke="#1bc6a6" stroke-width="2" d="M172.14,-855.68C219.84,-846.51 296.87,-831.7 350.23,-821.44" style=""/>
<polygon fill="#1bc6a6" stroke="#1bc6a6" stroke-width="2" points="351.08,-824.84 360.24,-819.51 349.76,-817.96 351.08,-824.84" style=""/>
</g>
<!-- Bank.setAllowedToken -->
<g id="node10" class="node" pointer-events="visible" data-name="Bank.setAllowedToken">

<ellipse fill="#ffbdb9" stroke="#ffbdb9" stroke-width="3" cx="127.88" cy="-810" rx="79.88" ry="18" style=""/>
<text text-anchor="middle" x="127.88" y="-805.8" font-family="Times,serif" font-size="14.00" style="">setAllowedToken</text>
</g>
<!-- Bank.setHouseEdgeSplit -->
<g id="node11" class="node" pointer-events="visible" data-name="Bank.setHouseEdgeSplit">

<ellipse fill="#ffbdb9" stroke="#ffbdb9" stroke-width="3" cx="127.88" cy="-756" rx="84.55" ry="18" style=""/>
<text text-anchor="middle" x="127.88" y="-751.8" font-family="Times,serif" font-size="14.00" style="">setHouseEdgeSplit</text>
</g>
<!-- Bank.WrongHouseEdgeSplit -->
<g id="node28" class="node" pointer-events="visible" data-name="Bank.WrongHouseEdgeSplit">

<ellipse fill="#edad56" stroke="#edad56" stroke-width="3" cx="410.7" cy="-756" rx="100.73" ry="18" style=""/>
<text text-anchor="middle" x="410.7" y="-751.8" font-family="Times,serif" font-size="14.00" style="">WrongHouseEdgeSplit</text>
</g>
<!-- Bank.setHouseEdgeSplit&#45;&gt;Bank.WrongHouseEdgeSplit -->
<g id="edge20" class="edge" data-name="Bank.setHouseEdgeSplit-&gt;Bank.WrongHouseEdgeSplit">

<path fill="none" stroke="#1bc6a6" stroke-width="2" d="M212.75,-756C240.08,-756 270.83,-756 299.77,-756" style=""/>
<polygon fill="#1bc6a6" stroke="#1bc6a6" stroke-width="2" points="299.92,-759.5 309.92,-756 299.92,-752.5 299.92,-759.5" style=""/>
</g>
<!-- Bank.setCashInHouseEdgeSplit -->
<g id="node12" class="node" pointer-events="visible" data-name="Bank.setCashInHouseEdgeSplit">

<ellipse fill="#ffbdb9" stroke="#ffbdb9" stroke-width="3" cx="127.88" cy="-702" rx="111.76" ry="18" style=""/>
<text text-anchor="middle" x="127.88" y="-697.8" font-family="Times,serif" font-size="14.00" style="">setCashInHouseEdgeSplit</text>
</g>
<!-- Bank.setCashInHouseEdgeSplit&#45;&gt;Bank.WrongHouseEdgeSplit -->
<g id="edge21" class="edge" data-name="Bank.setCashInHouseEdgeSplit-&gt;Bank.WrongHouseEdgeSplit">

<path fill="none" stroke="#1bc6a6" stroke-width="2" d="M200.47,-715.77C240.55,-723.47 290.58,-733.09 331.66,-740.99" style=""/>
<polygon fill="#1bc6a6" stroke="#1bc6a6" stroke-width="2" points="331.15,-744.46 341.63,-742.91 332.47,-737.58 331.15,-744.46" style=""/>
</g>
<!-- Bank.distributeTokenHouseEdgeSplit -->
<g id="node13" class="node" pointer-events="visible" data-name="Bank.distributeTokenHouseEdgeSplit">

<ellipse fill="#ffbdb9" stroke="#ffbdb9" stroke-width="3" cx="410.7" cy="-406" rx="134.89" ry="18" style=""/>
<text text-anchor="middle" x="410.7" y="-401.8" font-family="Times,serif" font-size="14.00" style="">distributeTokenHouseEdgeSplit</text>
</g>
<!-- Bank.distributeTokenHouseEdgeSplit&#45;&gt;Bank._safeTransfer -->
<g id="edge22" class="edge" data-name="Bank.distributeTokenHouseEdgeSplit-&gt;Bank._safeTransfer">

<path fill="none" stroke="#1bc6a6" stroke-width="2" d="M491.8,-391.61C527.41,-387.29 569.07,-383.1 603.88,-380.36" style=""/>
<polygon fill="#1bc6a6" stroke="#1bc6a6" stroke-width="2" points="604.28,-383.84 613.98,-379.6 603.75,-376.86 604.28,-383.84" style=""/>
</g>
<!-- Bank.distributeTokenHouseEdgeSplit&#45;&gt;Bank._safeTransfer -->
<g id="edge23" class="edge" data-name="Bank.distributeTokenHouseEdgeSplit-&gt;Bank._safeTransfer">

<path fill="none" stroke="#1bc6a6" stroke-width="2" d="M537.97,-399.91C565.27,-397.2 592.94,-394.07 616.37,-390.99" style=""/>
<polygon fill="#1bc6a6" stroke="#1bc6a6" stroke-width="2" points="617.03,-394.44 626.47,-389.63 616.09,-387.5 617.03,-394.44" style=""/>
</g>
<!-- Bank.setBalanceOverflow -->
<g id="node14" class="node" pointer-events="visible" data-name="Bank.setBalanceOverflow">

<ellipse fill="#ffbdb9" stroke="#ffbdb9" stroke-width="3" cx="127.88" cy="-648" rx="89.72" ry="18" style=""/>
<text text-anchor="middle" x="127.88" y="-643.8" font-family="Times,serif" font-size="14.00" style="">setBalanceOverflow</text>
</g>
<!-- Bank.WrongBalanceOverflow -->
<g id="node29" class="node" pointer-events="visible" data-name="Bank.WrongBalanceOverflow">

<ellipse fill="#edad56" stroke="#edad56" stroke-width="3" cx="410.7" cy="-702" rx="105.9" ry="18" style=""/>
<text text-anchor="middle" x="410.7" y="-697.8" font-family="Times,serif" font-size="14.00" style="">WrongBalanceOverflow</text>
</g>
<!-- Bank.setBalanceOverflow&#45;&gt;Bank.WrongBalanceOverflow -->
<g id="edge24" class="edge" data-name="Bank.setBalanceOverflow-&gt;Bank.WrongBalanceOverflow">

<path fill="none" stroke="#1bc6a6" stroke-width="2" d="M193.31,-660.39C233.87,-668.19 286.54,-678.32 329.76,-686.63" style=""/>
<polygon fill="#1bc6a6" stroke="#1bc6a6" stroke-width="2" points="329.19,-690.08 339.67,-688.53 330.51,-683.21 329.19,-690.08" style=""/>
</g>
<!-- Bank.payout -->
<g id="node15" class="node" pointer-events="visible" data-name="Bank.payout">

<ellipse fill="#ffbdb9" stroke="brown" stroke-width="3" cx="127.88" cy="-420" rx="37.14" ry="18" style=""/>
<text text-anchor="middle" x="127.88" y="-415.8" font-family="Times,serif" font-size="14.00" style="">payout</text>
</g>
<!-- Bank.payout&#45;&gt;Bank._safeTransfer -->
<g id="edge26" class="edge" data-name="Bank.payout-&gt;Bank._safeTransfer">

<path fill="none" stroke="#1bc6a6" stroke-width="2" d="M165.4,-419.38C189.1,-417.15 219.26,-410.64 239.76,-393 271.78,-365.43 240.67,-328.55 275.76,-305 375.35,-238.14 434.18,-260.68 545.65,-305 566.1,-313.13 563.19,-327.01 581.65,-339 595.29,-347.86 611.22,-355.45 626.13,-361.55" style=""/>
<polygon fill="#1bc6a6" stroke="#1bc6a6" stroke-width="2" points="625.16,-364.93 635.75,-365.35 627.73,-358.42 625.16,-364.93" style=""/>
</g>
<!-- Bank.payout&#45;&gt;Bank._allocateHouseEdge -->
<g id="edge25" class="edge" data-name="Bank.payout-&gt;Bank._allocateHouseEdge">

<path fill="none" stroke="#1bc6a6" stroke-width="2" d="M164.2,-415.45C186.69,-411.6 215.95,-404.75 239.76,-393 258.18,-383.91 257.31,-373.05 275.76,-364 292.15,-355.96 310.67,-349.86 328.61,-345.27" style=""/>
<polygon fill="#1bc6a6" stroke="#1bc6a6" stroke-width="2" points="329.6,-348.63 338.49,-342.88 327.95,-341.83 329.6,-348.63" style=""/>
</g>
<!-- Bank.payout&#45;&gt;Bank.getBalance -->
<g id="edge27" class="edge" data-name="Bank.payout-&gt;Bank.getBalance">

<path fill="none" stroke="#1bc6a6" stroke-width="2" d="M161.92,-427.7C186.31,-434.93 218.77,-448 239.76,-470 269.78,-501.47 240.41,-535.66 275.76,-561 289.24,-570.67 504.25,-577.01 614.03,-579.63" style=""/>
<polygon fill="#1bc6a6" stroke="#1bc6a6" stroke-width="2" points="614.23,-583.13 624.31,-579.87 614.4,-576.14 614.23,-583.13" style=""/>
</g>
<!-- Bank.cashIn -->
<g id="node16" class="node" pointer-events="visible" data-name="Bank.cashIn">

<ellipse fill="#ffbdb9" stroke="brown" stroke-width="3" cx="127.88" cy="-497" rx="36.48" ry="18" style=""/>
<text text-anchor="middle" x="127.88" y="-492.8" font-family="Times,serif" font-size="14.00" style="">cashIn</text>
</g>
<!-- Bank.cashIn&#45;&gt;Bank._safeTransfer -->
<g id="edge31" class="edge" data-name="Bank.cashIn-&gt;Bank._safeTransfer">

<path fill="none" stroke="#1bc6a6" stroke-width="2" d="M153.57,-484.13C177.97,-474.87 215.12,-461.12 239.76,-438 264.69,-414.6 246.46,-387.64 275.76,-370 303.65,-353.21 504.57,-360.91 611.27,-369.8" style=""/>
<polygon fill="#1bc6a6" stroke="#1bc6a6" stroke-width="2" points="611.03,-373.3 621.3,-370.67 611.63,-366.32 611.03,-373.3" style=""/>
</g>
<!-- Bank.cashIn&#45;&gt;Bank._safeTransfer -->
<g id="edge32" class="edge" data-name="Bank.cashIn-&gt;Bank._safeTransfer">

<path fill="none" stroke="#1bc6a6" stroke-width="2" d="M164.03,-495.29C187.73,-489.01 218.43,-476.02 239.76,-456 264.69,-432.6 246.46,-405.64 275.76,-388 303.07,-371.56 496.31,-378.6 604.51,-380.69" style=""/>
<polygon fill="#1bc6a6" stroke="#1bc6a6" stroke-width="2" points="604.65,-384.2 614.71,-380.88 604.77,-377.2 604.65,-384.2" style=""/>
</g>
<!-- Bank.cashIn&#45;&gt;Bank._allocateHouseEdge -->
<g id="edge28" class="edge" data-name="Bank.cashIn-&gt;Bank._allocateHouseEdge">

<path fill="none" stroke="#1bc6a6" stroke-width="2" d="M160.96,-489.33C185.32,-482.04 218.19,-468.88 239.76,-447 267.98,-418.36 244.95,-389.84 275.76,-364 287.78,-353.92 302.44,-346.9 317.59,-342.04" style=""/>
<polygon fill="#1bc6a6" stroke="#1bc6a6" stroke-width="2" points="318.97,-345.29 327.6,-339.15 317.02,-338.56 318.97,-345.29" style=""/>
</g>
<!-- Bank.cashIn&#45;&gt;Bank._setBalanceReference -->
<g id="edge30" class="edge" data-name="Bank.cashIn-&gt;Bank._setBalanceReference">

<path fill="none" stroke="#1bc6a6" stroke-width="2" d="M164.45,-496.35C245.51,-494.87 446.57,-491.21 571.56,-488.93" style=""/>
<polygon fill="#1bc6a6" stroke="#1bc6a6" stroke-width="2" points="571.98,-492.42 581.91,-488.74 571.85,-485.42 571.98,-492.42" style=""/>
</g>
<!-- Bank.cashIn&#45;&gt;Bank._isGasToken -->
<g id="edge34" class="edge" data-name="Bank.cashIn-&gt;Bank._isGasToken">

<path fill="none" stroke="#1bc6a6" stroke-width="2" d="M142.3,-513.53C171.8,-549.34 242.33,-632.01 275.76,-646 378.46,-688.97 686.06,-674.57 775.29,-608 804.61,-586.13 783.95,-558.29 811.29,-534 816.87,-529.05 823.4,-524.99 830.26,-521.68" style=""/>
<polygon fill="#1bc6a6" stroke="#1bc6a6" stroke-width="2" points="831.97,-524.75 839.78,-517.59 829.21,-518.32 831.97,-524.75" style=""/>
</g>
<!-- Bank.cashIn&#45;&gt;Bank.getBalance -->
<g id="edge29" class="edge" data-name="Bank.cashIn-&gt;Bank.getBalance">

<path fill="none" stroke="#1bc6a6" stroke-width="2" d="M143.76,-513.28C167.29,-542.69 216.55,-602.55 275.76,-626 331.52,-648.09 486.8,-637.59 545.65,-626 574.78,-620.26 605.59,-608.03 630.08,-597.58" style=""/>
<polygon fill="#1bc6a6" stroke="#1bc6a6" stroke-width="2" points="631.68,-600.71 639.49,-593.54 628.92,-594.28 631.68,-600.71" style=""/>
</g>
<!-- Bank.cashIn&#45;&gt;Bank.getBalance -->
<g id="edge33" class="edge" data-name="Bank.cashIn-&gt;Bank.getBalance">

<path fill="none" stroke="#1bc6a6" stroke-width="2" d="M137.25,-514.43C157.11,-547.8 210.37,-618.1 275.76,-644 331.52,-666.09 486.8,-655.59 545.65,-644 583.2,-636.61 623.52,-618.42 649.55,-603.2" style=""/>
<polygon fill="#1bc6a6" stroke="#1bc6a6" stroke-width="2" points="651.41,-606.16 658.13,-597.96 647.77,-600.19 651.41,-606.16" style=""/>
</g>
<!-- Bank.getTokens -->
<g id="node17" class="node" pointer-events="visible" data-name="Bank.getTokens">

<ellipse fill="#ffbdb9" stroke="#ffbdb9" stroke-width="3" cx="678.47" cy="-312" rx="51.03" ry="18" style=""/>
<text text-anchor="middle" x="678.47" y="-307.8" font-family="Times,serif" font-size="14.00" style="">getTokens</text>
</g>
<!-- Bank.getTokens&#45;&gt;Bank._isGasToken -->
<g id="edge35" class="edge" data-name="Bank.getTokens-&gt;Bank._isGasToken">

<path fill="none" stroke="#1bc6a6" stroke-width="2" d="M719.36,-323.2C737.65,-329.64 758.86,-339.07 775.29,-352 820.83,-387.84 856.87,-446.39 875.34,-480.34" style=""/>
<polygon fill="#1bc6a6" stroke="#1bc6a6" stroke-width="2" points="872.29,-482.05 880.08,-489.22 878.46,-478.75 872.29,-482.05" style=""/>
</g>
<!-- Bank.IERC20Metadata -->
<g id="node30" class="node" pointer-events="visible" data-name="Bank.IERC20Metadata">

<ellipse fill="#edad56" stroke="#edad56" stroke-width="3" cx="889.91" cy="-312" rx="78.73" ry="18" style=""/>
<text text-anchor="middle" x="889.91" y="-307.8" font-family="Times,serif" font-size="14.00" style="">IERC20Metadata</text>
</g>
<!-- Bank.getTokens&#45;&gt;Bank.IERC20Metadata -->
<g id="edge36" class="edge" data-name="Bank.getTokens-&gt;Bank.IERC20Metadata">

<path fill="none" stroke="#1bc6a6" stroke-width="2" d="M729.9,-312C751.19,-312 776.62,-312 800.82,-312" style=""/>
<polygon fill="#1bc6a6" stroke="#1bc6a6" stroke-width="2" points="801.11,-315.5 811.11,-312 801.11,-308.5 801.11,-315.5" style=""/>
</g>
<!-- IERC20Metadata.decimals -->
<g id="node33" class="node" pointer-events="visible" data-name="IERC20Metadata.decimals">

<ellipse fill="#edad56" stroke="#edad56" stroke-width="3" cx="889.91" cy="-34" rx="45.22" ry="18" style=""/>
<text text-anchor="middle" x="889.91" y="-29.8" font-family="Times,serif" font-size="14.00" style="">decimals</text>
</g>
<!-- Bank.getTokens&#45;&gt;IERC20Metadata.decimals -->
<g id="edge37" class="edge" data-name="Bank.getTokens-&gt;IERC20Metadata.decimals">

<path fill="none" stroke="white" stroke-width="2" d="M728.14,-307.32C745.37,-303.22 763.42,-295.7 775.29,-282 840.5,-206.82 747.28,-137.19 811.29,-61 818.11,-52.89 827.5,-47.21 837.4,-43.24" style=""/>
<polygon fill="white" stroke="white" stroke-width="2" points="838.68,-46.5 846.99,-39.93 836.39,-39.88 838.68,-46.5" style=""/>
</g>
<!-- IERC20Metadata.name -->
<g id="node34" class="node" pointer-events="visible" data-name="IERC20Metadata.name">

<ellipse fill="#edad56" stroke="#edad56" stroke-width="3" cx="889.91" cy="-142" rx="31.9" ry="18" style=""/>
<text text-anchor="middle" x="889.91" y="-137.8" font-family="Times,serif" font-size="14.00" style="">name</text>
</g>
<!-- Bank.getTokens&#45;&gt;IERC20Metadata.name -->
<g id="edge38" class="edge" data-name="Bank.getTokens-&gt;IERC20Metadata.name">

<path fill="none" stroke="white" stroke-width="2" d="M726.99,-305.59C743.89,-301.28 762,-294.06 775.29,-282 805.68,-254.43 785.58,-228.97 811.29,-197 823.67,-181.62 841.41,-168.61 856.81,-159.11" style=""/>
<polygon fill="white" stroke="white" stroke-width="2" points="858.73,-162.04 865.54,-153.93 855.16,-156.02 858.73,-162.04" style=""/>
</g>
<!-- IERC20Metadata.symbol -->
<g id="node35" class="node" pointer-events="visible" data-name="IERC20Metadata.symbol">

<ellipse fill="#edad56" stroke="#edad56" stroke-width="3" cx="889.91" cy="-88" rx="39.45" ry="18" style=""/>
<text text-anchor="middle" x="889.91" y="-83.8" font-family="Times,serif" font-size="14.00" style="">symbol</text>
</g>
<!-- Bank.getTokens&#45;&gt;IERC20Metadata.symbol -->
<g id="edge39" class="edge" data-name="Bank.getTokens-&gt;IERC20Metadata.symbol">

<path fill="none" stroke="white" stroke-width="2" d="M727.77,-306.99C744.97,-302.85 763.07,-295.39 775.29,-282 826.48,-225.92 760.99,-171.87 811.29,-115 819.34,-105.9 830.63,-99.87 842.1,-95.87" style=""/>
<polygon fill="white" stroke="white" stroke-width="2" points="843.15,-99.2 851.72,-92.96 841.13,-92.5 843.15,-99.2" style=""/>
</g>
<!-- Bank.getMaxBetAmount -->
<g id="node18" class="node" pointer-events="visible" data-name="Bank.getMaxBetAmount">

<ellipse fill="#ffbdb9" stroke="#ffbdb9" stroke-width="3" cx="410.7" cy="-608" rx="85.7" ry="18" style=""/>
<text text-anchor="middle" x="410.7" y="-603.8" font-family="Times,serif" font-size="14.00" style="">getMaxBetAmount</text>
</g>
<!-- Bank.getMaxBetAmount&#45;&gt;Bank.getBalance -->
<g id="edge40" class="edge" data-name="Bank.getMaxBetAmount-&gt;Bank.getBalance">

<path fill="none" stroke="#1bc6a6" stroke-width="2" d="M488.22,-600.23C528.87,-596.1 578.15,-591.09 616.24,-587.22" style=""/>
<polygon fill="#1bc6a6" stroke="#1bc6a6" stroke-width="2" points="617.07,-590.65 626.67,-586.16 616.36,-583.69 617.07,-590.65" style=""/>
</g>
<!-- Bank.getTokenHouseEdgeSplit -->
<g id="node19" class="node" pointer-events="visible" data-name="Bank.getTokenHouseEdgeSplit">

<ellipse fill="#ffbdb9" stroke="#ffbdb9" stroke-width="3" cx="127.88" cy="-366" rx="110.04" ry="18" style=""/>
<text text-anchor="middle" x="127.88" y="-361.8" font-family="Times,serif" font-size="14.00" style="">getTokenHouseEdgeSplit</text>
</g>
<!-- Bank.isAllowedToken -->
<g id="node20" class="node" pointer-events="visible" data-name="Bank.isAllowedToken">

<ellipse fill="#ffbdb9" stroke="#ffbdb9" stroke-width="3" cx="127.88" cy="-312" rx="75.3" ry="18" style=""/>
<text text-anchor="middle" x="127.88" y="-307.8" font-family="Times,serif" font-size="14.00" style="">isAllowedToken</text>
</g>
<!-- Bank.getBalance&#45;&gt;Bank._isGasToken -->
<g id="edge41" class="edge" data-name="Bank.getBalance-&gt;Bank._isGasToken">

<path fill="none" stroke="#1bc6a6" stroke-width="2" d="M715.81,-567.96C742.27,-558.48 778.98,-545.38 811.29,-534 820.48,-530.76 830.29,-527.33 839.73,-524.04" style=""/>
<polygon fill="#1bc6a6" stroke="#1bc6a6" stroke-width="2" points="841.11,-527.27 849.4,-520.68 838.81,-520.66 841.11,-527.27" style=""/>
</g>
<!-- Bank.getBalance&#45;&gt;Bank.IERC20 -->
<g id="edge42" class="edge" data-name="Bank.getBalance-&gt;Bank.IERC20">

<path fill="none" stroke="#1bc6a6" stroke-width="2" d="M730.44,-576.13C763,-573.02 805.07,-569.01 837.68,-565.89" style=""/>
<polygon fill="#1bc6a6" stroke="#1bc6a6" stroke-width="2" points="838.29,-569.35 847.91,-564.92 837.62,-562.38 838.29,-569.35" style=""/>
</g>
<!-- key -->
<g id="node36" class="node" pointer-events="visible" data-name="key">

<polygon fill="#edad56" stroke="transparent" stroke-width="3" points="192.88,-1127 62.88,-1127 62.88,-1039 192.88,-1039 192.88,-1127" style=""/>
<text text-anchor="start" x="112.51" y="-1108.4" font-family="Times,serif" font-size="14.00" style="">Internal Call</text>
<text text-anchor="start" x="108.62" y="-1088.4" font-family="Times,serif" font-size="14.00" style="">External Call</text>
<text text-anchor="start" x="86.08" y="-1068.4" font-family="Times,serif" font-size="14.00" style="">Defined Contract</text>
<text text-anchor="start" x="72.48" y="-1048.4" font-family="Times,serif" font-size="14.00" style="">Undefined Contract</text>
</g>
<!-- key2 -->
<g id="node37" class="node" pointer-events="visible" data-name="key2">

<polygon fill="#edad56" stroke="transparent" stroke-width="3" points="437.7,-1127 383.7,-1127 383.7,-1039 437.7,-1039 437.7,-1127" style=""/>
<text text-anchor="start" x="398.46" y="-1108.4" font-family="Times,serif" font-size="14.00" style="">   </text>
<text text-anchor="start" x="398.46" y="-1088.4" font-family="Times,serif" font-size="14.00" style="">   </text>
<polygon fill="#445773" stroke="transparent" points="396.7,-1063 396.7,-1083 424.7,-1083 424.7,-1063 396.7,-1063" style=""/>
<text text-anchor="start" x="398.46" y="-1068.4" font-family="Times,serif" font-size="14.00" style="">   </text>
<polygon fill="none" stroke="#e8726d" points="398.7,-1045 398.7,-1061 422.7,-1061 422.7,-1045 398.7,-1045" style=""/>
</g>
<!-- key&#45;&gt;key2 -->
<g id="edge43" class="edge" data-name="key-&gt;key2">

<path fill="none" stroke="#1bc6a6" stroke-width="2" d="M185.88,-1113C275.67,-1113 300.62,-1113 385.6,-1113" style=""/>
<polygon fill="#1bc6a6" stroke="#1bc6a6" stroke-width="2" points="385.7,-1116.5 395.7,-1113 385.7,-1109.5 385.7,-1116.5" style=""/>
</g>
<!-- key&#45;&gt;key2 -->
<g id="edge44" class="edge" data-name="key-&gt;key2">

<path fill="none" stroke="white" stroke-width="2" d="M185.88,-1093C275.67,-1093 300.62,-1093 385.6,-1093" style=""/>
<polygon fill="white" stroke="white" stroke-width="2" points="385.7,-1096.5 395.7,-1093 385.7,-1089.5 385.7,-1096.5" style=""/>
</g>
</g>
</svg>