<?xml version="1.0" standalone="no"?>
<svg xmlns="http://www.w3.org/2000/svg" xmlns:xlink="http://www.w3.org/1999/xlink" width="1012pt" height="1303pt" viewBox="0.00 0.00 1011.90 1303.00">
<g id="graph0" class="graph" transform="translate(4,1299) scale(1)" data-name="G">

<polygon fill="#2e3e56" stroke="none" points="-4,4 -4,-1299 1007.9,-1299 1007.9,4 -4,4" style=""/>
<g id="clust1" class="cluster" data-name="clusterIGame">

<path fill="#445773" stroke="#445773" d="M37.68,-35C37.68,-35 254.53,-35 254.53,-35 260.53,-35 266.53,-41 266.53,-47 266.53,-47 266.53,-154 266.53,-154 266.53,-160 260.53,-166 254.53,-166 254.53,-166 37.68,-166 37.68,-166 31.68,-166 25.68,-160 25.68,-154 25.68,-154 25.68,-47 25.68,-47 25.68,-41 31.68,-35 37.68,-35" style=""/>
<text text-anchor="middle" x="146.11" y="-149.4" font-family="Times,serif" font-size="14.00" fill="#f0f0f0" style="">IGame  (iface)</text>
</g>
<g id="clust2" class="cluster" data-name="clusterBank">

<path fill="#445773" stroke="#445773" d="M20,-201C20,-201 983.9,-201 983.9,-201 989.9,-201 995.9,-207 995.9,-213 995.9,-213 995.9,-1138 995.9,-1138 995.9,-1144 989.9,-1150 983.9,-1150 983.9,-1150 20,-1150 20,-1150 14,-1150 8,-1144 8,-1138 8,-1138 8,-213 8,-213 8,-207 14,-201 20,-201" style=""/>
<text text-anchor="middle" x="501.95" y="-1133.4" font-family="Times,serif" font-size="14.00" fill="#f0f0f0" style="">Bank</text>
</g>
<g id="clust3" class="cluster" data-name="clusterIERC20Metadata">

<path fill="#3b4b63" stroke="#e8726d" stroke-dasharray="5,2" d="M864.93,-8C864.93,-8 954.65,-8 954.65,-8 960.65,-8 966.65,-14 966.65,-20 966.65,-20 966.65,-181 966.65,-181 966.65,-187 960.65,-193 954.65,-193 954.65,-193 864.93,-193 864.93,-193 858.93,-193 852.93,-187 852.93,-181 852.93,-181 852.93,-20 852.93,-20 852.93,-14 858.93,-8 864.93,-8" style=""/>
<text text-anchor="middle" x="909.79" y="-176.4" font-family="Times,serif" font-size="14.00" fill="#f0f0f0" style="">IERC20Metadata</text>
</g>
<g id="clust4" class="cluster" data-name="cluster_01">

<polygon fill="#2e3e56" stroke="black" points="73.11,-1158 73.11,-1287 470.9,-1287 470.9,-1158 73.11,-1158" style=""/>
<text text-anchor="middle" x="272" y="-1270.4" font-family="Times,serif" font-size="14.00" style="">Legend</text>
</g>
<!-- IGame.hasPendingBets -->
<g id="node1" class="node" pointer-events="visible" data-name="IGame.hasPendingBets">

<ellipse fill="#ffbdb9" stroke="#ffbdb9" stroke-width="3" cx="146.11" cy="-115" rx="72.96" ry="18" style=""/>
<text text-anchor="middle" x="146.11" y="-110.8" font-family="Times,serif" font-size="14.00" style="">hasPendingBets</text>
</g>
<!-- IGame.withdrawTokensVRFFees -->
<g id="node2" class="node" pointer-events="visible" data-name="IGame.withdrawTokensVRFFees">

<ellipse fill="#ffbdb9" stroke="#ffbdb9" stroke-width="3" cx="146.11" cy="-61" rx="112.35" ry="18" style=""/>
<text text-anchor="middle" x="146.11" y="-56.8" font-family="Times,serif" font-size="14.00" style="">withdrawTokensVRFFees</text>
</g>
<!-- Bank.onlyTokenOwner -->
<g id="node3" class="node" pointer-events="visible" data-name="Bank.onlyTokenOwner">

<polygon fill="#edad56" stroke="#1bc6a6" stroke-width="3" points="231.95,-1087.54 231.95,-1102.46 181.66,-1113 110.55,-1113 60.26,-1102.46 60.26,-1087.54 110.55,-1077 181.66,-1077 231.95,-1087.54" style=""/>
<polygon fill="none" stroke="#1bc6a6" stroke-width="3" points="235.96,-1084.3 235.96,-1105.7 182.08,-1117 110.13,-1117 56.26,-1105.7 56.26,-1084.3 110.13,-1073 182.08,-1073 235.96,-1084.3" style=""/>
<text text-anchor="middle" x="146.11" y="-1090.8" font-family="Times,serif" font-size="14.00" style="">onlyTokenOwner</text>
</g>
<!-- Bank._checkRole -->
<g id="node36" class="node" pointer-events="visible" data-name="Bank._checkRole">

<ellipse fill="#edad56" stroke="#edad56" stroke-width="3" cx="435.9" cy="-1045" rx="56.74" ry="18" style=""/>
<text text-anchor="middle" x="435.9" y="-1040.8" font-family="Times,serif" font-size="14.00" style="">_checkRole</text>
</g>
<!-- Bank.onlyTokenOwner&#45;&gt;Bank._checkRole -->
<g id="edge1" class="edge" data-name="Bank.onlyTokenOwner-&gt;Bank._checkRole">

<path fill="none" stroke="#1bc6a6" stroke-width="2" d="M223.85,-1081.67C271.58,-1073.37 332.03,-1062.87 375.98,-1055.24" style=""/>
<polygon fill="#1bc6a6" stroke="#1bc6a6" stroke-width="2" points="376.69,-1058.67 385.94,-1053.51 375.49,-1051.77 376.69,-1058.67" style=""/>
</g>
<!-- Bank.AccessDenied -->
<g id="node37" class="node" pointer-events="visible" data-name="Bank.AccessDenied">

<ellipse fill="#edad56" stroke="#edad56" stroke-width="3" cx="435.9" cy="-1099" rx="66.04" ry="18" style=""/>
<text text-anchor="middle" x="435.9" y="-1094.8" font-family="Times,serif" font-size="14.00" style="">AccessDenied</text>
</g>
<!-- Bank.onlyTokenOwner&#45;&gt;Bank.AccessDenied -->
<g id="edge2" class="edge" data-name="Bank.onlyTokenOwner-&gt;Bank.AccessDenied">

<path fill="none" stroke="#1bc6a6" stroke-width="2" d="M235.8,-1096.23C275.2,-1096.78 321.11,-1097.42 358.91,-1097.94" style=""/>
<polygon fill="#1bc6a6" stroke="#1bc6a6" stroke-width="2" points="359.3,-1101.45 369.34,-1098.09 359.39,-1094.45 359.3,-1101.45" style=""/>
</g>
<!-- Bank.&lt;Constructor&gt; -->
<g id="node4" class="node" pointer-events="visible" data-name="Bank.&lt;Constructor&gt;">

<ellipse fill="#ff9797" stroke="#ff9797" stroke-width="3" cx="146.11" cy="-1037" rx="67.55" ry="18" style=""/>
<text text-anchor="middle" x="146.11" y="-1032.8" font-family="Times,serif" font-size="14.00" style="">&lt;Constructor&gt;</text>
</g>
<!-- Bank.setTeamWallet -->
<g id="node32" class="node" pointer-events="visible" data-name="Bank.setTeamWallet">

<ellipse fill="#edad56" stroke="#edad56" stroke-width="3" cx="435.9" cy="-917" rx="69.47" ry="18" style=""/>
<text text-anchor="middle" x="435.9" y="-912.8" font-family="Times,serif" font-size="14.00" style="">setTeamWallet</text>
</g>
<!-- Bank.&lt;Constructor&gt;&#45;&gt;Bank.setTeamWallet -->
<g id="edge5" class="edge" data-name="Bank.&lt;Constructor&gt;-&gt;Bank.setTeamWallet">

<path fill="none" stroke="#1bc6a6" stroke-width="2" d="M213.02,-1034.19C234.82,-1030.55 258.11,-1023.45 276.21,-1010 303.04,-990.08 285.49,-964.06 312.21,-944 325.5,-934.02 341.75,-927.59 358.01,-923.48" style=""/>
<polygon fill="#1bc6a6" stroke="#1bc6a6" stroke-width="2" points="359.12,-926.82 368.11,-921.21 357.59,-919.99 359.12,-926.82" style=""/>
</g>
<!-- Bank.WrongAddress -->
<g id="node38" class="node" pointer-events="visible" data-name="Bank.WrongAddress">

<ellipse fill="#edad56" stroke="#edad56" stroke-width="3" cx="695.12" cy="-962" rx="69.5" ry="18" style=""/>
<text text-anchor="middle" x="695.12" y="-957.8" font-family="Times,serif" font-size="14.00" style="">WrongAddress</text>
</g>
<!-- Bank.&lt;Constructor&gt;&#45;&gt;Bank.WrongAddress -->
<g id="edge3" class="edge" data-name="Bank.&lt;Constructor&gt;-&gt;Bank.WrongAddress">

<path fill="none" stroke="#1bc6a6" stroke-width="2" d="M207.83,-1029.51C239,-1025.8 277.61,-1021.39 312.21,-1018 421.99,-1007.25 450.89,-1016.78 559.58,-998 586.59,-993.33 616.07,-985.74 640.53,-978.73" style=""/>
<polygon fill="#1bc6a6" stroke="#1bc6a6" stroke-width="2" points="641.71,-982.03 650.33,-975.87 639.75,-975.31 641.71,-982.03" style=""/>
</g>
<!-- Bank._setupRole -->
<g id="node39" class="node" pointer-events="visible" data-name="Bank._setupRole">

<ellipse fill="#edad56" stroke="#edad56" stroke-width="3" cx="435.9" cy="-971" rx="54.48" ry="18" style=""/>
<text text-anchor="middle" x="435.9" y="-966.8" font-family="Times,serif" font-size="14.00" style="">_setupRole</text>
</g>
<!-- Bank.&lt;Constructor&gt;&#45;&gt;Bank._setupRole -->
<g id="edge4" class="edge" data-name="Bank.&lt;Constructor&gt;-&gt;Bank._setupRole">

<path fill="none" stroke="#1bc6a6" stroke-width="2" d="M200.59,-1026.25C223.86,-1021.46 251.43,-1015.64 276.21,-1010 311.63,-1001.95 351.31,-992.19 382.13,-984.46" style=""/>
<polygon fill="#1bc6a6" stroke="#1bc6a6" stroke-width="2" points="383.38,-987.75 392.22,-981.92 381.67,-980.96 383.38,-987.75" style=""/>
</g>
<!-- Bank._safeTransfer -->
<g id="node5" class="node" pointer-events="visible" data-name="Bank._safeTransfer">

<ellipse fill="#edad56" stroke="#edad56" stroke-width="3" cx="695.12" cy="-376" rx="64.23" ry="18" style=""/>
<text text-anchor="middle" x="695.12" y="-371.8" font-family="Times,serif" font-size="14.00" style="">_safeTransfer</text>
</g>
<!-- Bank._isGasToken -->
<g id="node6" class="node" pointer-events="visible" data-name="Bank._isGasToken">

<ellipse fill="#edad56" stroke="#edad56" stroke-width="3" cx="909.29" cy="-480" rx="61.99" ry="18" style=""/>
<text text-anchor="middle" x="909.29" y="-475.8" font-family="Times,serif" font-size="14.00" style="">_isGasToken</text>
</g>
<!-- Bank._safeTransfer&#45;&gt;Bank._isGasToken -->
<g id="edge6" class="edge" data-name="Bank._safeTransfer-&gt;Bank._isGasToken">

<path fill="none" stroke="#1bc6a6" stroke-width="2" d="M739.09,-389.13C756.65,-395.04 776.96,-402.59 794.67,-411 823.19,-424.55 853.69,-443.33 875.89,-457.88" style=""/>
<polygon fill="#1bc6a6" stroke="#1bc6a6" stroke-width="2" points="874,-460.82 884.27,-463.42 877.87,-454.98 874,-460.82" style=""/>
</g>
<!-- Bank.payable -->
<g id="node40" class="node" pointer-events="visible" data-name="Bank.payable">

<ellipse fill="#edad56" stroke="#edad56" stroke-width="3" cx="909.29" cy="-376" rx="41.13" ry="18" style=""/>
<text text-anchor="middle" x="909.29" y="-371.8" font-family="Times,serif" font-size="14.00" style="">payable</text>
</g>
<!-- Bank._safeTransfer&#45;&gt;Bank.payable -->
<g id="edge7" class="edge" data-name="Bank._safeTransfer-&gt;Bank.payable">

<path fill="none" stroke="#1bc6a6" stroke-width="2" d="M759.49,-376C790.95,-376 828.42,-376 857.89,-376" style=""/>
<polygon fill="#1bc6a6" stroke="#1bc6a6" stroke-width="2" points="857.96,-379.5 867.96,-376 857.96,-372.5 857.96,-379.5" style=""/>
</g>
<!-- Bank.IERC20 -->
<g id="node41" class="node" pointer-events="visible" data-name="Bank.IERC20">

<ellipse fill="#edad56" stroke="#edad56" stroke-width="3" cx="909.29" cy="-536" rx="42.88" ry="18" style=""/>
<text text-anchor="middle" x="909.29" y="-531.8" font-family="Times,serif" font-size="14.00" style="">IERC20</text>
</g>
<!-- Bank._safeTransfer&#45;&gt;Bank.IERC20 -->
<g id="edge8" class="edge" data-name="Bank._safeTransfer-&gt;Bank.IERC20">

<path fill="none" stroke="#1bc6a6" stroke-width="2" d="M749.18,-385.69C765.45,-390.89 782.3,-398.85 794.67,-411 827.17,-442.94 798.43,-474.8 830.67,-507 838.86,-515.18 849.56,-521.08 860.39,-525.33" style=""/>
<polygon fill="#1bc6a6" stroke="#1bc6a6" stroke-width="2" points="859.29,-528.65 869.89,-528.65 861.61,-522.04 859.29,-528.65" style=""/>
</g>
<!-- Bank.deposit -->
<g id="node7" class="node" pointer-events="visible" data-name="Bank.deposit">

<ellipse fill="#ffbdb9" stroke="brown" stroke-width="3" cx="695.12" cy="-843" rx="38.86" ry="18" style=""/>
<text text-anchor="middle" x="695.12" y="-838.8" font-family="Times,serif" font-size="14.00" style="">deposit</text>
</g>
<!-- Bank.deposit&#45;&gt;Bank._isGasToken -->
<g id="edge9" class="edge" data-name="Bank.deposit-&gt;Bank._isGasToken">

<path fill="none" stroke="#1bc6a6" stroke-width="2" d="M734.3,-842.41C755.23,-839.97 779.87,-833.22 794.67,-816 884.22,-711.82 745.9,-617.11 830.67,-509 835.37,-503.01 841.44,-498.25 848.12,-494.48" style=""/>
<polygon fill="#1bc6a6" stroke="#1bc6a6" stroke-width="2" points="850.06,-497.43 857.54,-489.92 847.01,-491.13 850.06,-497.43" style=""/>
</g>
<!-- Bank.deposit&#45;&gt;Bank.IERC20 -->
<g id="edge10" class="edge" data-name="Bank.deposit-&gt;Bank.IERC20">

<path fill="none" stroke="#1bc6a6" stroke-width="2" d="M734.11,-840.59C754.21,-837.51 778.09,-830.73 794.67,-816 871.31,-747.92 897.15,-620.63 905.08,-564.19" style=""/>
<polygon fill="#1bc6a6" stroke="#1bc6a6" stroke-width="2" points="908.57,-564.57 906.41,-554.2 901.63,-563.65 908.57,-564.57" style=""/>
</g>
<!-- Bank.withdraw -->
<g id="node8" class="node" pointer-events="visible" data-name="Bank.withdraw">

<ellipse fill="#ff9797" stroke="#ff9797" stroke-width="3" cx="435.9" cy="-735" rx="47.52" ry="18" style=""/>
<text text-anchor="middle" x="435.9" y="-730.8" font-family="Times,serif" font-size="14.00" style="">withdraw</text>
</g>
<!-- Bank.withdraw&#45;&gt;Bank._safeTransfer -->
<g id="edge16" class="edge" data-name="Bank.withdraw-&gt;Bank._safeTransfer">

<path fill="none" stroke="#1bc6a6" stroke-width="2" d="M474.8,-724.46C502.86,-714.59 539.56,-696.94 559.58,-668 625.18,-573.14 522.66,-500.37 595.58,-411 604.13,-400.52 616.05,-393.17 628.65,-388.03" style=""/>
<polygon fill="#1bc6a6" stroke="#1bc6a6" stroke-width="2" points="630.17,-391.2 638.38,-384.5 627.79,-384.62 630.17,-391.2" style=""/>
</g>
<!-- Bank.getBalance -->
<g id="node35" class="node" pointer-events="visible" data-name="Bank.getBalance">

<ellipse fill="#edad56" stroke="#edad56" stroke-width="3" cx="695.12" cy="-536" rx="53.86" ry="18" style=""/>
<text text-anchor="middle" x="695.12" y="-531.8" font-family="Times,serif" font-size="14.00" style="">getBalance</text>
</g>
<!-- Bank.withdraw&#45;&gt;Bank.getBalance -->
<g id="edge11" class="edge" data-name="Bank.withdraw-&gt;Bank.getBalance">

<path fill="none" stroke="#1bc6a6" stroke-width="2" d="M477.48,-726.12C503.76,-718.54 537.15,-705.23 559.58,-683 588.13,-654.69 569.61,-630.7 595.58,-600 611.27,-581.44 633.7,-566.3 653.2,-555.41" style=""/>
<polygon fill="#1bc6a6" stroke="#1bc6a6" stroke-width="2" points="655.06,-558.38 662.2,-550.56 651.74,-552.22 655.06,-558.38" style=""/>
</g>
<!-- Bank.TokenNotPaused -->
<g id="node42" class="node" pointer-events="visible" data-name="Bank.TokenNotPaused">

<ellipse fill="#edad56" stroke="#edad56" stroke-width="3" cx="695.12" cy="-735" rx="77.6" ry="18" style=""/>
<text text-anchor="middle" x="695.12" y="-730.8" font-family="Times,serif" font-size="14.00" style="">TokenNotPaused</text>
</g>
<!-- Bank.withdraw&#45;&gt;Bank.TokenNotPaused -->
<g id="edge12" class="edge" data-name="Bank.withdraw-&gt;Bank.TokenNotPaused">

<path fill="none" stroke="#1bc6a6" stroke-width="2" d="M483.48,-735C517.92,-735 565.83,-735 607.26,-735" style=""/>
<polygon fill="#1bc6a6" stroke="#1bc6a6" stroke-width="2" points="607.36,-738.5 617.36,-735 607.36,-731.5 607.36,-738.5" style=""/>
</g>
<!-- Bank.getRoleMemberCount -->
<g id="node43" class="node" pointer-events="visible" data-name="Bank.getRoleMemberCount">

<ellipse fill="#edad56" stroke="#edad56" stroke-width="3" cx="695.12" cy="-627" rx="97.29" ry="18" style=""/>
<text text-anchor="middle" x="695.12" y="-622.8" font-family="Times,serif" font-size="14.00" style="">getRoleMemberCount</text>
</g>
<!-- Bank.withdraw&#45;&gt;Bank.getRoleMemberCount -->
<g id="edge13" class="edge" data-name="Bank.withdraw-&gt;Bank.getRoleMemberCount">

<path fill="none" stroke="#1bc6a6" stroke-width="2" d="M482.21,-730.62C506.79,-726.5 536.72,-718.51 559.58,-703 581.94,-687.83 573.31,-669.31 595.58,-654 601.66,-649.82 608.36,-646.29 615.33,-643.3" style=""/>
<polygon fill="#1bc6a6" stroke="#1bc6a6" stroke-width="2" points="616.91,-646.44 624.96,-639.55 614.37,-639.91 616.91,-646.44" style=""/>
</g>
<!-- Bank.getRoleMember -->
<g id="node44" class="node" pointer-events="visible" data-name="Bank.getRoleMember">

<ellipse fill="#edad56" stroke="#edad56" stroke-width="3" cx="695.12" cy="-789" rx="73.58" ry="18" style=""/>
<text text-anchor="middle" x="695.12" y="-784.8" font-family="Times,serif" font-size="14.00" style="">getRoleMember</text>
</g>
<!-- Bank.withdraw&#45;&gt;Bank.getRoleMember -->
<g id="edge14" class="edge" data-name="Bank.withdraw-&gt;Bank.getRoleMember">

<path fill="none" stroke="#1bc6a6" stroke-width="2" d="M477.94,-743.62C518.46,-752.12 581.07,-765.27 628.5,-775.22" style=""/>
<polygon fill="#1bc6a6" stroke="#1bc6a6" stroke-width="2" points="627.87,-778.67 638.37,-777.3 629.31,-771.82 627.87,-778.67" style=""/>
</g>
<!-- Bank.TokenHasPendingBets -->
<g id="node45" class="node" pointer-events="visible" data-name="Bank.TokenHasPendingBets">

<ellipse fill="#edad56" stroke="#edad56" stroke-width="3" cx="695.12" cy="-681" rx="99.6" ry="18" style=""/>
<text text-anchor="middle" x="695.12" y="-676.8" font-family="Times,serif" font-size="14.00" style="">TokenHasPendingBets</text>
</g>
<!-- Bank.withdraw&#45;&gt;Bank.TokenHasPendingBets -->
<g id="edge15" class="edge" data-name="Bank.withdraw-&gt;Bank.TokenHasPendingBets">

<path fill="none" stroke="#1bc6a6" stroke-width="2" d="M477.94,-726.38C515.86,-718.42 573.14,-706.4 619.21,-696.73" style=""/>
<polygon fill="#1bc6a6" stroke="#1bc6a6" stroke-width="2" points="620.09,-700.12 629.15,-694.64 618.65,-693.27 620.09,-700.12" style=""/>
</g>
<!-- Bank.setBalanceRisk -->
<g id="node9" class="node" pointer-events="visible" data-name="Bank.setBalanceRisk">

<ellipse fill="#ffbdb9" stroke="#ffbdb9" stroke-width="3" cx="146.11" cy="-983" rx="70.64" ry="18" style=""/>
<text text-anchor="middle" x="146.11" y="-978.8" font-family="Times,serif" font-size="14.00" style="">setBalanceRisk</text>
</g>
<!-- Bank.addToken -->
<g id="node10" class="node" pointer-events="visible" data-name="Bank.addToken">

<ellipse fill="#ffbdb9" stroke="#ffbdb9" stroke-width="3" cx="146.11" cy="-929" rx="49.8" ry="18" style=""/>
<text text-anchor="middle" x="146.11" y="-924.8" font-family="Times,serif" font-size="14.00" style="">addToken</text>
</g>
<!-- Bank.TokenExists -->
<g id="node46" class="node" pointer-events="visible" data-name="Bank.TokenExists">

<ellipse fill="#edad56" stroke="#edad56" stroke-width="3" cx="435.9" cy="-863" rx="59.13" ry="18" style=""/>
<text text-anchor="middle" x="435.9" y="-858.8" font-family="Times,serif" font-size="14.00" style="">TokenExists</text>
</g>
<!-- Bank.addToken&#45;&gt;Bank.TokenExists -->
<g id="edge17" class="edge" data-name="Bank.addToken-&gt;Bank.TokenExists">

<path fill="none" stroke="#1bc6a6" stroke-width="2" d="M191.03,-921.12C216.15,-916.29 248.14,-909.59 276.21,-902 292.5,-897.6 295.96,-894.49 312.21,-890 332.72,-884.34 355.4,-879.08 375.63,-874.73" style=""/>
<polygon fill="#1bc6a6" stroke="#1bc6a6" stroke-width="2" points="376.6,-878.1 385.65,-872.6 375.14,-871.25 376.6,-878.1" style=""/>
</g>
<!-- Bank.setAllowedToken -->
<g id="node11" class="node" pointer-events="visible" data-name="Bank.setAllowedToken">

<ellipse fill="#ffbdb9" stroke="#ffbdb9" stroke-width="3" cx="146.11" cy="-875" rx="79.88" ry="18" style=""/>
<text text-anchor="middle" x="146.11" y="-870.8" font-family="Times,serif" font-size="14.00" style="">setAllowedToken</text>
</g>
<!-- Bank.setPausedToken -->
<g id="node12" class="node" pointer-events="visible" data-name="Bank.setPausedToken">

<ellipse fill="#ffbdb9" stroke="#ffbdb9" stroke-width="3" cx="146.11" cy="-821" rx="73.59" ry="18" style=""/>
<text text-anchor="middle" x="146.11" y="-816.8" font-family="Times,serif" font-size="14.00" style="">setPausedToken</text>
</g>
<!-- Bank.setMinPartnerTransferAmount -->
<g id="node13" class="node" pointer-events="visible" data-name="Bank.setMinPartnerTransferAmount">

<ellipse fill="#ffbdb9" stroke="#ffbdb9" stroke-width="3" cx="146.11" cy="-767" rx="130.21" ry="18" style=""/>
<text text-anchor="middle" x="146.11" y="-762.8" font-family="Times,serif" font-size="14.00" style="">setMinPartnerTransferAmount</text>
</g>
<!-- Bank.setTokenPartner -->
<g id="node14" class="node" pointer-events="visible" data-name="Bank.setTokenPartner">

<ellipse fill="#ffbdb9" stroke="#ffbdb9" stroke-width="3" cx="146.11" cy="-713" rx="74.14" ry="18" style=""/>
<text text-anchor="middle" x="146.11" y="-708.8" font-family="Times,serif" font-size="14.00" style="">setTokenPartner</text>
</g>
<!-- Bank.setTokenPartner&#45;&gt;Bank.withdraw -->
<g id="edge21" class="edge" data-name="Bank.setTokenPartner-&gt;Bank.withdraw">

<path fill="none" stroke="#1bc6a6" stroke-width="2" d="M217.14,-718.35C266.79,-722.15 332.54,-727.18 378.76,-730.71" style=""/>
<polygon fill="#1bc6a6" stroke="#1bc6a6" stroke-width="2" points="378.65,-734.21 388.89,-731.48 379.19,-727.23 378.65,-734.21" style=""/>
</g>
<!-- Bank.withdrawPartnerAmount -->
<g id="node34" class="node" pointer-events="visible" data-name="Bank.withdrawPartnerAmount">

<ellipse fill="#edad56" stroke="#edad56" stroke-width="3" cx="435.9" cy="-263" rx="107.1" ry="18" style=""/>
<text text-anchor="middle" x="435.9" y="-258.8" font-family="Times,serif" font-size="14.00" style="">withdrawPartnerAmount</text>
</g>
<!-- Bank.setTokenPartner&#45;&gt;Bank.withdrawPartnerAmount -->
<g id="edge20" class="edge" data-name="Bank.setTokenPartner-&gt;Bank.withdrawPartnerAmount">

<path fill="none" stroke="#1bc6a6" stroke-width="2" d="M220.59,-713.38C241.36,-709.73 262.13,-701.82 276.21,-686 334.99,-620.02 253.79,-356.29 312.21,-290 317.49,-284.02 323.76,-279.19 330.63,-275.32" style=""/>
<polygon fill="#1bc6a6" stroke="#1bc6a6" stroke-width="2" points="332.19,-278.45 339.63,-270.9 329.11,-272.17 332.19,-278.45" style=""/>
</g>
<!-- Bank.setTokenPartner&#45;&gt;Bank.getBalance -->
<g id="edge22" class="edge" data-name="Bank.setTokenPartner-&gt;Bank.getBalance">

<path fill="none" stroke="#1bc6a6" stroke-width="2" d="M202.65,-701.2C234.56,-694.85 275.48,-687.43 312.21,-683 339.55,-679.7 536.43,-682.91 559.58,-668 588.32,-649.48 572.5,-625.23 595.58,-600 612.1,-581.94 634.78,-566.75 654.22,-555.7" style=""/>
<polygon fill="#1bc6a6" stroke="#1bc6a6" stroke-width="2" points="656.11,-558.66 663.18,-550.77 652.73,-552.53 656.11,-558.66" style=""/>
</g>
<!-- Bank.setTokenPartner&#45;&gt;Bank.getRoleMemberCount -->
<g id="edge18" class="edge" data-name="Bank.setTokenPartner-&gt;Bank.getRoleMemberCount">

<path fill="none" stroke="#1bc6a6" stroke-width="2" d="M219.79,-710.07C329.75,-705.28 528.89,-695.09 559.58,-683 578.69,-675.47 577.28,-663.36 595.58,-654 603.38,-650.01 611.84,-646.55 620.42,-643.57" style=""/>
<polygon fill="#1bc6a6" stroke="#1bc6a6" stroke-width="2" points="621.7,-646.84 630.12,-640.41 619.52,-640.18 621.7,-646.84" style=""/>
</g>
<!-- Bank.setTokenPartner&#45;&gt;Bank.getRoleMember -->
<g id="edge19" class="edge" data-name="Bank.setTokenPartner-&gt;Bank.getRoleMember">

<path fill="none" stroke="#1bc6a6" stroke-width="2" d="M211.09,-721.9C232.27,-726.02 255.67,-731.86 276.21,-740 293.65,-746.91 294.35,-756.29 312.21,-762 326.28,-766.5 504.96,-777.77 612.86,-784.24" style=""/>
<polygon fill="#1bc6a6" stroke="#1bc6a6" stroke-width="2" points="612.88,-787.74 623.07,-784.85 613.3,-780.76 612.88,-787.74" style=""/>
</g>
<!-- Bank.setHouseEdgeSplit -->
<g id="node15" class="node" pointer-events="visible" data-name="Bank.setHouseEdgeSplit">

<ellipse fill="#ffbdb9" stroke="#ffbdb9" stroke-width="3" cx="146.11" cy="-659" rx="84.56" ry="18" style=""/>
<text text-anchor="middle" x="146.11" y="-654.8" font-family="Times,serif" font-size="14.00" style="">setHouseEdgeSplit</text>
</g>
<!-- Bank.WrongHouseEdgeSplit -->
<g id="node47" class="node" pointer-events="visible" data-name="Bank.WrongHouseEdgeSplit">

<ellipse fill="#edad56" stroke="#edad56" stroke-width="3" cx="435.9" cy="-587" rx="100.74" ry="18" style=""/>
<text text-anchor="middle" x="435.9" y="-582.8" font-family="Times,serif" font-size="14.00" style="">WrongHouseEdgeSplit</text>
</g>
<!-- Bank.setHouseEdgeSplit&#45;&gt;Bank.WrongHouseEdgeSplit -->
<g id="edge23" class="edge" data-name="Bank.setHouseEdgeSplit-&gt;Bank.WrongHouseEdgeSplit">

<path fill="none" stroke="#1bc6a6" stroke-width="2" d="M214.34,-648.35C234.53,-644.24 256.53,-638.85 276.21,-632 293.11,-626.12 295.35,-619.97 312.21,-614 325.37,-609.35 339.61,-605.33 353.57,-601.93" style=""/>
<polygon fill="#1bc6a6" stroke="#1bc6a6" stroke-width="2" points="354.73,-605.25 363.67,-599.56 353.13,-598.44 354.73,-605.25" style=""/>
</g>
<!-- Bank.setTokenMinBetAmount -->
<g id="node16" class="node" pointer-events="visible" data-name="Bank.setTokenMinBetAmount">

<ellipse fill="#ffbdb9" stroke="#ffbdb9" stroke-width="3" cx="146.11" cy="-605" rx="107.69" ry="18" style=""/>
<text text-anchor="middle" x="146.11" y="-600.8" font-family="Times,serif" font-size="14.00" style="">setTokenMinBetAmount</text>
</g>
<!-- Bank.setTokenVRFSubId -->
<g id="node17" class="node" pointer-events="visible" data-name="Bank.setTokenVRFSubId">

<ellipse fill="#ffbdb9" stroke="#ffbdb9" stroke-width="3" cx="146.11" cy="-551" rx="88.08" ry="18" style=""/>
<text text-anchor="middle" x="146.11" y="-546.8" font-family="Times,serif" font-size="14.00" style="">setTokenVRFSubId</text>
</g>
<!-- Bank.harvestDividends -->
<g id="node18" class="node" pointer-events="visible" data-name="Bank.harvestDividends">

<ellipse fill="#ffbdb9" stroke="#ffbdb9" stroke-width="3" cx="435.9" cy="-317" rx="78.74" ry="18" style=""/>
<text text-anchor="middle" x="435.9" y="-312.8" font-family="Times,serif" font-size="14.00" style="">harvestDividends</text>
</g>
<!-- Bank.harvestDividends&#45;&gt;Bank._safeTransfer -->
<g id="edge24" class="edge" data-name="Bank.harvestDividends-&gt;Bank._safeTransfer">

<path fill="none" stroke="#1bc6a6" stroke-width="2" d="M493.74,-329.3C514.48,-333.84 538.1,-339.08 559.58,-344 584.66,-349.74 612.33,-356.29 636.02,-361.95" style=""/>
<polygon fill="#1bc6a6" stroke="#1bc6a6" stroke-width="2" points="635.37,-365.4 645.91,-364.32 637,-358.59 635.37,-365.4" style=""/>
</g>
<!-- Bank.getDividends -->
<g id="node19" class="node" pointer-events="visible" data-name="Bank.getDividends">

<ellipse fill="#ffbdb9" stroke="#ffbdb9" stroke-width="3" cx="146.11" cy="-497" rx="62.56" ry="18" style=""/>
<text text-anchor="middle" x="146.11" y="-492.8" font-family="Times,serif" font-size="14.00" style="">getDividends</text>
</g>
<!-- Bank._allocateHouseEdge -->
<g id="node20" class="node" pointer-events="visible" data-name="Bank._allocateHouseEdge">

<ellipse fill="#edad56" stroke="#edad56" stroke-width="3" cx="695.12" cy="-438" rx="90.31" ry="18" style=""/>
<text text-anchor="middle" x="695.12" y="-433.8" font-family="Times,serif" font-size="14.00" style="">_allocateHouseEdge</text>
</g>
<!-- Bank.accountFees -->
<g id="node21" class="node" pointer-events="visible" data-name="Bank.accountFees">

<ellipse fill="#ffbdb9" stroke="brown" stroke-width="3" cx="435.9" cy="-479" rx="58.53" ry="18" style=""/>
<text text-anchor="middle" x="435.9" y="-474.8" font-family="Times,serif" font-size="14.00" style="">accountFees</text>
</g>
<!-- Bank.accountFees&#45;&gt;Bank._isGasToken -->
<g id="edge27" class="edge" data-name="Bank.accountFees-&gt;Bank._isGasToken">

<path fill="none" stroke="#1bc6a6" stroke-width="2" d="M494.7,-479.12C580.95,-479.31 743.2,-479.65 836.79,-479.85" style=""/>
<polygon fill="#1bc6a6" stroke="#1bc6a6" stroke-width="2" points="837.02,-483.35 847.02,-479.87 837.03,-476.35 837.02,-483.35" style=""/>
</g>
<!-- Bank.accountFees&#45;&gt;Bank._allocateHouseEdge -->
<g id="edge25" class="edge" data-name="Bank.accountFees-&gt;Bank._allocateHouseEdge">

<path fill="none" stroke="#1bc6a6" stroke-width="2" d="M488.33,-470.8C524.22,-465.08 572.84,-457.33 613.81,-450.8" style=""/>
<polygon fill="#1bc6a6" stroke="#1bc6a6" stroke-width="2" points="614.45,-454.24 623.78,-449.21 613.35,-447.33 614.45,-454.24" style=""/>
</g>
<!-- Bank.accountFees&#45;&gt;Bank.getBalance -->
<g id="edge26" class="edge" data-name="Bank.accountFees-&gt;Bank.getBalance">

<path fill="none" stroke="#1bc6a6" stroke-width="2" d="M484.09,-489.36C506.9,-494.37 534.66,-500.48 559.58,-506 586.07,-511.87 615.49,-518.42 640.04,-523.91" style=""/>
<polygon fill="#1bc6a6" stroke="#1bc6a6" stroke-width="2" points="639.37,-527.34 649.89,-526.11 640.9,-520.51 639.37,-527.34" style=""/>
</g>
<!-- Bank.payout -->
<g id="node22" class="node" pointer-events="visible" data-name="Bank.payout">

<ellipse fill="#ffbdb9" stroke="brown" stroke-width="3" cx="435.9" cy="-425" rx="37.14" ry="18" style=""/>
<text text-anchor="middle" x="435.9" y="-420.8" font-family="Times,serif" font-size="14.00" style="">payout</text>
</g>
<!-- Bank.payout&#45;&gt;Bank._safeTransfer -->
<g id="edge29" class="edge" data-name="Bank.payout-&gt;Bank._safeTransfer">

<path fill="none" stroke="#1bc6a6" stroke-width="2" d="M470.79,-418.54C511.59,-410.77 580.92,-397.56 631.54,-387.92" style=""/>
<polygon fill="#1bc6a6" stroke="#1bc6a6" stroke-width="2" points="632.23,-391.35 641.4,-386.04 630.92,-384.48 632.23,-391.35" style=""/>
</g>
<!-- Bank.payout&#45;&gt;Bank._allocateHouseEdge -->
<g id="edge28" class="edge" data-name="Bank.payout-&gt;Bank._allocateHouseEdge">

<path fill="none" stroke="#1bc6a6" stroke-width="2" d="M473.2,-426.84C505.39,-428.46 553.87,-430.91 597.22,-433.1" style=""/>
<polygon fill="#1bc6a6" stroke="#1bc6a6" stroke-width="2" points="597.09,-436.6 607.25,-433.61 597.44,-429.61 597.09,-436.6" style=""/>
</g>
<!-- Bank.payout&#45;&gt;Bank.getBalance -->
<g id="edge30" class="edge" data-name="Bank.payout-&gt;Bank.getBalance">

<path fill="none" stroke="#1bc6a6" stroke-width="2" d="M472.22,-429.5C497.27,-433.47 531.31,-440.47 559.58,-452 598.29,-467.79 638.41,-494.4 664.65,-513.44" style=""/>
<polygon fill="#1bc6a6" stroke="#1bc6a6" stroke-width="2" points="662.87,-516.47 673,-519.58 667.02,-510.84 662.87,-516.47" style=""/>
</g>
<!-- Bank.cashIn -->
<g id="node23" class="node" pointer-events="visible" data-name="Bank.cashIn">

<ellipse fill="#ffbdb9" stroke="brown" stroke-width="3" cx="435.9" cy="-533" rx="36.48" ry="18" style=""/>
<text text-anchor="middle" x="435.9" y="-528.8" font-family="Times,serif" font-size="14.00" style="">cashIn</text>
</g>
<!-- Bank.cashIn&#45;&gt;Bank._isGasToken -->
<g id="edge32" class="edge" data-name="Bank.cashIn-&gt;Bank._isGasToken">

<path fill="none" stroke="#1bc6a6" stroke-width="2" d="M470.56,-527.33C502.63,-522.07 552.29,-514.28 595.58,-509 679.01,-498.83 775.37,-490.39 838.82,-485.29" style=""/>
<polygon fill="#1bc6a6" stroke="#1bc6a6" stroke-width="2" points="839.41,-488.75 849.1,-484.47 838.85,-481.77 839.41,-488.75" style=""/>
</g>
<!-- Bank.cashIn&#45;&gt;Bank.getBalance -->
<g id="edge31" class="edge" data-name="Bank.cashIn-&gt;Bank.getBalance">

<path fill="none" stroke="#1bc6a6" stroke-width="2" d="M472.39,-533.41C513.26,-533.89 581.18,-534.68 631.1,-535.26" style=""/>
<polygon fill="#1bc6a6" stroke="#1bc6a6" stroke-width="2" points="631.1,-538.77 641.15,-535.38 631.19,-531.77 631.1,-538.77" style=""/>
</g>
<!-- Bank.performUpkeep -->
<g id="node24" class="node" pointer-events="visible" data-name="Bank.performUpkeep">

<ellipse fill="#ffbdb9" stroke="#ffbdb9" stroke-width="3" cx="146.11" cy="-443" rx="72.34" ry="18" style=""/>
<text text-anchor="middle" x="146.11" y="-438.8" font-family="Times,serif" font-size="14.00" style="">performUpkeep</text>
</g>
<!-- Bank.performUpkeep&#45;&gt;Bank.withdrawPartnerAmount -->
<g id="edge33" class="edge" data-name="Bank.performUpkeep-&gt;Bank.withdrawPartnerAmount">

<path fill="none" stroke="#1bc6a6" stroke-width="2" d="M218.18,-441.8C239.09,-438.12 260.54,-430.58 276.21,-416 318.86,-376.33 269.78,-329.89 312.21,-290 318.38,-284.2 325.5,-279.54 333.14,-275.81" style=""/>
<polygon fill="#1bc6a6" stroke="#1bc6a6" stroke-width="2" points="334.53,-279.02 342.31,-271.84 331.75,-272.59 334.53,-279.02" style=""/>
</g>
<!-- Bank.getTokens -->
<g id="node25" class="node" pointer-events="visible" data-name="Bank.getTokens">

<ellipse fill="#ffbdb9" stroke="#ffbdb9" stroke-width="3" cx="695.12" cy="-227" rx="51.03" ry="18" style=""/>
<text text-anchor="middle" x="695.12" y="-222.8" font-family="Times,serif" font-size="14.00" style="">getTokens</text>
</g>
<!-- Bank.getTokens&#45;&gt;Bank._isGasToken -->
<g id="edge34" class="edge" data-name="Bank.getTokens-&gt;Bank._isGasToken">

<path fill="none" stroke="#1bc6a6" stroke-width="2" d="M711,-244.38C730.76,-267.69 766.46,-310.6 794.67,-349 811.75,-372.24 812.34,-380.73 830.67,-403 846.18,-421.84 865.69,-441.18 881.27,-455.77" style=""/>
<polygon fill="#1bc6a6" stroke="#1bc6a6" stroke-width="2" points="879.3,-458.71 889.02,-462.93 884.05,-453.57 879.3,-458.71" style=""/>
</g>
<!-- Bank.IERC20Metadata -->
<g id="node48" class="node" pointer-events="visible" data-name="Bank.IERC20Metadata">

<ellipse fill="#edad56" stroke="#edad56" stroke-width="3" cx="909.29" cy="-227" rx="78.73" ry="18" style=""/>
<text text-anchor="middle" x="909.29" y="-222.8" font-family="Times,serif" font-size="14.00" style="">IERC20Metadata</text>
</g>
<!-- Bank.getTokens&#45;&gt;Bank.IERC20Metadata -->
<g id="edge35" class="edge" data-name="Bank.getTokens-&gt;Bank.IERC20Metadata">

<path fill="none" stroke="#1bc6a6" stroke-width="2" d="M746.4,-227C768.48,-227 795.07,-227 820.26,-227" style=""/>
<polygon fill="#1bc6a6" stroke="#1bc6a6" stroke-width="2" points="820.57,-230.5 830.57,-227 820.57,-223.5 820.57,-230.5" style=""/>
</g>
<!-- IERC20Metadata.decimals -->
<g id="node49" class="node" pointer-events="visible" data-name="IERC20Metadata.decimals">

<ellipse fill="#edad56" stroke="#edad56" stroke-width="3" cx="909.29" cy="-34" rx="45.22" ry="18" style=""/>
<text text-anchor="middle" x="909.29" y="-29.8" font-family="Times,serif" font-size="14.00" style="">decimals</text>
</g>
<!-- Bank.getTokens&#45;&gt;IERC20Metadata.decimals -->
<g id="edge36" class="edge" data-name="Bank.getTokens-&gt;IERC20Metadata.decimals">

<path fill="none" stroke="white" stroke-width="2" d="M705.91,-209.26C725.36,-175.6 772.08,-102.15 830.67,-61 839.43,-54.85 849.72,-49.98 859.89,-46.18" style=""/>
<polygon fill="white" stroke="white" stroke-width="2" points="861.24,-49.42 869.56,-42.85 858.96,-42.8 861.24,-49.42" style=""/>
</g>
<!-- IERC20Metadata.name -->
<g id="node50" class="node" pointer-events="visible" data-name="IERC20Metadata.name">

<ellipse fill="#edad56" stroke="#edad56" stroke-width="3" cx="909.29" cy="-142" rx="31.9" ry="18" style=""/>
<text text-anchor="middle" x="909.29" y="-137.8" font-family="Times,serif" font-size="14.00" style="">name</text>
</g>
<!-- Bank.getTokens&#45;&gt;IERC20Metadata.name -->
<g id="edge37" class="edge" data-name="Bank.getTokens-&gt;IERC20Metadata.name">

<path fill="none" stroke="white" stroke-width="2" d="M729.74,-213.53C769.03,-197.79 833.73,-171.87 873.51,-155.93" style=""/>
<polygon fill="white" stroke="white" stroke-width="2" points="874.84,-159.17 882.82,-152.2 872.23,-152.67 874.84,-159.17" style=""/>
</g>
<!-- IERC20Metadata.symbol -->
<g id="node51" class="node" pointer-events="visible" data-name="IERC20Metadata.symbol">

<ellipse fill="#edad56" stroke="#edad56" stroke-width="3" cx="909.29" cy="-88" rx="39.45" ry="18" style=""/>
<text text-anchor="middle" x="909.29" y="-83.8" font-family="Times,serif" font-size="14.00" style="">symbol</text>
</g>
<!-- Bank.getTokens&#45;&gt;IERC20Metadata.symbol -->
<g id="edge38" class="edge" data-name="Bank.getTokens-&gt;IERC20Metadata.symbol">

<path fill="none" stroke="white" stroke-width="2" d="M712.46,-209.96C736.4,-185.86 783.31,-141.77 830.67,-115 841.34,-108.97 853.6,-103.94 865.17,-99.93" style=""/>
<polygon fill="white" stroke="white" stroke-width="2" points="866.28,-103.25 874.68,-96.79 864.08,-96.6 866.28,-103.25" style=""/>
</g>
<!-- Bank.getMinBetAmount -->
<g id="node26" class="node" pointer-events="visible" data-name="Bank.getMinBetAmount">

<ellipse fill="#ffbdb9" stroke="#ffbdb9" stroke-width="3" cx="146.11" cy="-389" rx="83.99" ry="18" style=""/>
<text text-anchor="middle" x="146.11" y="-384.8" font-family="Times,serif" font-size="14.00" style="">getMinBetAmount</text>
</g>
<!-- Bank.getMaxBetAmount -->
<g id="node27" class="node" pointer-events="visible" data-name="Bank.getMaxBetAmount">

<ellipse fill="#ffbdb9" stroke="#ffbdb9" stroke-width="3" cx="435.9" cy="-641" rx="85.7" ry="18" style=""/>
<text text-anchor="middle" x="435.9" y="-636.8" font-family="Times,serif" font-size="14.00" style="">getMaxBetAmount</text>
</g>
<!-- Bank.getMaxBetAmount&#45;&gt;Bank.getBalance -->
<g id="edge39" class="edge" data-name="Bank.getMaxBetAmount-&gt;Bank.getBalance">

<path fill="none" stroke="#1bc6a6" stroke-width="2" d="M504.22,-630.09C522.52,-626.08 542.1,-620.8 559.58,-614 596.88,-599.49 636.1,-575.63 662.5,-558.11" style=""/>
<polygon fill="#1bc6a6" stroke="#1bc6a6" stroke-width="2" points="664.6,-560.92 670.95,-552.44 660.69,-555.11 664.6,-560.92" style=""/>
</g>
<!-- Bank.isAllowedToken -->
<g id="node28" class="node" pointer-events="visible" data-name="Bank.isAllowedToken">

<ellipse fill="#ffbdb9" stroke="#ffbdb9" stroke-width="3" cx="146.11" cy="-335" rx="75.31" ry="18" style=""/>
<text text-anchor="middle" x="146.11" y="-330.8" font-family="Times,serif" font-size="14.00" style="">isAllowedToken</text>
</g>
<!-- Bank.checkUpkeep -->
<g id="node29" class="node" pointer-events="visible" data-name="Bank.checkUpkeep">

<ellipse fill="#ffbdb9" stroke="#ffbdb9" stroke-width="3" cx="146.11" cy="-281" rx="63.67" ry="18" style=""/>
<text text-anchor="middle" x="146.11" y="-276.8" font-family="Times,serif" font-size="14.00" style="">checkUpkeep</text>
</g>
<!-- Bank.getVRFSubId -->
<g id="node30" class="node" pointer-events="visible" data-name="Bank.getVRFSubId">

<ellipse fill="#ffbdb9" stroke="#ffbdb9" stroke-width="3" cx="146.11" cy="-227" rx="64.88" ry="18" style=""/>
<text text-anchor="middle" x="146.11" y="-222.8" font-family="Times,serif" font-size="14.00" style="">getVRFSubId</text>
</g>
<!-- Bank.getTokenOwner -->
<g id="node31" class="node" pointer-events="visible" data-name="Bank.getTokenOwner">

<ellipse fill="#ffbdb9" stroke="#ffbdb9" stroke-width="3" cx="435.9" cy="-809" rx="73.57" ry="18" style=""/>
<text text-anchor="middle" x="435.9" y="-804.8" font-family="Times,serif" font-size="14.00" style="">getTokenOwner</text>
</g>
<!-- Bank.getTokenOwner&#45;&gt;Bank.getRoleMember -->
<g id="edge40" class="edge" data-name="Bank.getTokenOwner-&gt;Bank.getRoleMember">

<path fill="none" stroke="#1bc6a6" stroke-width="2" d="M506.5,-803.59C539.82,-801 579.87,-797.88 614.41,-795.2" style=""/>
<polygon fill="#1bc6a6" stroke="#1bc6a6" stroke-width="2" points="614.76,-798.68 624.46,-794.42 614.22,-791.7 614.76,-798.68" style=""/>
</g>
<!-- Bank.setTeamWallet&#45;&gt;Bank.WrongAddress -->
<g id="edge41" class="edge" data-name="Bank.setTeamWallet-&gt;Bank.WrongAddress">

<path fill="none" stroke="#1bc6a6" stroke-width="2" d="M493.98,-926.99C533.36,-933.88 585.86,-943.06 627.21,-950.29" style=""/>
<polygon fill="#1bc6a6" stroke="#1bc6a6" stroke-width="2" points="626.74,-953.77 637.2,-952.04 627.95,-946.87 626.74,-953.77" style=""/>
</g>
<!-- Bank.withdrawHouseEdgeAmount -->
<g id="node33" class="node" pointer-events="visible" data-name="Bank.withdrawHouseEdgeAmount">

<ellipse fill="#ff9797" stroke="#ff9797" stroke-width="3" cx="435.9" cy="-371" rx="123.86" ry="18" style=""/>
<text text-anchor="middle" x="435.9" y="-366.8" font-family="Times,serif" font-size="14.00" style="">withdrawHouseEdgeAmount</text>
</g>
<!-- Bank.withdrawHouseEdgeAmount&#45;&gt;Bank._safeTransfer -->
<g id="edge42" class="edge" data-name="Bank.withdrawHouseEdgeAmount-&gt;Bank._safeTransfer">

<path fill="none" stroke="#1bc6a6" stroke-width="2" d="M556.1,-366.58C579.93,-366.96 604.19,-367.67 625.59,-368.62" style=""/>
<polygon fill="#1bc6a6" stroke="#1bc6a6" stroke-width="2" points="625.7,-372.13 635.85,-369.11 626.03,-365.14 625.7,-372.13" style=""/>
</g>
<!-- Bank.withdrawHouseEdgeAmount&#45;&gt;Bank._safeTransfer -->
<g id="edge43" class="edge" data-name="Bank.withdrawHouseEdgeAmount-&gt;Bank._safeTransfer">

<path fill="none" stroke="#1bc6a6" stroke-width="2" d="M544.12,-379.75C570.66,-380.48 598.44,-380.83 622.79,-380.73" style=""/>
<polygon fill="#1bc6a6" stroke="#1bc6a6" stroke-width="2" points="623.02,-384.23 633,-380.66 622.97,-377.23 623.02,-384.23" style=""/>
</g>
<!-- Bank.withdrawPartnerAmount&#45;&gt;Bank._safeTransfer -->
<g id="edge44" class="edge" data-name="Bank.withdrawPartnerAmount-&gt;Bank._safeTransfer">

<path fill="none" stroke="#1bc6a6" stroke-width="2" d="M513.44,-275.48C529.02,-279.23 545.07,-283.99 559.58,-290 598.4,-306.08 638.43,-333.27 664.61,-352.78" style=""/>
<polygon fill="#1bc6a6" stroke="#1bc6a6" stroke-width="2" points="662.52,-355.59 672.61,-358.82 666.74,-350 662.52,-355.59" style=""/>
</g>
<!-- Bank.getBalance&#45;&gt;Bank._isGasToken -->
<g id="edge45" class="edge" data-name="Bank.getBalance-&gt;Bank._isGasToken">

<path fill="none" stroke="#1bc6a6" stroke-width="2" d="M738.04,-524.94C770.93,-516.25 817.01,-504.09 852.94,-494.61" style=""/>
<polygon fill="#1bc6a6" stroke="#1bc6a6" stroke-width="2" points="854.01,-497.95 862.78,-492.01 852.22,-491.18 854.01,-497.95" style=""/>
</g>
<!-- Bank.getBalance&#45;&gt;Bank.IERC20 -->
<g id="edge46" class="edge" data-name="Bank.getBalance-&gt;Bank.IERC20">

<path fill="none" stroke="#1bc6a6" stroke-width="2" d="M749.11,-536C781.79,-536 823.51,-536 856.04,-536" style=""/>
<polygon fill="#1bc6a6" stroke="#1bc6a6" stroke-width="2" points="856.26,-539.5 866.26,-536 856.26,-532.5 856.26,-539.5" style=""/>
</g>
<!-- key -->
<g id="node52" class="node" pointer-events="visible" data-name="key">

<polygon fill="#edad56" stroke="none" stroke-width="3" points="211.11,-1254 81.11,-1254 81.11,-1166 211.11,-1166 211.11,-1254" style=""/>
<text text-anchor="start" x="130.75" y="-1235.4" font-family="Times,serif" font-size="14.00" style="">Internal Call</text>
<text text-anchor="start" x="126.86" y="-1215.4" font-family="Times,serif" font-size="14.00" style="">External Call</text>
<text text-anchor="start" x="104.31" y="-1195.4" font-family="Times,serif" font-size="14.00" style="">Defined Contract</text>
<text text-anchor="start" x="90.71" y="-1175.4" font-family="Times,serif" font-size="14.00" style="">Undefined Contract</text>
</g>
<!-- key2 -->
<g id="node53" class="node" pointer-events="visible" data-name="key2">

<polygon fill="#edad56" stroke="none" stroke-width="3" points="462.9,-1254 408.9,-1254 408.9,-1166 462.9,-1166 462.9,-1254" style=""/>
<text text-anchor="start" x="425.9" y="-1235.4" font-family="Times,serif" font-size="14.00" style="">   </text>
<text text-anchor="start" x="425.9" y="-1215.4" font-family="Times,serif" font-size="14.00" style="">   </text>
<polygon fill="#445773" stroke="none" points="423.9,-1190 423.9,-1210 448.9,-1210 448.9,-1190 423.9,-1190" style=""/>
<text text-anchor="start" x="425.9" y="-1195.4" font-family="Times,serif" font-size="14.00" style="">   </text>
<polygon fill="none" stroke="#e8726d" points="425.9,-1172 425.9,-1188 446.9,-1188 446.9,-1172 425.9,-1172" style=""/>
</g>
<!-- key&#45;&gt;key2 -->
<g id="edge47" class="edge" data-name="key-&gt;key2">

<path fill="none" stroke="#1bc6a6" stroke-width="2" d="M204.11,-1240C297.83,-1240 323.8,-1240 412.63,-1240" style=""/>
<polygon fill="#1bc6a6" stroke="#1bc6a6" stroke-width="2" points="412.9,-1243.5 422.9,-1240 412.9,-1236.5 412.9,-1243.5" style=""/>
</g>
<!-- key&#45;&gt;key2 -->
<g id="edge48" class="edge" data-name="key-&gt;key2">

<path fill="none" stroke="white" stroke-width="2" d="M204.11,-1220C297.83,-1220 323.8,-1220 412.63,-1220" style=""/>
<polygon fill="white" stroke="white" stroke-width="2" points="412.9,-1223.5 422.9,-1220 412.9,-1216.5 412.9,-1223.5" style=""/>
</g>
</g>
</svg>