<?xml version="1.0" standalone="no"?>
<svg xmlns="http://www.w3.org/2000/svg" xmlns:xlink="http://www.w3.org/1999/xlink" width="418pt" height="454pt" viewBox="0.00 0.00 418.38 454.00">
<g id="graph0" class="graph" transform="translate(4,450) scale(1)" data-name="G">

<polygon fill="#2e3e56" stroke="transparent" points="-4,4 -4,-450 414.38,-450 414.38,4 -4,4" style=""/>
<g id="clust1" class="cluster" data-name="clusterCoinToss">

<path fill="#445773" stroke="#445773" d="M20,-8C20,-8 390.38,-8 390.38,-8 396.38,-8 402.38,-14 402.38,-20 402.38,-20 402.38,-289 402.38,-289 402.38,-295 396.38,-301 390.38,-301 390.38,-301 20,-301 20,-301 14,-301 8,-295 8,-289 8,-289 8,-20 8,-20 8,-14 14,-8 20,-8" style=""/>
<text text-anchor="middle" x="205.19" y="-284.4" font-family="Times,serif" font-size="14.00" fill="#f0f0f0" style="">CoinToss</text>
</g>
<g id="clust2" class="cluster" data-name="cluster_01">

<polygon fill="#2e3e56" stroke="black" points="34.5,-309 34.5,-438 349.69,-438 349.69,-309 34.5,-309" style=""/>
<text text-anchor="middle" x="192.09" y="-421.4" font-family="Times,serif" font-size="14.00" style="">Legend</text>
</g>
<!-- CoinToss.&lt;Constructor&gt; -->
<g id="node1" class="node" pointer-events="visible" data-name="CoinToss.&lt;Constructor&gt;">

<ellipse fill="#ff9797" stroke="#ff9797" stroke-width="3" cx="107.5" cy="-250" rx="67.55" ry="18" style=""/>
<text text-anchor="middle" x="107.5" y="-245.8" font-family="Times,serif" font-size="14.00" style="">&lt;Constructor&gt;</text>
</g>
<!-- CoinToss.setHouseEdge -->
<g id="node2" class="node" pointer-events="visible" data-name="CoinToss.setHouseEdge">

<ellipse fill="#ffbdb9" stroke="#ffbdb9" stroke-width="3" cx="107.5" cy="-196" rx="66.06" ry="18" style=""/>
<text text-anchor="middle" x="107.5" y="-191.8" font-family="Times,serif" font-size="14.00" style="">setHouseEdge</text>
</g>
<!-- CoinToss._setHouseEdge -->
<g id="node7" class="node" pointer-events="visible" data-name="CoinToss._setHouseEdge">

<ellipse fill="#edad56" stroke="#edad56" stroke-width="3" cx="314.69" cy="-250" rx="71.22" ry="18" style=""/>
<text text-anchor="middle" x="314.69" y="-245.8" font-family="Times,serif" font-size="14.00" style="">_setHouseEdge</text>
</g>
<!-- CoinToss.setHouseEdge&#45;&gt;CoinToss._setHouseEdge -->
<g id="edge1" class="edge" data-name="CoinToss.setHouseEdge-&gt;CoinToss._setHouseEdge">

<path fill="none" stroke="#1bc6a6" stroke-width="2" d="M155.83,-208.46C185.31,-216.21 223.46,-226.25 254.87,-234.52" style=""/>
<polygon fill="#1bc6a6" stroke="#1bc6a6" stroke-width="2" points="254.25,-237.98 264.81,-237.14 256.03,-231.21 254.25,-237.98" style=""/>
</g>
<!-- CoinToss.wager -->
<g id="node3" class="node" pointer-events="visible" data-name="CoinToss.wager">

<ellipse fill="#ffbdb9" stroke="brown" stroke-width="3" cx="107.5" cy="-142" rx="34.75" ry="18" style=""/>
<text text-anchor="middle" x="107.5" y="-137.8" font-family="Times,serif" font-size="14.00" style="">wager</text>
</g>
<!-- CoinToss.getPayout -->
<g id="node6" class="node" pointer-events="visible" data-name="CoinToss.getPayout">

<ellipse fill="#edad56" stroke="#edad56" stroke-width="3" cx="314.69" cy="-142" rx="49.82" ry="18" style=""/>
<text text-anchor="middle" x="314.69" y="-137.8" font-family="Times,serif" font-size="14.00" style="">getPayout</text>
</g>
<!-- CoinToss.wager&#45;&gt;CoinToss.getPayout -->
<g id="edge3" class="edge" data-name="CoinToss.wager-&gt;CoinToss.getPayout">

<path fill="none" stroke="#1bc6a6" stroke-width="2" d="M142.38,-142C172.87,-142 218.33,-142 254.76,-142" style=""/>
<polygon fill="#1bc6a6" stroke="#1bc6a6" stroke-width="2" points="254.78,-145.5 264.78,-142 254.78,-138.5 254.78,-145.5" style=""/>
</g>
<!-- CoinToss._newBet -->
<g id="node8" class="node" pointer-events="visible" data-name="CoinToss._newBet">

<ellipse fill="#edad56" stroke="#edad56" stroke-width="3" cx="314.69" cy="-196" rx="45.23" ry="18" style=""/>
<text text-anchor="middle" x="314.69" y="-191.8" font-family="Times,serif" font-size="14.00" style="">_newBet</text>
</g>
<!-- CoinToss.wager&#45;&gt;CoinToss._newBet -->
<g id="edge2" class="edge" data-name="CoinToss.wager-&gt;CoinToss._newBet">

<path fill="none" stroke="#1bc6a6" stroke-width="2" d="M138.77,-149.97C172.41,-158.82 227.15,-173.23 266.44,-183.56" style=""/>
<polygon fill="#1bc6a6" stroke="#1bc6a6" stroke-width="2" points="265.76,-187.01 276.32,-186.17 267.54,-180.24 265.76,-187.01" style=""/>
</g>
<!-- CoinToss.fulfillRandomWords -->
<g id="node4" class="node" pointer-events="visible" data-name="CoinToss.fulfillRandomWords">

<ellipse fill="#f2c383" stroke="#f2c383" stroke-width="3" cx="107.5" cy="-88" rx="91.5" ry="18" style=""/>
<text text-anchor="middle" x="107.5" y="-83.8" font-family="Times,serif" font-size="14.00" style="">fulfillRandomWords</text>
</g>
<!-- CoinToss.fulfillRandomWords&#45;&gt;CoinToss.getPayout -->
<g id="edge5" class="edge" data-name="CoinToss.fulfillRandomWords-&gt;CoinToss.getPayout">

<path fill="none" stroke="#1bc6a6" stroke-width="2" d="M162.95,-102.33C194.31,-110.58 233.43,-120.88 263.96,-128.91" style=""/>
<polygon fill="#1bc6a6" stroke="#1bc6a6" stroke-width="2" points="263.4,-132.38 273.96,-131.54 265.18,-125.61 263.4,-132.38" style=""/>
</g>
<!-- CoinToss._resolveBet -->
<g id="node9" class="node" pointer-events="visible" data-name="CoinToss._resolveBet">

<ellipse fill="#edad56" stroke="#edad56" stroke-width="3" cx="314.69" cy="-88" rx="57.32" ry="18" style=""/>
<text text-anchor="middle" x="314.69" y="-83.8" font-family="Times,serif" font-size="14.00" style="">_resolveBet</text>
</g>
<!-- CoinToss.fulfillRandomWords&#45;&gt;CoinToss._resolveBet -->
<g id="edge4" class="edge" data-name="CoinToss.fulfillRandomWords-&gt;CoinToss._resolveBet">

<path fill="none" stroke="#1bc6a6" stroke-width="2" d="M199.1,-88C215.23,-88 231.77,-88 247.08,-88" style=""/>
<polygon fill="#1bc6a6" stroke="#1bc6a6" stroke-width="2" points="247.47,-91.5 257.47,-88 247.47,-84.5 247.47,-91.5" style=""/>
</g>
<!-- CoinToss.getLastUserBets -->
<g id="node5" class="node" pointer-events="visible" data-name="CoinToss.getLastUserBets">

<ellipse fill="#ffbdb9" stroke="#ffbdb9" stroke-width="3" cx="107.5" cy="-34" rx="74.73" ry="18" style=""/>
<text text-anchor="middle" x="107.5" y="-29.8" font-family="Times,serif" font-size="14.00" style="">getLastUserBets</text>
</g>
<!-- CoinToss._getLastUserBets -->
<g id="node10" class="node" pointer-events="visible" data-name="CoinToss._getLastUserBets">

<ellipse fill="#edad56" stroke="#edad56" stroke-width="3" cx="314.69" cy="-34" rx="79.88" ry="18" style=""/>
<text text-anchor="middle" x="314.69" y="-29.8" font-family="Times,serif" font-size="14.00" style="">_getLastUserBets</text>
</g>
<!-- CoinToss.getLastUserBets&#45;&gt;CoinToss._getLastUserBets -->
<g id="edge6" class="edge" data-name="CoinToss.getLastUserBets-&gt;CoinToss._getLastUserBets">

<path fill="none" stroke="#1bc6a6" stroke-width="2" d="M182.58,-34C196.25,-34 210.65,-34 224.71,-34" style=""/>
<polygon fill="#1bc6a6" stroke="#1bc6a6" stroke-width="2" points="224.87,-37.5 234.87,-34 224.87,-30.5 224.87,-37.5" style=""/>
</g>
<!-- key -->
<g id="node11" class="node" pointer-events="visible" data-name="key">

<polygon fill="#edad56" stroke="transparent" stroke-width="3" points="172.5,-405 42.5,-405 42.5,-317 172.5,-317 172.5,-405" style=""/>
<text text-anchor="start" x="92.14" y="-386.4" font-family="Times,serif" font-size="14.00" style="">Internal Call</text>
<text text-anchor="start" x="88.25" y="-366.4" font-family="Times,serif" font-size="14.00" style="">External Call</text>
<text text-anchor="start" x="65.7" y="-346.4" font-family="Times,serif" font-size="14.00" style="">Defined Contract</text>
<text text-anchor="start" x="52.1" y="-326.4" font-family="Times,serif" font-size="14.00" style="">Undefined Contract</text>
</g>
<!-- key2 -->
<g id="node12" class="node" pointer-events="visible" data-name="key2">

<polygon fill="#edad56" stroke="transparent" stroke-width="3" points="341.69,-405 287.69,-405 287.69,-317 341.69,-317 341.69,-405" style=""/>
<text text-anchor="start" x="304.69" y="-386.4" font-family="Times,serif" font-size="14.00" style="">   </text>
<text text-anchor="start" x="304.69" y="-366.4" font-family="Times,serif" font-size="14.00" style="">   </text>
<polygon fill="#445773" stroke="transparent" points="302.69,-341 302.69,-361 327.69,-361 327.69,-341 302.69,-341" style=""/>
<text text-anchor="start" x="304.69" y="-346.4" font-family="Times,serif" font-size="14.00" style="">   </text>
<polygon fill="none" stroke="#e8726d" points="304.69,-323 304.69,-339 325.69,-339 325.69,-323 304.69,-323" style=""/>
</g>
<!-- key&#45;&gt;key2 -->
<g id="edge7" class="edge" data-name="key-&gt;key2">

<path fill="none" stroke="#1bc6a6" stroke-width="2" d="M165.5,-391C222.48,-391 239.23,-391 291.5,-391" style=""/>
<polygon fill="#1bc6a6" stroke="#1bc6a6" stroke-width="2" points="291.69,-394.5 301.69,-391 291.69,-387.5 291.69,-394.5" style=""/>
</g>
<!-- key&#45;&gt;key2 -->
<g id="edge8" class="edge" data-name="key-&gt;key2">

<path fill="none" stroke="white" stroke-width="2" d="M165.5,-371C222.48,-371 239.23,-371 291.5,-371" style=""/>
<polygon fill="white" stroke="white" stroke-width="2" points="291.69,-374.5 301.69,-371 291.69,-367.5 291.69,-374.5" style=""/>
</g>
</g>
</svg>