<?xml version="1.0" standalone="no"?>
<svg xmlns="http://www.w3.org/2000/svg" xmlns:xlink="http://www.w3.org/1999/xlink" width="563pt" height="562pt" viewBox="0.00 0.00 563.13 562.00">
<g id="graph0" class="graph" transform="translate(4,558) scale(1)" data-name="G">

<polygon fill="#2e3e56" stroke="transparent" points="-4,4 -4,-558 559.13,-558 559.13,4 -4,4" style=""/>
<g id="clust1" class="cluster" data-name="clusterDice">

<path fill="#445773" stroke="#445773" d="M20,-8C20,-8 535.13,-8 535.13,-8 541.13,-8 547.13,-14 547.13,-20 547.13,-20 547.13,-397 547.13,-397 547.13,-403 541.13,-409 535.13,-409 535.13,-409 20,-409 20,-409 14,-409 8,-403 8,-397 8,-397 8,-20 8,-20 8,-14 14,-8 20,-8" style=""/>
<text text-anchor="middle" x="277.56" y="-392.4" font-family="Times,serif" font-size="14.00" fill="#f0f0f0" style="">Dice</text>
</g>
<g id="clust2" class="cluster" data-name="cluster_01">

<polygon fill="#2e3e56" stroke="black" points="62.37,-417 62.37,-546 449.93,-546 449.93,-417 62.37,-417" style=""/>
<text text-anchor="middle" x="256.15" y="-529.4" font-family="Times,serif" font-size="14.00" style="">Legend</text>
</g>
<!-- Dice.&lt;Constructor&gt; -->
<g id="node1" class="node" pointer-events="visible" data-name="Dice.&lt;Constructor&gt;">

<ellipse fill="#ff9797" stroke="#ff9797" stroke-width="3" cx="135.37" cy="-358" rx="67.54" ry="18" style=""/>
<text text-anchor="middle" x="135.37" y="-353.8" font-family="Times,serif" font-size="14.00" style="">&lt;Constructor&gt;</text>
</g>
<!-- Dice.setHouseEdgeAndMinCap -->
<g id="node2" class="node" pointer-events="visible" data-name="Dice.setHouseEdgeAndMinCap">

<ellipse fill="#ffbdb9" stroke="#ffbdb9" stroke-width="3" cx="135.37" cy="-304" rx="114.61" ry="18" style=""/>
<text text-anchor="middle" x="135.37" y="-299.8" font-family="Times,serif" font-size="14.00" style="">setHouseEdgeAndMinCap</text>
</g>
<!-- Dice.getPayout -->
<g id="node6" class="node" pointer-events="visible" data-name="Dice.getPayout">

<ellipse fill="#edad56" stroke="#edad56" stroke-width="3" cx="414.93" cy="-142" rx="49.82" ry="18" style=""/>
<text text-anchor="middle" x="414.93" y="-137.8" font-family="Times,serif" font-size="14.00" style="">getPayout</text>
</g>
<!-- Dice.setHouseEdgeAndMinCap&#45;&gt;Dice.getPayout -->
<g id="edge2" class="edge" data-name="Dice.setHouseEdgeAndMinCap-&gt;Dice.getPayout">

<path fill="none" stroke="#1bc6a6" stroke-width="2" d="M168.48,-286.61C193.8,-271.88 229.01,-249.04 254.74,-223 275.01,-202.48 266.92,-185.27 290.74,-169 309.62,-156.1 333.61,-149.23 355.39,-145.62" style=""/>
<polygon fill="#1bc6a6" stroke="#1bc6a6" stroke-width="2" points="356.15,-149.05 365.54,-144.14 355.14,-142.12 356.15,-149.05" style=""/>
</g>
<!-- Dice._setHouseEdge -->
<g id="node7" class="node" pointer-events="visible" data-name="Dice._setHouseEdge">

<ellipse fill="#edad56" stroke="#edad56" stroke-width="3" cx="414.93" cy="-358" rx="71.21" ry="18" style=""/>
<text text-anchor="middle" x="414.93" y="-353.8" font-family="Times,serif" font-size="14.00" style="">_setHouseEdge</text>
</g>
<!-- Dice.setHouseEdgeAndMinCap&#45;&gt;Dice._setHouseEdge -->
<g id="edge1" class="edge" data-name="Dice.setHouseEdgeAndMinCap-&gt;Dice._setHouseEdge">

<path fill="none" stroke="#1bc6a6" stroke-width="2" d="M208.21,-317.98C251.48,-326.4 306.17,-337.04 348.29,-345.23" style=""/>
<polygon fill="#1bc6a6" stroke="#1bc6a6" stroke-width="2" points="347.68,-348.68 358.16,-347.15 349.01,-341.8 347.68,-348.68" style=""/>
</g>
<!-- Dice._getFees -->
<g id="node8" class="node" pointer-events="visible" data-name="Dice._getFees">

<ellipse fill="#edad56" stroke="#edad56" stroke-width="3" cx="414.93" cy="-304" rx="45.22" ry="18" style=""/>
<text text-anchor="middle" x="414.93" y="-299.8" font-family="Times,serif" font-size="14.00" style="">_getFees</text>
</g>
<!-- Dice.setHouseEdgeAndMinCap&#45;&gt;Dice._getFees -->
<g id="edge3" class="edge" data-name="Dice.setHouseEdgeAndMinCap-&gt;Dice._getFees">

<path fill="none" stroke="#1bc6a6" stroke-width="2" d="M250.07,-304C287.73,-304 327.94,-304 359.1,-304" style=""/>
<polygon fill="#1bc6a6" stroke="#1bc6a6" stroke-width="2" points="359.31,-307.5 369.31,-304 359.31,-300.5 359.31,-307.5" style=""/>
</g>
<!-- Dice.wager -->
<g id="node3" class="node" pointer-events="visible" data-name="Dice.wager">

<ellipse fill="#ffbdb9" stroke="brown" stroke-width="3" cx="135.37" cy="-196" rx="34.75" ry="18" style=""/>
<text text-anchor="middle" x="135.37" y="-191.8" font-family="Times,serif" font-size="14.00" style="">wager</text>
</g>
<!-- Dice.wager&#45;&gt;Dice.getPayout -->
<g id="edge6" class="edge" data-name="Dice.wager-&gt;Dice.getPayout">

<path fill="none" stroke="#1bc6a6" stroke-width="2" d="M167.94,-189.86C214.85,-180.73 303.56,-163.47 360.65,-152.37" style=""/>
<polygon fill="#1bc6a6" stroke="#1bc6a6" stroke-width="2" points="361.42,-155.78 370.57,-150.44 360.09,-148.91 361.42,-155.78" style=""/>
</g>
<!-- Dice.CapNotInRange -->
<g id="node9" class="node" pointer-events="visible" data-name="Dice.CapNotInRange">

<ellipse fill="#edad56" stroke="#edad56" stroke-width="3" cx="414.93" cy="-250" rx="73.58" ry="18" style=""/>
<text text-anchor="middle" x="414.93" y="-245.8" font-family="Times,serif" font-size="14.00" style="">CapNotInRange</text>
</g>
<!-- Dice.wager&#45;&gt;Dice.CapNotInRange -->
<g id="edge4" class="edge" data-name="Dice.wager-&gt;Dice.CapNotInRange">

<path fill="none" stroke="#1bc6a6" stroke-width="2" d="M167.94,-202.14C211.17,-210.55 289.88,-225.87 346.64,-236.91" style=""/>
<polygon fill="#1bc6a6" stroke="#1bc6a6" stroke-width="2" points="346.13,-240.37 356.61,-238.85 347.47,-233.5 346.13,-240.37" style=""/>
</g>
<!-- Dice._newBet -->
<g id="node10" class="node" pointer-events="visible" data-name="Dice._newBet">

<ellipse fill="#edad56" stroke="#edad56" stroke-width="3" cx="414.93" cy="-196" rx="45.22" ry="18" style=""/>
<text text-anchor="middle" x="414.93" y="-191.8" font-family="Times,serif" font-size="14.00" style="">_newBet</text>
</g>
<!-- Dice.wager&#45;&gt;Dice._newBet -->
<g id="edge5" class="edge" data-name="Dice.wager-&gt;Dice._newBet">

<path fill="none" stroke="#1bc6a6" stroke-width="2" d="M170.13,-196C217.19,-196 303.04,-196 359.29,-196" style=""/>
<polygon fill="#1bc6a6" stroke="#1bc6a6" stroke-width="2" points="359.43,-199.5 369.43,-196 359.43,-192.5 359.43,-199.5" style=""/>
</g>
<!-- Dice.fulfillRandomWords -->
<g id="node4" class="node" pointer-events="visible" data-name="Dice.fulfillRandomWords">

<ellipse fill="#f2c383" stroke="#f2c383" stroke-width="3" cx="135.37" cy="-115" rx="91.49" ry="18" style=""/>
<text text-anchor="middle" x="135.37" y="-110.8" font-family="Times,serif" font-size="14.00" style="">fulfillRandomWords</text>
</g>
<!-- Dice.fulfillRandomWords&#45;&gt;Dice.getPayout -->
<g id="edge8" class="edge" data-name="Dice.fulfillRandomWords-&gt;Dice.getPayout">

<path fill="none" stroke="#1bc6a6" stroke-width="2" d="M217.77,-122.92C262.36,-127.26 316.54,-132.53 356.65,-136.43" style=""/>
<polygon fill="#1bc6a6" stroke="#1bc6a6" stroke-width="2" points="356.5,-139.93 366.79,-137.41 357.17,-132.96 356.5,-139.93" style=""/>
</g>
<!-- Dice._resolveBet -->
<g id="node11" class="node" pointer-events="visible" data-name="Dice._resolveBet">

<ellipse fill="#edad56" stroke="#edad56" stroke-width="3" cx="414.93" cy="-88" rx="57.32" ry="18" style=""/>
<text text-anchor="middle" x="414.93" y="-83.8" font-family="Times,serif" font-size="14.00" style="">_resolveBet</text>
</g>
<!-- Dice.fulfillRandomWords&#45;&gt;Dice._resolveBet -->
<g id="edge7" class="edge" data-name="Dice.fulfillRandomWords-&gt;Dice._resolveBet">

<path fill="none" stroke="#1bc6a6" stroke-width="2" d="M217.77,-107.08C260,-102.97 310.84,-98.03 350.18,-94.2" style=""/>
<polygon fill="#1bc6a6" stroke="#1bc6a6" stroke-width="2" points="350.56,-97.68 360.18,-93.23 349.89,-90.71 350.56,-97.68" style=""/>
</g>
<!-- Dice.getLastUserUnresolvedBets -->
<g id="node5" class="node" pointer-events="visible" data-name="Dice.getLastUserUnresolvedBets">

<ellipse fill="#ffbdb9" stroke="#ffbdb9" stroke-width="3" cx="135.37" cy="-34" rx="119.24" ry="18" style=""/>
<text text-anchor="middle" x="135.37" y="-29.8" font-family="Times,serif" font-size="14.00" style="">getLastUserUnresolvedBets</text>
</g>
<!-- Dice._getLastUserUnresolvedBets -->
<g id="node12" class="node" pointer-events="visible" data-name="Dice._getLastUserUnresolvedBets">

<ellipse fill="#edad56" stroke="#edad56" stroke-width="3" cx="414.93" cy="-34" rx="124.39" ry="18" style=""/>
<text text-anchor="middle" x="414.93" y="-29.8" font-family="Times,serif" font-size="14.00" style="">_getLastUserUnresolvedBets</text>
</g>
<!-- Dice.getLastUserUnresolvedBets&#45;&gt;Dice._getLastUserUnresolvedBets -->
<g id="edge9" class="edge" data-name="Dice.getLastUserUnresolvedBets-&gt;Dice._getLastUserUnresolvedBets">

<path fill="none" stroke="#1bc6a6" stroke-width="2" d="M254.89,-34C263.36,-34 271.93,-34 280.48,-34" style=""/>
<polygon fill="#1bc6a6" stroke="#1bc6a6" stroke-width="2" points="280.5,-37.5 290.5,-34 280.5,-30.5 280.5,-37.5" style=""/>
</g>
<!-- key -->
<g id="node13" class="node" pointer-events="visible" data-name="key">

<polygon fill="#edad56" stroke="transparent" stroke-width="3" points="200.37,-513 70.37,-513 70.37,-425 200.37,-425 200.37,-513" style=""/>
<text text-anchor="start" x="120" y="-494.4" font-family="Times,serif" font-size="14.00" style="">Internal Call</text>
<text text-anchor="start" x="116.11" y="-474.4" font-family="Times,serif" font-size="14.00" style="">External Call</text>
<text text-anchor="start" x="93.57" y="-454.4" font-family="Times,serif" font-size="14.00" style="">Defined Contract</text>
<text text-anchor="start" x="79.97" y="-434.4" font-family="Times,serif" font-size="14.00" style="">Undefined Contract</text>
</g>
<!-- key2 -->
<g id="node14" class="node" pointer-events="visible" data-name="key2">

<polygon fill="#edad56" stroke="transparent" stroke-width="3" points="441.93,-513 387.93,-513 387.93,-425 441.93,-425 441.93,-513" style=""/>
<text text-anchor="start" x="402.69" y="-494.4" font-family="Times,serif" font-size="14.00" style="">   </text>
<text text-anchor="start" x="402.69" y="-474.4" font-family="Times,serif" font-size="14.00" style="">   </text>
<polygon fill="#445773" stroke="transparent" points="400.93,-449 400.93,-469 428.93,-469 428.93,-449 400.93,-449" style=""/>
<text text-anchor="start" x="402.69" y="-454.4" font-family="Times,serif" font-size="14.00" style="">   </text>
<polygon fill="none" stroke="#e8726d" points="402.93,-431 402.93,-447 426.93,-447 426.93,-431 402.93,-431" style=""/>
</g>
<!-- key&#45;&gt;key2 -->
<g id="edge10" class="edge" data-name="key-&gt;key2">

<path fill="none" stroke="#1bc6a6" stroke-width="2" d="M193.37,-499C281.68,-499 306.28,-499 389.74,-499" style=""/>
<polygon fill="#1bc6a6" stroke="#1bc6a6" stroke-width="2" points="389.93,-502.5 399.93,-499 389.93,-495.5 389.93,-502.5" style=""/>
</g>
<!-- key&#45;&gt;key2 -->
<g id="edge11" class="edge" data-name="key-&gt;key2">

<path fill="none" stroke="white" stroke-width="2" d="M193.37,-479C281.68,-479 306.28,-479 389.74,-479" style=""/>
<polygon fill="white" stroke="white" stroke-width="2" points="389.93,-482.5 399.93,-479 389.93,-475.5 389.93,-482.5" style=""/>
</g>
</g>
</svg>