<?xml version="1.0" standalone="no"?>
<svg xmlns="http://www.w3.org/2000/svg" xmlns:xlink="http://www.w3.org/1999/xlink" width="465pt" height="562pt" viewBox="0.00 0.00 464.51 562.00">
<g id="graph0" class="graph" transform="translate(4,558) scale(1)" data-name="G">

<polygon fill="#2e3e56" stroke="transparent" points="-4,4 -4,-558 460.51,-558 460.51,4 -4,4" style=""/>
<g id="clust1" class="cluster" data-name="clusterDice">

<path fill="#445773" stroke="#445773" d="M20,-8C20,-8 436.51,-8 436.51,-8 442.51,-8 448.51,-14 448.51,-20 448.51,-20 448.51,-397 448.51,-397 448.51,-403 442.51,-409 436.51,-409 436.51,-409 20,-409 20,-409 14,-409 8,-403 8,-397 8,-397 8,-20 8,-20 8,-14 14,-8 20,-8" style=""/>
<text text-anchor="middle" x="228.26" y="-392.4" font-family="Times,serif" font-size="14.00" fill="#f0f0f0" style="">Dice</text>
</g>
<g id="clust2" class="cluster" data-name="cluster_01">

<polygon fill="#2e3e56" stroke="black" points="57.57,-417 57.57,-546 395.82,-546 395.82,-417 57.57,-417" style=""/>
<text text-anchor="middle" x="226.69" y="-529.4" font-family="Times,serif" font-size="14.00" style="">Legend</text>
</g>
<!-- Dice.&lt;Constructor&gt; -->
<g id="node1" class="node" pointer-events="visible" data-name="Dice.&lt;Constructor&gt;">

<ellipse fill="#ff9797" stroke="#ff9797" stroke-width="3" cx="130.57" cy="-358" rx="67.55" ry="18" style=""/>
<text text-anchor="middle" x="130.57" y="-353.8" font-family="Times,serif" font-size="14.00" style="">&lt;Constructor&gt;</text>
</g>
<!-- Dice.setHouseEdgeAndMinCap -->
<g id="node2" class="node" pointer-events="visible" data-name="Dice.setHouseEdgeAndMinCap">

<ellipse fill="#ffbdb9" stroke="#ffbdb9" stroke-width="3" cx="130.57" cy="-304" rx="114.63" ry="18" style=""/>
<text text-anchor="middle" x="130.57" y="-299.8" font-family="Times,serif" font-size="14.00" style="">setHouseEdgeAndMinCap</text>
</g>
<!-- Dice.getPayout -->
<g id="node6" class="node" pointer-events="visible" data-name="Dice.getPayout">

<ellipse fill="#edad56" stroke="#edad56" stroke-width="3" cx="360.82" cy="-142" rx="49.82" ry="18" style=""/>
<text text-anchor="middle" x="360.82" y="-137.8" font-family="Times,serif" font-size="14.00" style="">getPayout</text>
</g>
<!-- Dice.setHouseEdgeAndMinCap&#45;&gt;Dice.getPayout -->
<g id="edge2" class="edge" data-name="Dice.setHouseEdgeAndMinCap-&gt;Dice.getPayout">

<path fill="none" stroke="#1bc6a6" stroke-width="2" d="M161.83,-286.66C186.13,-271.79 220.19,-248.74 245.13,-223 265.2,-202.28 258.29,-186.61 281.13,-169 289.11,-162.85 298.58,-158.05 308.14,-154.31" style=""/>
<polygon fill="#1bc6a6" stroke="#1bc6a6" stroke-width="2" points="309.43,-157.57 317.68,-150.93 307.09,-150.97 309.43,-157.57" style=""/>
</g>
<!-- Dice._setHouseEdge -->
<g id="node7" class="node" pointer-events="visible" data-name="Dice._setHouseEdge">

<ellipse fill="#edad56" stroke="#edad56" stroke-width="3" cx="360.82" cy="-358" rx="71.22" ry="18" style=""/>
<text text-anchor="middle" x="360.82" y="-353.8" font-family="Times,serif" font-size="14.00" style="">_setHouseEdge</text>
</g>
<!-- Dice.setHouseEdgeAndMinCap&#45;&gt;Dice._setHouseEdge -->
<g id="edge1" class="edge" data-name="Dice.setHouseEdgeAndMinCap-&gt;Dice._setHouseEdge">

<path fill="none" stroke="#1bc6a6" stroke-width="2" d="M194.84,-318.97C227.11,-326.6 266.19,-335.85 298.21,-343.42" style=""/>
<polygon fill="#1bc6a6" stroke="#1bc6a6" stroke-width="2" points="297.8,-346.92 308.34,-345.82 299.42,-340.11 297.8,-346.92" style=""/>
</g>
<!-- Dice._getFees -->
<g id="node8" class="node" pointer-events="visible" data-name="Dice._getFees">

<ellipse fill="#edad56" stroke="#edad56" stroke-width="3" cx="360.82" cy="-304" rx="45.23" ry="18" style=""/>
<text text-anchor="middle" x="360.82" y="-299.8" font-family="Times,serif" font-size="14.00" style="">_getFees</text>
</g>
<!-- Dice.setHouseEdgeAndMinCap&#45;&gt;Dice._getFees -->
<g id="edge3" class="edge" data-name="Dice.setHouseEdgeAndMinCap-&gt;Dice._getFees">

<path fill="none" stroke="#1bc6a6" stroke-width="2" d="M245.36,-304C266.27,-304 287.2,-304 305.34,-304" style=""/>
<polygon fill="#1bc6a6" stroke="#1bc6a6" stroke-width="2" points="305.39,-307.5 315.39,-304 305.39,-300.5 305.39,-307.5" style=""/>
</g>
<!-- Dice.wager -->
<g id="node3" class="node" pointer-events="visible" data-name="Dice.wager">

<ellipse fill="#ffbdb9" stroke="brown" stroke-width="3" cx="130.57" cy="-196" rx="34.75" ry="18" style=""/>
<text text-anchor="middle" x="130.57" y="-191.8" font-family="Times,serif" font-size="14.00" style="">wager</text>
</g>
<!-- Dice.wager&#45;&gt;Dice.getPayout -->
<g id="edge6" class="edge" data-name="Dice.wager-&gt;Dice.getPayout">

<path fill="none" stroke="#1bc6a6" stroke-width="2" d="M162.35,-188.72C199.91,-179.83 263.95,-164.68 308.89,-154.05" style=""/>
<polygon fill="#1bc6a6" stroke="#1bc6a6" stroke-width="2" points="309.82,-157.43 318.74,-151.72 308.21,-150.61 309.82,-157.43" style=""/>
</g>
<!-- Dice.CapNotInRange -->
<g id="node9" class="node" pointer-events="visible" data-name="Dice.CapNotInRange">

<ellipse fill="#edad56" stroke="#edad56" stroke-width="3" cx="360.82" cy="-250" rx="73.59" ry="18" style=""/>
<text text-anchor="middle" x="360.82" y="-245.8" font-family="Times,serif" font-size="14.00" style="">CapNotInRange</text>
</g>
<!-- Dice.wager&#45;&gt;Dice.CapNotInRange -->
<g id="edge4" class="edge" data-name="Dice.wager-&gt;Dice.CapNotInRange">

<path fill="none" stroke="#1bc6a6" stroke-width="2" d="M162.35,-203.28C196.78,-211.43 253.47,-224.84 297.3,-235.21" style=""/>
<polygon fill="#1bc6a6" stroke="#1bc6a6" stroke-width="2" points="296.75,-238.68 307.29,-237.57 298.36,-231.86 296.75,-238.68" style=""/>
</g>
<!-- Dice._newBet -->
<g id="node10" class="node" pointer-events="visible" data-name="Dice._newBet">

<ellipse fill="#edad56" stroke="#edad56" stroke-width="3" cx="360.82" cy="-196" rx="45.23" ry="18" style=""/>
<text text-anchor="middle" x="360.82" y="-191.8" font-family="Times,serif" font-size="14.00" style="">_newBet</text>
</g>
<!-- Dice.wager&#45;&gt;Dice._newBet -->
<g id="edge5" class="edge" data-name="Dice.wager-&gt;Dice._newBet">

<path fill="none" stroke="#1bc6a6" stroke-width="2" d="M165.25,-196C202.1,-196 261.72,-196 305.27,-196" style=""/>
<polygon fill="#1bc6a6" stroke="#1bc6a6" stroke-width="2" points="305.41,-199.5 315.41,-196 305.41,-192.5 305.41,-199.5" style=""/>
</g>
<!-- Dice.fulfillRandomWords -->
<g id="node4" class="node" pointer-events="visible" data-name="Dice.fulfillRandomWords">

<ellipse fill="#f2c383" stroke="#f2c383" stroke-width="3" cx="130.57" cy="-115" rx="91.5" ry="18" style=""/>
<text text-anchor="middle" x="130.57" y="-110.8" font-family="Times,serif" font-size="14.00" style="">fulfillRandomWords</text>
</g>
<!-- Dice.fulfillRandomWords&#45;&gt;Dice.getPayout -->
<g id="edge8" class="edge" data-name="Dice.fulfillRandomWords-&gt;Dice.getPayout">

<path fill="none" stroke="#1bc6a6" stroke-width="2" d="M209.48,-124.22C240.31,-127.86 275.07,-131.97 303.39,-135.32" style=""/>
<polygon fill="#1bc6a6" stroke="#1bc6a6" stroke-width="2" points="303.17,-138.82 313.52,-136.52 304,-131.87 303.17,-138.82" style=""/>
</g>
<!-- Dice._resolveBet -->
<g id="node11" class="node" pointer-events="visible" data-name="Dice._resolveBet">

<ellipse fill="#edad56" stroke="#edad56" stroke-width="3" cx="360.82" cy="-88" rx="57.32" ry="18" style=""/>
<text text-anchor="middle" x="360.82" y="-83.8" font-family="Times,serif" font-size="14.00" style="">_resolveBet</text>
</g>
<!-- Dice.fulfillRandomWords&#45;&gt;Dice._resolveBet -->
<g id="edge7" class="edge" data-name="Dice.fulfillRandomWords-&gt;Dice._resolveBet">

<path fill="none" stroke="#1bc6a6" stroke-width="2" d="M209.48,-105.78C238,-102.41 269.88,-98.64 296.92,-95.44" style=""/>
<polygon fill="#1bc6a6" stroke="#1bc6a6" stroke-width="2" points="297.51,-98.9 307.02,-94.25 296.68,-91.94 297.51,-98.9" style=""/>
</g>
<!-- Dice.getLastUserBets -->
<g id="node5" class="node" pointer-events="visible" data-name="Dice.getLastUserBets">

<ellipse fill="#ffbdb9" stroke="#ffbdb9" stroke-width="3" cx="130.57" cy="-34" rx="74.73" ry="18" style=""/>
<text text-anchor="middle" x="130.57" y="-29.8" font-family="Times,serif" font-size="14.00" style="">getLastUserBets</text>
</g>
<!-- Dice._getLastUserBets -->
<g id="node12" class="node" pointer-events="visible" data-name="Dice._getLastUserBets">

<ellipse fill="#edad56" stroke="#edad56" stroke-width="3" cx="360.82" cy="-34" rx="79.88" ry="18" style=""/>
<text text-anchor="middle" x="360.82" y="-29.8" font-family="Times,serif" font-size="14.00" style="">_getLastUserBets</text>
</g>
<!-- Dice.getLastUserBets&#45;&gt;Dice._getLastUserBets -->
<g id="edge9" class="edge" data-name="Dice.getLastUserBets-&gt;Dice._getLastUserBets">

<path fill="none" stroke="#1bc6a6" stroke-width="2" d="M205.67,-34C226.46,-34 249.28,-34 270.84,-34" style=""/>
<polygon fill="#1bc6a6" stroke="#1bc6a6" stroke-width="2" points="270.98,-37.5 280.98,-34 270.98,-30.5 270.98,-37.5" style=""/>
</g>
<!-- key -->
<g id="node13" class="node" pointer-events="visible" data-name="key">

<polygon fill="#edad56" stroke="transparent" stroke-width="3" points="195.57,-513 65.57,-513 65.57,-425 195.57,-425 195.57,-513" style=""/>
<text text-anchor="start" x="115.2" y="-494.4" font-family="Times,serif" font-size="14.00" style="">Internal Call</text>
<text text-anchor="start" x="111.31" y="-474.4" font-family="Times,serif" font-size="14.00" style="">External Call</text>
<text text-anchor="start" x="88.77" y="-454.4" font-family="Times,serif" font-size="14.00" style="">Defined Contract</text>
<text text-anchor="start" x="75.17" y="-434.4" font-family="Times,serif" font-size="14.00" style="">Undefined Contract</text>
</g>
<!-- key2 -->
<g id="node14" class="node" pointer-events="visible" data-name="key2">

<polygon fill="#edad56" stroke="transparent" stroke-width="3" points="387.82,-513 333.82,-513 333.82,-425 387.82,-425 387.82,-513" style=""/>
<text text-anchor="start" x="350.82" y="-494.4" font-family="Times,serif" font-size="14.00" style="">   </text>
<text text-anchor="start" x="350.82" y="-474.4" font-family="Times,serif" font-size="14.00" style="">   </text>
<polygon fill="#445773" stroke="transparent" points="348.82,-449 348.82,-469 373.82,-469 373.82,-449 348.82,-449" style=""/>
<text text-anchor="start" x="350.82" y="-454.4" font-family="Times,serif" font-size="14.00" style="">   </text>
<polygon fill="none" stroke="#e8726d" points="350.82,-431 350.82,-447 371.82,-447 371.82,-431 350.82,-431" style=""/>
</g>
<!-- key&#45;&gt;key2 -->
<g id="edge10" class="edge" data-name="key-&gt;key2">

<path fill="none" stroke="#1bc6a6" stroke-width="2" d="M188.57,-499C255.89,-499 275.19,-499 337.82,-499" style=""/>
<polygon fill="#1bc6a6" stroke="#1bc6a6" stroke-width="2" points="337.82,-502.5 347.82,-499 337.82,-495.5 337.82,-502.5" style=""/>
</g>
<!-- key&#45;&gt;key2 -->
<g id="edge11" class="edge" data-name="key-&gt;key2">

<path fill="none" stroke="white" stroke-width="2" d="M188.57,-479C255.89,-479 275.19,-479 337.82,-479" style=""/>
<polygon fill="white" stroke="white" stroke-width="2" points="337.82,-482.5 347.82,-479 337.82,-475.5 337.82,-482.5" style=""/>
</g>
</g>
</svg>