<?xml version="1.0" standalone="no"?>
<svg xmlns="http://www.w3.org/2000/svg" xmlns:xlink="http://www.w3.org/1999/xlink" width="831pt" height="886pt" viewBox="0.00 0.00 830.74 886.00">
<g id="graph0" class="graph" transform="translate(4,882) scale(1)" data-name="G">

<polygon fill="#2e3e56" stroke="none" points="-4,4 -4,-882 826.74,-882 826.74,4 -4,4" style=""/>
<g id="clust1" class="cluster" data-name="clusterKeno">

<path fill="#445773" stroke="#445773" d="M20,-8C20,-8 802.74,-8 802.74,-8 808.74,-8 814.74,-14 814.74,-20 814.74,-20 814.74,-721 814.74,-721 814.74,-727 808.74,-733 802.74,-733 802.74,-733 20,-733 20,-733 14,-733 8,-727 8,-721 8,-721 8,-20 8,-20 8,-14 14,-8 20,-8" style=""/>
<text text-anchor="middle" x="411.37" y="-716.4" font-family="Times,serif" font-size="14.00" fill="#f0f0f0" style="">Keno</text>
</g>
<g id="clust2" class="cluster" data-name="cluster_01">

<polygon fill="#2e3e56" stroke="black" points="34.5,-741 34.5,-870 407.62,-870 407.62,-741 34.5,-741" style=""/>
<text text-anchor="middle" x="221.06" y="-853.4" font-family="Times,serif" font-size="14.00" style="">Legend</text>
</g>
<!-- Keno.&lt;Constructor&gt; -->
<g id="node1" class="node" pointer-events="visible" data-name="Keno.&lt;Constructor&gt;">

<ellipse fill="#ff9797" stroke="#ff9797" stroke-width="3" cx="107.5" cy="-668" rx="67.55" ry="18" style=""/>
<text text-anchor="middle" x="107.5" y="-663.8" font-family="Times,serif" font-size="14.00" style="">&lt;Constructor&gt;</text>
</g>
<!-- Keno._calculateFactors -->
<g id="node2" class="node" pointer-events="visible" data-name="Keno._calculateFactors">

<ellipse fill="#edad56" stroke="#edad56" stroke-width="3" cx="372.62" cy="-574" rx="78.7" ry="18" style=""/>
<text text-anchor="middle" x="372.62" y="-569.8" font-family="Times,serif" font-size="14.00" style="">_calculateFactors</text>
</g>
<!-- Keno.gain -->
<g id="node10" class="node" pointer-events="visible" data-name="Keno.gain">

<ellipse fill="#edad56" stroke="#edad56" stroke-width="3" cx="573.91" cy="-574" rx="27.83" ry="18" style=""/>
<text text-anchor="middle" x="573.91" y="-569.8" font-family="Times,serif" font-size="14.00" style="">gain</text>
</g>
<!-- Keno._calculateFactors&#45;&gt;Keno.gain -->
<g id="edge1" class="edge" data-name="Keno._calculateFactors-&gt;Keno.gain">

<path fill="none" stroke="#1bc6a6" stroke-width="2" d="M452.67,-574C479.8,-574 509.05,-574 531.91,-574" style=""/>
<polygon fill="#1bc6a6" stroke="#1bc6a6" stroke-width="2" points="531.88,-577.5 541.88,-574 531.88,-570.5 531.88,-577.5" style=""/>
</g>
<!-- Keno.updateTokenConfig -->
<g id="node3" class="node" pointer-events="visible" data-name="Keno.updateTokenConfig">

<ellipse fill="#ffbdb9" stroke="#ffbdb9" stroke-width="3" cx="107.5" cy="-587" rx="88.05" ry="18" style=""/>
<text text-anchor="middle" x="107.5" y="-582.8" font-family="Times,serif" font-size="14.00" style="">updateTokenConfig</text>
</g>
<!-- Keno.updateTokenConfig&#45;&gt;Keno._calculateFactors -->
<g id="edge5" class="edge" data-name="Keno.updateTokenConfig-&gt;Keno._calculateFactors">

<path fill="none" stroke="#1bc6a6" stroke-width="2" d="M194.65,-582.74C222.47,-581.37 253.37,-579.84 281.46,-578.45" style=""/>
<polygon fill="#1bc6a6" stroke="#1bc6a6" stroke-width="2" points="281.32,-581.97 291.13,-577.98 280.97,-574.97 281.32,-581.97" style=""/>
</g>
<!-- Keno.hasPendingBets -->
<g id="node14" class="node" pointer-events="visible" data-name="Keno.hasPendingBets">

<ellipse fill="#edad56" stroke="#edad56" stroke-width="3" cx="372.62" cy="-628" rx="72.96" ry="18" style=""/>
<text text-anchor="middle" x="372.62" y="-623.8" font-family="Times,serif" font-size="14.00" style="">hasPendingBets</text>
</g>
<!-- Keno.updateTokenConfig&#45;&gt;Keno.hasPendingBets -->
<g id="edge2" class="edge" data-name="Keno.updateTokenConfig-&gt;Keno.hasPendingBets">

<path fill="none" stroke="#1bc6a6" stroke-width="2" d="M180.4,-598.2C216.33,-603.8 259.8,-610.58 296.2,-616.25" style=""/>
<polygon fill="#1bc6a6" stroke="#1bc6a6" stroke-width="2" points="295.35,-619.66 305.77,-617.74 296.43,-612.74 295.35,-619.66" style=""/>
</g>
<!-- Keno.TokenHasPendingBets -->
<g id="node15" class="node" pointer-events="visible" data-name="Keno.TokenHasPendingBets">

<ellipse fill="#edad56" stroke="#edad56" stroke-width="3" cx="372.62" cy="-682" rx="99.6" ry="18" style=""/>
<text text-anchor="middle" x="372.62" y="-677.8" font-family="Times,serif" font-size="14.00" style="">TokenHasPendingBets</text>
</g>
<!-- Keno.updateTokenConfig&#45;&gt;Keno.TokenHasPendingBets -->
<g id="edge3" class="edge" data-name="Keno.updateTokenConfig-&gt;Keno.TokenHasPendingBets">

<path fill="none" stroke="#1bc6a6" stroke-width="2" d="M136.5,-605.22C161.41,-620.64 199.32,-642.21 235,-655 249.04,-660.04 264.26,-664.21 279.26,-667.65" style=""/>
<polygon fill="#1bc6a6" stroke="#1bc6a6" stroke-width="2" points="278.31,-671.03 288.83,-669.73 279.8,-664.19 278.31,-671.03" style=""/>
</g>
<!-- Keno.InvalidSettings -->
<g id="node16" class="node" pointer-events="visible" data-name="Keno.InvalidSettings">

<ellipse fill="#edad56" stroke="#edad56" stroke-width="3" cx="372.62" cy="-520" rx="69.52" ry="18" style=""/>
<text text-anchor="middle" x="372.62" y="-515.8" font-family="Times,serif" font-size="14.00" style="">InvalidSettings</text>
</g>
<!-- Keno.updateTokenConfig&#45;&gt;Keno.InvalidSettings -->
<g id="edge4" class="edge" data-name="Keno.updateTokenConfig-&gt;Keno.InvalidSettings">

<path fill="none" stroke="#1bc6a6" stroke-width="2" d="M155.89,-570.64C179.49,-562.84 208.56,-553.77 235,-547 255.85,-541.66 278.72,-536.77 299.68,-532.66" style=""/>
<polygon fill="#1bc6a6" stroke="#1bc6a6" stroke-width="2" points="300.32,-536.1 309.48,-530.78 299,-529.23 300.32,-536.1" style=""/>
</g>
<!-- Keno._getPayout -->
<g id="node4" class="node" pointer-events="visible" data-name="Keno._getPayout">

<ellipse fill="#edad56" stroke="#edad56" stroke-width="3" cx="372.62" cy="-304" rx="54.48" ry="18" style=""/>
<text text-anchor="middle" x="372.62" y="-299.8" font-family="Times,serif" font-size="14.00" style="">_getPayout</text>
</g>
<!-- Keno.wager -->
<g id="node5" class="node" pointer-events="visible" data-name="Keno.wager">

<ellipse fill="#ffbdb9" stroke="brown" stroke-width="3" cx="107.5" cy="-358" rx="34.75" ry="18" style=""/>
<text text-anchor="middle" x="107.5" y="-353.8" font-family="Times,serif" font-size="14.00" style="">wager</text>
</g>
<!-- Keno.wager&#45;&gt;Keno._getPayout -->
<g id="edge10" class="edge" data-name="Keno.wager-&gt;Keno._getPayout">

<path fill="none" stroke="#1bc6a6" stroke-width="2" d="M141.23,-350.87C166.76,-345.35 203.1,-337.56 235,-331 259.78,-325.91 287.12,-320.47 310.8,-315.82" style=""/>
<polygon fill="#1bc6a6" stroke="#1bc6a6" stroke-width="2" points="311.42,-319.26 320.56,-313.9 310.07,-312.39 311.42,-319.26" style=""/>
</g>
<!-- Keno._countNumbers -->
<g id="node6" class="node" pointer-events="visible" data-name="Keno._countNumbers">

<ellipse fill="#edad56" stroke="#edad56" stroke-width="3" cx="372.62" cy="-250" rx="72.94" ry="18" style=""/>
<text text-anchor="middle" x="372.62" y="-245.8" font-family="Times,serif" font-size="14.00" style="">_countNumbers</text>
</g>
<!-- Keno.wager&#45;&gt;Keno._countNumbers -->
<g id="edge7" class="edge" data-name="Keno.wager-&gt;Keno._countNumbers">

<path fill="none" stroke="#1bc6a6" stroke-width="2" d="M127.81,-342.32C151.58,-323.83 193.87,-293.54 235,-277 252.94,-269.78 273.02,-264.44 292.14,-260.5" style=""/>
<polygon fill="#1bc6a6" stroke="#1bc6a6" stroke-width="2" points="292.72,-263.96 301.88,-258.63 291.4,-257.08 292.72,-263.96" style=""/>
</g>
<!-- Keno.NumbersNotInRange -->
<g id="node17" class="node" pointer-events="visible" data-name="Keno.NumbersNotInRange">

<ellipse fill="#edad56" stroke="#edad56" stroke-width="3" cx="372.62" cy="-466" rx="93.78" ry="18" style=""/>
<text text-anchor="middle" x="372.62" y="-461.8" font-family="Times,serif" font-size="14.00" style="">NumbersNotInRange</text>
</g>
<!-- Keno.wager&#45;&gt;Keno.NumbersNotInRange -->
<g id="edge6" class="edge" data-name="Keno.wager-&gt;Keno.NumbersNotInRange">

<path fill="none" stroke="#1bc6a6" stroke-width="2" d="M127.81,-373.68C151.58,-392.17 193.87,-422.46 235,-439 249.25,-444.73 264.84,-449.28 280.22,-452.88" style=""/>
<polygon fill="#1bc6a6" stroke="#1bc6a6" stroke-width="2" points="279.02,-456.2 289.53,-454.92 280.51,-449.36 279.02,-456.2" style=""/>
</g>
<!-- Keno.TooManyNumbersPlayed -->
<g id="node18" class="node" pointer-events="visible" data-name="Keno.TooManyNumbersPlayed">

<ellipse fill="#edad56" stroke="#edad56" stroke-width="3" cx="372.62" cy="-358" rx="110.62" ry="18" style=""/>
<text text-anchor="middle" x="372.62" y="-353.8" font-family="Times,serif" font-size="14.00" style="">TooManyNumbersPlayed</text>
</g>
<!-- Keno.wager&#45;&gt;Keno.TooManyNumbersPlayed -->
<g id="edge8" class="edge" data-name="Keno.wager-&gt;Keno.TooManyNumbersPlayed">

<path fill="none" stroke="#1bc6a6" stroke-width="2" d="M143.71,-358C170.7,-358 209.66,-358 247.76,-358" style=""/>
<polygon fill="#1bc6a6" stroke="#1bc6a6" stroke-width="2" points="247.6,-361.5 257.6,-358 247.6,-354.5 247.6,-361.5" style=""/>
</g>
<!-- Keno._newBet -->
<g id="node19" class="node" pointer-events="visible" data-name="Keno._newBet">

<ellipse fill="#edad56" stroke="#edad56" stroke-width="3" cx="372.62" cy="-412" rx="45.23" ry="18" style=""/>
<text text-anchor="middle" x="372.62" y="-407.8" font-family="Times,serif" font-size="14.00" style="">_newBet</text>
</g>
<!-- Keno.wager&#45;&gt;Keno._newBet -->
<g id="edge9" class="edge" data-name="Keno.wager-&gt;Keno._newBet">

<path fill="none" stroke="#1bc6a6" stroke-width="2" d="M141.23,-365.13C166.76,-370.65 203.1,-378.44 235,-385 262.22,-390.6 292.55,-396.61 317.7,-401.54" style=""/>
<polygon fill="#1bc6a6" stroke="#1bc6a6" stroke-width="2" points="316.88,-404.95 327.36,-403.43 318.22,-398.08 316.88,-404.95" style=""/>
</g>
<!-- Keno.fulfillRandomWords -->
<g id="node7" class="node" pointer-events="visible" data-name="Keno.fulfillRandomWords">

<ellipse fill="#f2c383" stroke="#f2c383" stroke-width="3" cx="107.5" cy="-223" rx="91.5" ry="18" style=""/>
<text text-anchor="middle" x="107.5" y="-218.8" font-family="Times,serif" font-size="14.00" style="">fulfillRandomWords</text>
</g>
<!-- Keno.fulfillRandomWords&#45;&gt;Keno._getPayout -->
<g id="edge12" class="edge" data-name="Keno.fulfillRandomWords-&gt;Keno._getPayout">

<path fill="none" stroke="#1bc6a6" stroke-width="2" d="M144.55,-240.78C169.46,-252.46 203.62,-267.32 235,-277 258.58,-284.28 285.09,-290.05 308.43,-294.35" style=""/>
<polygon fill="#1bc6a6" stroke="#1bc6a6" stroke-width="2" points="307.59,-297.76 318.05,-296.06 308.82,-290.86 307.59,-297.76" style=""/>
</g>
<!-- Keno.fulfillRandomWords&#45;&gt;Keno._countNumbers -->
<g id="edge13" class="edge" data-name="Keno.fulfillRandomWords-&gt;Keno._countNumbers">

<path fill="none" stroke="#1bc6a6" stroke-width="2" d="M199.42,-225.87C232.58,-228.78 269.56,-232.71 300.73,-236.66" style=""/>
<polygon fill="#1bc6a6" stroke="#1bc6a6" stroke-width="2" points="299.88,-240.08 310.25,-237.9 300.79,-233.14 299.88,-240.08" style=""/>
</g>
<!-- Keno.fulfillRandomWords&#45;&gt;Keno._countNumbers -->
<g id="edge14" class="edge" data-name="Keno.fulfillRandomWords-&gt;Keno._countNumbers">

<path fill="none" stroke="#1bc6a6" stroke-width="2" d="M176.6,-235.99C209.96,-240.27 250.48,-244.55 285.93,-247.58" style=""/>
<polygon fill="#1bc6a6" stroke="#1bc6a6" stroke-width="2" points="285.46,-251.05 295.71,-248.39 286.04,-244.08 285.46,-251.05" style=""/>
</g>
<!-- Keno.getNumbersOutOfRandomWord -->
<g id="node12" class="node" pointer-events="visible" data-name="Keno.getNumbersOutOfRandomWord">

<ellipse fill="#edad56" stroke="#edad56" stroke-width="3" cx="372.62" cy="-142" rx="137.75" ry="18" style=""/>
<text text-anchor="middle" x="372.62" y="-137.8" font-family="Times,serif" font-size="14.00" style="">getNumbersOutOfRandomWord</text>
</g>
<!-- Keno.fulfillRandomWords&#45;&gt;Keno.getNumbersOutOfRandomWord -->
<g id="edge11" class="edge" data-name="Keno.fulfillRandomWords-&gt;Keno.getNumbersOutOfRandomWord">

<path fill="none" stroke="#1bc6a6" stroke-width="2" d="M144.55,-205.22C169.46,-193.54 203.62,-178.68 235,-169 246.23,-165.53 258.12,-162.41 270.02,-159.63" style=""/>
<polygon fill="#1bc6a6" stroke="#1bc6a6" stroke-width="2" points="270.45,-163.12 279.44,-157.51 268.91,-156.29 270.45,-163.12" style=""/>
</g>
<!-- Keno._resolveBet -->
<g id="node20" class="node" pointer-events="visible" data-name="Keno._resolveBet">

<ellipse fill="#edad56" stroke="#edad56" stroke-width="3" cx="372.62" cy="-196" rx="57.32" ry="18" style=""/>
<text text-anchor="middle" x="372.62" y="-191.8" font-family="Times,serif" font-size="14.00" style="">_resolveBet</text>
</g>
<!-- Keno.fulfillRandomWords&#45;&gt;Keno._resolveBet -->
<g id="edge15" class="edge" data-name="Keno.fulfillRandomWords-&gt;Keno._resolveBet">

<path fill="none" stroke="#1bc6a6" stroke-width="2" d="M191.03,-214.53C227.25,-210.81 269.25,-206.5 303.63,-202.98" style=""/>
<polygon fill="#1bc6a6" stroke="#1bc6a6" stroke-width="2" points="303.8,-206.48 313.39,-201.98 303.08,-199.51 303.8,-206.48" style=""/>
</g>
<!-- Keno._accountVRFCost -->
<g id="node21" class="node" pointer-events="visible" data-name="Keno._accountVRFCost">

<ellipse fill="#edad56" stroke="#edad56" stroke-width="3" cx="372.62" cy="-88" rx="82.28" ry="18" style=""/>
<text text-anchor="middle" x="372.62" y="-83.8" font-family="Times,serif" font-size="14.00" style="">_accountVRFCost</text>
</g>
<!-- Keno.fulfillRandomWords&#45;&gt;Keno._accountVRFCost -->
<g id="edge16" class="edge" data-name="Keno.fulfillRandomWords-&gt;Keno._accountVRFCost">

<path fill="none" stroke="#1bc6a6" stroke-width="2" d="M146.3,-205.34C163.6,-196.09 183.62,-183.63 199,-169 219.9,-149.12 211.01,-131.02 235,-115 248.24,-106.15 263.72,-100.07 279.4,-95.91" style=""/>
<polygon fill="#1bc6a6" stroke="#1bc6a6" stroke-width="2" points="280.1,-99.35 289.04,-93.67 278.51,-92.53 280.1,-99.35" style=""/>
</g>
<!-- Keno._fact -->
<g id="node8" class="node" pointer-events="visible" data-name="Keno._fact">

<ellipse fill="#edad56" stroke="#edad56" stroke-width="3" cx="776.4" cy="-574" rx="30.17" ry="18" style=""/>
<text text-anchor="middle" x="776.4" y="-569.8" font-family="Times,serif" font-size="14.00" style="">_fact</text>
</g>
<!-- Keno._outof -->
<g id="node9" class="node" pointer-events="visible" data-name="Keno._outof">

<ellipse fill="#edad56" stroke="#edad56" stroke-width="3" cx="673.82" cy="-574" rx="36.5" ry="18" style=""/>
<text text-anchor="middle" x="673.82" y="-569.8" font-family="Times,serif" font-size="14.00" style="">_outof</text>
</g>
<!-- Keno._outof&#45;&gt;Keno._fact -->
<g id="edge17" class="edge" data-name="Keno._outof-&gt;Keno._fact">

<path fill="none" stroke="#1bc6a6" stroke-width="2" d="M703.11,-561.72C714.17,-560.41 727,-560.16 738.75,-560.95" style=""/>
<polygon fill="#1bc6a6" stroke="#1bc6a6" stroke-width="2" points="738.09,-564.4 748.4,-561.98 738.83,-557.44 738.09,-564.4" style=""/>
</g>
<!-- Keno._outof&#45;&gt;Keno._fact -->
<g id="edge18" class="edge" data-name="Keno._outof-&gt;Keno._fact">

<path fill="none" stroke="#1bc6a6" stroke-width="2" d="M711.7,-574C718.25,-574 725.12,-574 731.82,-574" style=""/>
<polygon fill="#1bc6a6" stroke="#1bc6a6" stroke-width="2" points="731.77,-577.5 741.77,-574 731.77,-570.5 731.77,-577.5" style=""/>
</g>
<!-- Keno._outof&#45;&gt;Keno._fact -->
<g id="edge19" class="edge" data-name="Keno._outof-&gt;Keno._fact">

<path fill="none" stroke="#1bc6a6" stroke-width="2" d="M703.11,-586.28C714.17,-587.59 727,-587.84 738.75,-587.05" style=""/>
<polygon fill="#1bc6a6" stroke="#1bc6a6" stroke-width="2" points="738.83,-590.56 748.4,-586.02 738.09,-583.6 738.83,-590.56" style=""/>
</g>
<!-- Keno.gain&#45;&gt;Keno._outof -->
<g id="edge20" class="edge" data-name="Keno.gain-&gt;Keno._outof">

<path fill="none" stroke="#1bc6a6" stroke-width="2" d="M597.12,-562.48C607.37,-560.79 619.88,-560.18 631.75,-560.66" style=""/>
<polygon fill="#1bc6a6" stroke="#1bc6a6" stroke-width="2" points="631.47,-564.15 641.7,-561.42 632,-557.17 631.47,-564.15" style=""/>
</g>
<!-- Keno.gain&#45;&gt;Keno._outof -->
<g id="edge21" class="edge" data-name="Keno.gain-&gt;Keno._outof">

<path fill="none" stroke="#1bc6a6" stroke-width="2" d="M603.23,-574C609.49,-574 616.31,-574 623.14,-574" style=""/>
<polygon fill="#1bc6a6" stroke="#1bc6a6" stroke-width="2" points="623.14,-577.5 633.14,-574 623.14,-570.5 623.14,-577.5" style=""/>
</g>
<!-- Keno.gain&#45;&gt;Keno._outof -->
<g id="edge22" class="edge" data-name="Keno.gain-&gt;Keno._outof">

<path fill="none" stroke="#1bc6a6" stroke-width="2" d="M597.12,-585.52C607.37,-587.21 619.88,-587.82 631.75,-587.34" style=""/>
<polygon fill="#1bc6a6" stroke="#1bc6a6" stroke-width="2" points="632,-590.83 641.7,-586.58 631.47,-583.85 632,-590.83" style=""/>
</g>
<!-- Keno.gains -->
<g id="node11" class="node" pointer-events="visible" data-name="Keno.gains">

<ellipse fill="#ffbdb9" stroke="#ffbdb9" stroke-width="3" cx="107.5" cy="-142" rx="31.34" ry="18" style=""/>
<text text-anchor="middle" x="107.5" y="-137.8" font-family="Times,serif" font-size="14.00" style="">gains</text>
</g>
<!-- Keno.getLastUserBets -->
<g id="node13" class="node" pointer-events="visible" data-name="Keno.getLastUserBets">

<ellipse fill="#ffbdb9" stroke="#ffbdb9" stroke-width="3" cx="107.5" cy="-34" rx="74.73" ry="18" style=""/>
<text text-anchor="middle" x="107.5" y="-29.8" font-family="Times,serif" font-size="14.00" style="">getLastUserBets</text>
</g>
<!-- Keno._getLastUserBets -->
<g id="node22" class="node" pointer-events="visible" data-name="Keno._getLastUserBets">

<ellipse fill="#edad56" stroke="#edad56" stroke-width="3" cx="372.62" cy="-34" rx="79.88" ry="18" style=""/>
<text text-anchor="middle" x="372.62" y="-29.8" font-family="Times,serif" font-size="14.00" style="">_getLastUserBets</text>
</g>
<!-- Keno.getLastUserBets&#45;&gt;Keno._getLastUserBets -->
<g id="edge23" class="edge" data-name="Keno.getLastUserBets-&gt;Keno._getLastUserBets">

<path fill="none" stroke="#1bc6a6" stroke-width="2" d="M183.55,-34C213.18,-34 247.55,-34 278.73,-34" style=""/>
<polygon fill="#1bc6a6" stroke="#1bc6a6" stroke-width="2" points="278.39,-37.5 288.39,-34 278.39,-30.5 278.39,-37.5" style=""/>
</g>
<!-- key -->
<g id="node23" class="node" pointer-events="visible" data-name="key">

<polygon fill="#edad56" stroke="none" stroke-width="3" points="172.5,-837 42.5,-837 42.5,-749 172.5,-749 172.5,-837" style=""/>
<text text-anchor="start" x="92.14" y="-818.4" font-family="Times,serif" font-size="14.00" style="">Internal Call</text>
<text text-anchor="start" x="88.25" y="-798.4" font-family="Times,serif" font-size="14.00" style="">External Call</text>
<text text-anchor="start" x="65.7" y="-778.4" font-family="Times,serif" font-size="14.00" style="">Defined Contract</text>
<text text-anchor="start" x="52.1" y="-758.4" font-family="Times,serif" font-size="14.00" style="">Undefined Contract</text>
</g>
<!-- key2 -->
<g id="node24" class="node" pointer-events="visible" data-name="key2">

<polygon fill="#edad56" stroke="none" stroke-width="3" points="399.62,-837 345.62,-837 345.62,-749 399.62,-749 399.62,-837" style=""/>
<text text-anchor="start" x="362.62" y="-818.4" font-family="Times,serif" font-size="14.00" style="">   </text>
<text text-anchor="start" x="362.62" y="-798.4" font-family="Times,serif" font-size="14.00" style="">   </text>
<polygon fill="#445773" stroke="none" points="360.62,-773 360.62,-793 385.62,-793 385.62,-773 360.62,-773" style=""/>
<text text-anchor="start" x="362.62" y="-778.4" font-family="Times,serif" font-size="14.00" style="">   </text>
<polygon fill="none" stroke="#e8726d" points="362.62,-755 362.62,-771 383.62,-771 383.62,-755 362.62,-755" style=""/>
</g>
<!-- key&#45;&gt;key2 -->
<g id="edge24" class="edge" data-name="key-&gt;key2">

<path fill="none" stroke="#1bc6a6" stroke-width="2" d="M165.5,-823C247.39,-823 270.99,-823 346.96,-823" style=""/>
<polygon fill="#1bc6a6" stroke="#1bc6a6" stroke-width="2" points="346.59,-826.5 356.59,-823 346.59,-819.5 346.59,-826.5" style=""/>
</g>
<!-- key&#45;&gt;key2 -->
<g id="edge25" class="edge" data-name="key-&gt;key2">

<path fill="none" stroke="white" stroke-width="2" d="M165.5,-803C247.39,-803 270.99,-803 346.96,-803" style=""/>
<polygon fill="white" stroke="white" stroke-width="2" points="346.59,-806.5 356.59,-803 346.59,-799.5 346.59,-806.5" style=""/>
</g>
</g>
</svg>