<?xml version="1.0" standalone="no"?>
<svg xmlns="http://www.w3.org/2000/svg" xmlns:xlink="http://www.w3.org/1999/xlink" width="741pt" height="755pt" viewBox="0.00 0.00 741.39 755.00">
<g id="graph0" class="graph" transform="translate(4,751) scale(1)" data-name="G">

<polygon fill="#2e3e56" stroke="none" points="-4,4 -4,-751 737.39,-751 737.39,4 -4,4" style=""/>
<g id="clust1" class="cluster" data-name="clusterPvPGamesStore">

<path fill="#445773" stroke="#445773" d="M20,-201C20,-201 713.39,-201 713.39,-201 719.39,-201 725.39,-207 725.39,-213 725.39,-213 725.39,-590 725.39,-590 725.39,-596 719.39,-602 713.39,-602 713.39,-602 20,-602 20,-602 14,-602 8,-596 8,-590 8,-590 8,-213 8,-213 8,-207 14,-201 20,-201" style=""/>
<text text-anchor="middle" x="366.69" y="-585.4" font-family="Times,serif" font-size="14.00" fill="#f0f0f0" style="">PvPGamesStore</text>
</g>
<g id="clust2" class="cluster" data-name="clusterIERC20Metadata">

<path fill="#3b4b63" stroke="#e8726d" stroke-dasharray="5,2" d="M594.41,-8C594.41,-8 684.13,-8 684.13,-8 690.13,-8 696.13,-14 696.13,-20 696.13,-20 696.13,-181 696.13,-181 696.13,-187 690.13,-193 684.13,-193 684.13,-193 594.41,-193 594.41,-193 588.41,-193 582.41,-187 582.41,-181 582.41,-181 582.41,-20 582.41,-20 582.41,-14 588.41,-8 594.41,-8" style=""/>
<text text-anchor="middle" x="639.27" y="-176.4" font-family="Times,serif" font-size="14.00" fill="#f0f0f0" style="">IERC20Metadata</text>
</g>
<g id="clust3" class="cluster" data-name="cluster_01">

<polygon fill="#2e3e56" stroke="black" points="78.46,-610 78.46,-739 458.54,-739 458.54,-610 78.46,-610" style=""/>
<text text-anchor="middle" x="268.5" y="-722.4" font-family="Times,serif" font-size="14.00" style="">Legend</text>
</g>
<!-- PvPGamesStore.&lt;Constructor&gt; -->
<g id="node1" class="node" pointer-events="visible" data-name="PvPGamesStore.&lt;Constructor&gt;">

<ellipse fill="#ff9797" stroke="#ff9797" stroke-width="3" cx="151.46" cy="-551" rx="67.55" ry="18" style=""/>
<text text-anchor="middle" x="151.46" y="-546.8" font-family="Times,serif" font-size="14.00" style="">&lt;Constructor&gt;</text>
</g>
<!-- PvPGamesStore.setTeamWallet -->
<g id="node5" class="node" pointer-events="visible" data-name="PvPGamesStore.setTeamWallet">

<ellipse fill="#edad56" stroke="#edad56" stroke-width="3" cx="423.54" cy="-531" rx="69.47" ry="18" style=""/>
<text text-anchor="middle" x="423.54" y="-526.8" font-family="Times,serif" font-size="14.00" style="">setTeamWallet</text>
</g>
<!-- PvPGamesStore.&lt;Constructor&gt;&#45;&gt;PvPGamesStore.setTeamWallet -->
<g id="edge3" class="edge" data-name="PvPGamesStore.&lt;Constructor&gt;-&gt;PvPGamesStore.setTeamWallet">

<path fill="none" stroke="#1bc6a6" stroke-width="2" d="M218.18,-546.13C255.58,-543.36 302.7,-539.87 342.27,-536.94" style=""/>
<polygon fill="#1bc6a6" stroke="#1bc6a6" stroke-width="2" points="342.37,-540.45 352.09,-536.22 341.86,-533.47 342.37,-540.45" style=""/>
</g>
<!-- PvPGamesStore.address -->
<g id="node10" class="node" pointer-events="visible" data-name="PvPGamesStore.address">

<ellipse fill="#edad56" stroke="#edad56" stroke-width="3" cx="638.77" cy="-494" rx="40" ry="18" style=""/>
<text text-anchor="middle" x="638.77" y="-489.8" font-family="Times,serif" font-size="14.00" style="">address</text>
</g>
<!-- PvPGamesStore.&lt;Constructor&gt;&#45;&gt;PvPGamesStore.address -->
<g id="edge1" class="edge" data-name="PvPGamesStore.&lt;Constructor&gt;-&gt;PvPGamesStore.address">

<path fill="none" stroke="#1bc6a6" stroke-width="2" d="M213.8,-542.79C237.13,-538.61 263.68,-532.55 286.92,-524 304.1,-517.68 305.28,-508.87 322.92,-504 412.74,-479.2 522.46,-482.98 585.81,-488.28" style=""/>
<polygon fill="#1bc6a6" stroke="#1bc6a6" stroke-width="2" points="585.32,-491.75 595.59,-489.16 585.94,-484.78 585.32,-491.75" style=""/>
</g>
<!-- PvPGamesStore.InvalidAddress -->
<g id="node11" class="node" pointer-events="visible" data-name="PvPGamesStore.InvalidAddress">

<ellipse fill="#edad56" stroke="#edad56" stroke-width="3" cx="638.77" cy="-549" rx="70.08" ry="18" style=""/>
<text text-anchor="middle" x="638.77" y="-544.8" font-family="Times,serif" font-size="14.00" style="">InvalidAddress</text>
</g>
<!-- PvPGamesStore.&lt;Constructor&gt;&#45;&gt;PvPGamesStore.InvalidAddress -->
<g id="edge2" class="edge" data-name="PvPGamesStore.&lt;Constructor&gt;-&gt;PvPGamesStore.InvalidAddress">

<path fill="none" stroke="#1bc6a6" stroke-width="2" d="M219.29,-554.6C293.72,-558.07 417.58,-562.21 524.15,-558 535.22,-557.56 546.87,-556.89 558.33,-556.1" style=""/>
<polygon fill="#1bc6a6" stroke="#1bc6a6" stroke-width="2" points="558.4,-559.6 568.12,-555.38 557.89,-552.62 558.4,-559.6" style=""/>
</g>
<!-- PvPGamesStore.setHouseEdgeSplit -->
<g id="node2" class="node" pointer-events="visible" data-name="PvPGamesStore.setHouseEdgeSplit">

<ellipse fill="#ffbdb9" stroke="#ffbdb9" stroke-width="3" cx="151.46" cy="-497" rx="84.56" ry="18" style=""/>
<text text-anchor="middle" x="151.46" y="-492.8" font-family="Times,serif" font-size="14.00" style="">setHouseEdgeSplit</text>
</g>
<!-- PvPGamesStore.WrongHouseEdgeSplit -->
<g id="node12" class="node" pointer-events="visible" data-name="PvPGamesStore.WrongHouseEdgeSplit">

<ellipse fill="#edad56" stroke="#edad56" stroke-width="3" cx="423.54" cy="-457" rx="100.74" ry="18" style=""/>
<text text-anchor="middle" x="423.54" y="-452.8" font-family="Times,serif" font-size="14.00" style="">WrongHouseEdgeSplit</text>
</g>
<!-- PvPGamesStore.setHouseEdgeSplit&#45;&gt;PvPGamesStore.WrongHouseEdgeSplit -->
<g id="edge4" class="edge" data-name="PvPGamesStore.setHouseEdgeSplit-&gt;PvPGamesStore.WrongHouseEdgeSplit">

<path fill="none" stroke="#1bc6a6" stroke-width="2" d="M223.77,-486.44C256.34,-481.61 295.33,-475.84 330.11,-470.69" style=""/>
<polygon fill="#1bc6a6" stroke="#1bc6a6" stroke-width="2" points="330.35,-474.19 339.72,-469.26 329.32,-467.27 330.35,-474.19" style=""/>
</g>
<!-- PvPGamesStore.addToken -->
<g id="node3" class="node" pointer-events="visible" data-name="PvPGamesStore.addToken">

<ellipse fill="#ffbdb9" stroke="#ffbdb9" stroke-width="3" cx="151.46" cy="-443" rx="49.8" ry="18" style=""/>
<text text-anchor="middle" x="151.46" y="-438.8" font-family="Times,serif" font-size="14.00" style="">addToken</text>
</g>
<!-- PvPGamesStore.TokenExists -->
<g id="node13" class="node" pointer-events="visible" data-name="PvPGamesStore.TokenExists">

<ellipse fill="#edad56" stroke="#edad56" stroke-width="3" cx="423.54" cy="-403" rx="59.13" ry="18" style=""/>
<text text-anchor="middle" x="423.54" y="-398.8" font-family="Times,serif" font-size="14.00" style="">TokenExists</text>
</g>
<!-- PvPGamesStore.addToken&#45;&gt;PvPGamesStore.TokenExists -->
<g id="edge5" class="edge" data-name="PvPGamesStore.addToken-&gt;PvPGamesStore.TokenExists">

<path fill="none" stroke="#1bc6a6" stroke-width="2" d="M199.19,-436.08C242.44,-429.67 307.19,-420.08 355.85,-412.88" style=""/>
<polygon fill="#1bc6a6" stroke="#1bc6a6" stroke-width="2" points="356.11,-416.38 365.49,-411.45 355.09,-409.45 356.11,-416.38" style=""/>
</g>
<!-- PvPGamesStore.setVRFSubId -->
<g id="node4" class="node" pointer-events="visible" data-name="PvPGamesStore.setVRFSubId">

<ellipse fill="#ff9797" stroke="#ff9797" stroke-width="3" cx="151.46" cy="-389" rx="63.74" ry="18" style=""/>
<text text-anchor="middle" x="151.46" y="-384.8" font-family="Times,serif" font-size="14.00" style="">setVRFSubId</text>
</g>
<!-- PvPGamesStore.setTeamWallet&#45;&gt;PvPGamesStore.address -->
<g id="edge6" class="edge" data-name="PvPGamesStore.setTeamWallet-&gt;PvPGamesStore.address">

<path fill="none" stroke="#1bc6a6" stroke-width="2" d="M483.65,-520.74C516.22,-515.09 556.22,-508.15 587.31,-502.76" style=""/>
<polygon fill="#1bc6a6" stroke="#1bc6a6" stroke-width="2" points="587.81,-506.22 597.06,-501.06 586.61,-499.33 587.81,-506.22" style=""/>
</g>
<!-- PvPGamesStore.setTeamWallet&#45;&gt;PvPGamesStore.InvalidAddress -->
<g id="edge7" class="edge" data-name="PvPGamesStore.setTeamWallet-&gt;PvPGamesStore.InvalidAddress">

<path fill="none" stroke="#1bc6a6" stroke-width="2" d="M491.42,-536.65C512.35,-538.41 535.67,-540.38 557.43,-542.22" style=""/>
<polygon fill="#1bc6a6" stroke="#1bc6a6" stroke-width="2" points="557.12,-545.7 567.37,-543.06 557.7,-538.73 557.12,-545.7" style=""/>
</g>
<!-- PvPGamesStore.getTokens -->
<g id="node6" class="node" pointer-events="visible" data-name="PvPGamesStore.getTokens">

<ellipse fill="#ffbdb9" stroke="#ffbdb9" stroke-width="3" cx="423.54" cy="-227" rx="51.03" ry="18" style=""/>
<text text-anchor="middle" x="423.54" y="-222.8" font-family="Times,serif" font-size="14.00" style="">getTokens</text>
</g>
<!-- PvPGamesStore.getTokens&#45;&gt;PvPGamesStore.address -->
<g id="edge8" class="edge" data-name="PvPGamesStore.getTokens-&gt;PvPGamesStore.address">

<path fill="none" stroke="#1bc6a6" stroke-width="2" d="M439.19,-245.35C475.89,-291.3 571.9,-411.52 615.57,-466.2" style=""/>
<polygon fill="#1bc6a6" stroke="#1bc6a6" stroke-width="2" points="612.71,-468.23 621.68,-473.86 618.18,-463.86 612.71,-468.23" style=""/>
</g>
<!-- PvPGamesStore.TokenMetadata -->
<g id="node14" class="node" pointer-events="visible" data-name="PvPGamesStore.TokenMetadata">

<ellipse fill="#edad56" stroke="#edad56" stroke-width="3" cx="638.77" cy="-281" rx="71.77" ry="18" style=""/>
<text text-anchor="middle" x="638.77" y="-276.8" font-family="Times,serif" font-size="14.00" style="">TokenMetadata</text>
</g>
<!-- PvPGamesStore.getTokens&#45;&gt;PvPGamesStore.TokenMetadata -->
<g id="edge9" class="edge" data-name="PvPGamesStore.getTokens-&gt;PvPGamesStore.TokenMetadata">

<path fill="none" stroke="#1bc6a6" stroke-width="2" d="M472.92,-233.49C506.19,-240.66 550.37,-251.79 584.62,-261.61" style=""/>
<polygon fill="#1bc6a6" stroke="#1bc6a6" stroke-width="2" points="583.27,-264.86 593.85,-264.31 585.23,-258.14 583.27,-264.86" style=""/>
</g>
<!-- PvPGamesStore.getTokens&#45;&gt;PvPGamesStore.TokenMetadata -->
<g id="edge11" class="edge" data-name="PvPGamesStore.getTokens-&gt;PvPGamesStore.TokenMetadata">

<path fill="none" stroke="#1bc6a6" stroke-width="2" d="M459.75,-241.08C487.67,-249.64 527.67,-260.21 562.69,-268.47" style=""/>
<polygon fill="#1bc6a6" stroke="#1bc6a6" stroke-width="2" points="561.86,-271.87 572.39,-270.71 563.44,-265.05 561.86,-271.87" style=""/>
</g>
<!-- PvPGamesStore.IERC20Metadata -->
<g id="node15" class="node" pointer-events="visible" data-name="PvPGamesStore.IERC20Metadata">

<ellipse fill="#edad56" stroke="#edad56" stroke-width="3" cx="638.77" cy="-227" rx="78.73" ry="18" style=""/>
<text text-anchor="middle" x="638.77" y="-222.8" font-family="Times,serif" font-size="14.00" style="">IERC20Metadata</text>
</g>
<!-- PvPGamesStore.getTokens&#45;&gt;PvPGamesStore.IERC20Metadata -->
<g id="edge10" class="edge" data-name="PvPGamesStore.getTokens-&gt;PvPGamesStore.IERC20Metadata">

<path fill="none" stroke="#1bc6a6" stroke-width="2" d="M475.88,-227C496.88,-227 521.83,-227 545.77,-227" style=""/>
<polygon fill="#1bc6a6" stroke="#1bc6a6" stroke-width="2" points="545.53,-230.5 555.53,-227 545.53,-223.5 545.53,-230.5" style=""/>
</g>
<!-- IERC20Metadata.decimals -->
<g id="node16" class="node" pointer-events="visible" data-name="IERC20Metadata.decimals">

<ellipse fill="#edad56" stroke="#edad56" stroke-width="3" cx="638.77" cy="-142" rx="45.22" ry="18" style=""/>
<text text-anchor="middle" x="638.77" y="-137.8" font-family="Times,serif" font-size="14.00" style="">decimals</text>
</g>
<!-- PvPGamesStore.getTokens&#45;&gt;IERC20Metadata.decimals -->
<g id="edge12" class="edge" data-name="PvPGamesStore.getTokens-&gt;IERC20Metadata.decimals">

<path fill="none" stroke="white" stroke-width="2" d="M459.75,-212.96C496.12,-198.47 553,-175.79 592.65,-159.99" style=""/>
<polygon fill="white" stroke="white" stroke-width="2" points="593.81,-163.29 601.8,-156.34 591.22,-156.79 593.81,-163.29" style=""/>
</g>
<!-- IERC20Metadata.name -->
<g id="node17" class="node" pointer-events="visible" data-name="IERC20Metadata.name">

<ellipse fill="#edad56" stroke="#edad56" stroke-width="3" cx="638.77" cy="-88" rx="31.9" ry="18" style=""/>
<text text-anchor="middle" x="638.77" y="-83.8" font-family="Times,serif" font-size="14.00" style="">name</text>
</g>
<!-- PvPGamesStore.getTokens&#45;&gt;IERC20Metadata.name -->
<g id="edge13" class="edge" data-name="PvPGamesStore.getTokens-&gt;IERC20Metadata.name">

<path fill="none" stroke="white" stroke-width="2" d="M441.85,-209.16C466.25,-184.9 513.05,-141.5 560.15,-115 571.32,-108.72 584.2,-103.52 596.23,-99.42" style=""/>
<polygon fill="white" stroke="white" stroke-width="2" points="596.99,-102.85 605.45,-96.47 594.86,-96.18 596.99,-102.85" style=""/>
</g>
<!-- IERC20Metadata.symbol -->
<g id="node18" class="node" pointer-events="visible" data-name="IERC20Metadata.symbol">

<ellipse fill="#edad56" stroke="#edad56" stroke-width="3" cx="638.77" cy="-34" rx="39.45" ry="18" style=""/>
<text text-anchor="middle" x="638.77" y="-29.8" font-family="Times,serif" font-size="14.00" style="">symbol</text>
</g>
<!-- PvPGamesStore.getTokens&#45;&gt;IERC20Metadata.symbol -->
<g id="edge14" class="edge" data-name="PvPGamesStore.getTokens-&gt;IERC20Metadata.symbol">

<path fill="none" stroke="white" stroke-width="2" d="M435.06,-208.21C455.08,-174.09 501.91,-101.74 560.15,-61 568.97,-54.84 579.31,-49.96 589.53,-46.15" style=""/>
<polygon fill="white" stroke="white" stroke-width="2" points="590.59,-49.49 598.95,-42.98 588.36,-42.86 590.59,-49.49" style=""/>
</g>
<!-- PvPGamesStore.getTokensAddresses -->
<g id="node7" class="node" pointer-events="visible" data-name="PvPGamesStore.getTokensAddresses">

<ellipse fill="#ffbdb9" stroke="#ffbdb9" stroke-width="3" cx="151.46" cy="-335" rx="90.91" ry="18" style=""/>
<text text-anchor="middle" x="151.46" y="-330.8" font-family="Times,serif" font-size="14.00" style="">getTokensAddresses</text>
</g>
<!-- PvPGamesStore.getTokenConfig -->
<g id="node8" class="node" pointer-events="visible" data-name="PvPGamesStore.getTokenConfig">

<ellipse fill="#ff9797" stroke="#ff9797" stroke-width="3" cx="151.46" cy="-281" rx="74.16" ry="18" style=""/>
<text text-anchor="middle" x="151.46" y="-276.8" font-family="Times,serif" font-size="14.00" style="">getTokenConfig</text>
</g>
<!-- PvPGamesStore.getTreasuryAndTeamAddresses -->
<g id="node9" class="node" pointer-events="visible" data-name="PvPGamesStore.getTreasuryAndTeamAddresses">

<ellipse fill="#ff9797" stroke="#ff9797" stroke-width="3" cx="151.46" cy="-227" rx="135.42" ry="18" style=""/>
<text text-anchor="middle" x="151.46" y="-222.8" font-family="Times,serif" font-size="14.00" style="">getTreasuryAndTeamAddresses</text>
</g>
<!-- key -->
<g id="node19" class="node" pointer-events="visible" data-name="key">

<polygon fill="#edad56" stroke="none" stroke-width="3" points="216.46,-706 86.46,-706 86.46,-618 216.46,-618 216.46,-706" style=""/>
<text text-anchor="start" x="136.1" y="-687.4" font-family="Times,serif" font-size="14.00" style="">Internal Call</text>
<text text-anchor="start" x="132.21" y="-667.4" font-family="Times,serif" font-size="14.00" style="">External Call</text>
<text text-anchor="start" x="109.66" y="-647.4" font-family="Times,serif" font-size="14.00" style="">Defined Contract</text>
<text text-anchor="start" x="96.06" y="-627.4" font-family="Times,serif" font-size="14.00" style="">Undefined Contract</text>
</g>
<!-- key2 -->
<g id="node20" class="node" pointer-events="visible" data-name="key2">

<polygon fill="#edad56" stroke="none" stroke-width="3" points="450.54,-706 396.54,-706 396.54,-618 450.54,-618 450.54,-706" style=""/>
<text text-anchor="start" x="413.54" y="-687.4" font-family="Times,serif" font-size="14.00" style="">   </text>
<text text-anchor="start" x="413.54" y="-667.4" font-family="Times,serif" font-size="14.00" style="">   </text>
<polygon fill="#445773" stroke="none" points="411.54,-642 411.54,-662 436.54,-662 436.54,-642 411.54,-642" style=""/>
<text text-anchor="start" x="413.54" y="-647.4" font-family="Times,serif" font-size="14.00" style="">   </text>
<polygon fill="none" stroke="#e8726d" points="413.54,-624 413.54,-640 434.54,-640 434.54,-624 413.54,-624" style=""/>
</g>
<!-- key&#45;&gt;key2 -->
<g id="edge15" class="edge" data-name="key-&gt;key2">

<path fill="none" stroke="#1bc6a6" stroke-width="2" d="M209.46,-692C294.46,-692 318.83,-692 397.91,-692" style=""/>
<polygon fill="#1bc6a6" stroke="#1bc6a6" stroke-width="2" points="397.51,-695.5 407.51,-692 397.51,-688.5 397.51,-695.5" style=""/>
</g>
<!-- key&#45;&gt;key2 -->
<g id="edge16" class="edge" data-name="key-&gt;key2">

<path fill="none" stroke="white" stroke-width="2" d="M209.46,-672C294.46,-672 318.83,-672 397.91,-672" style=""/>
<polygon fill="white" stroke="white" stroke-width="2" points="397.51,-675.5 407.51,-672 397.51,-668.5 397.51,-675.5" style=""/>
</g>
</g>
</svg>