<?xml version="1.0" standalone="no"?>
<svg xmlns="http://www.w3.org/2000/svg" xmlns:xlink="http://www.w3.org/1999/xlink" width="734pt" height="917pt" viewBox="0.00 0.00 733.79 917.00">
<g id="graph0" class="graph" transform="translate(4,913) scale(1)" data-name="G">

<polygon fill="#2e3e56" stroke="transparent" points="-4,4 -4,-913 729.79,-913 729.79,4 -4,4" style=""/>
<g id="clust1" class="cluster" data-name="clusterIReferral">

<path fill="#445773" stroke="#445773" d="M20,-8C20,-8 213.18,-8 213.18,-8 219.18,-8 225.18,-14 225.18,-20 225.18,-20 225.18,-235 225.18,-235 225.18,-241 219.18,-247 213.18,-247 213.18,-247 20,-247 20,-247 14,-247 8,-241 8,-235 8,-235 8,-20 8,-20 8,-14 14,-8 20,-8" style=""/>
<text text-anchor="middle" x="116.59" y="-230.4" font-family="Times,serif" font-size="14.00" fill="#f0f0f0" style="">IReferral  (iface)</text>
</g>
<g id="clust2" class="cluster" data-name="clusterReferral">

<path fill="#445773" stroke="#445773" d="M20,-255C20,-255 705.79,-255 705.79,-255 711.79,-255 717.79,-261 717.79,-267 717.79,-267 717.79,-752 717.79,-752 717.79,-758 711.79,-764 705.79,-764 705.79,-764 20,-764 20,-764 14,-764 8,-758 8,-752 8,-752 8,-267 8,-267 8,-261 14,-255 20,-255" style=""/>
<text text-anchor="middle" x="362.89" y="-747.4" font-family="Times,serif" font-size="14.00" fill="#f0f0f0" style="">Referral</text>
</g>
<g id="clust3" class="cluster" data-name="clusterpayee">

<path fill="#3b4b63" stroke="#e8726d" stroke-dasharray="5,2" d="M316.71,-170C316.71,-170 389.76,-170 389.76,-170 395.76,-170 401.76,-176 401.76,-182 401.76,-182 401.76,-235 401.76,-235 401.76,-241 395.76,-247 389.76,-247 389.76,-247 316.71,-247 316.71,-247 310.71,-247 304.71,-241 304.71,-235 304.71,-235 304.71,-182 304.71,-182 304.71,-176 310.71,-170 316.71,-170" style=""/>
<text text-anchor="middle" x="353.24" y="-230.4" font-family="Times,serif" font-size="14.00" fill="#f0f0f0" style="">payee</text>
</g>
<g id="clust4" class="cluster" data-name="cluster_01">

<polygon fill="#2e3e56" stroke="black" points="43.59,-772 43.59,-901 388.24,-901 388.24,-772 43.59,-772" style=""/>
<text text-anchor="middle" x="215.91" y="-884.4" font-family="Times,serif" font-size="14.00" style="">Legend</text>
</g>
<!-- IReferral.addReferrer -->
<g id="node1" class="node" pointer-events="visible" data-name="IReferral.addReferrer">

<ellipse fill="#ffbdb9" stroke="#ffbdb9" stroke-width="3" cx="116.59" cy="-196" rx="57.28" ry="18" style=""/>
<text text-anchor="middle" x="116.59" y="-191.8" font-family="Times,serif" font-size="14.00" style="">addReferrer</text>
</g>
<!-- IReferral.updateReferrerActivity -->
<g id="node2" class="node" pointer-events="visible" data-name="IReferral.updateReferrerActivity">

<ellipse fill="#ffbdb9" stroke="#ffbdb9" stroke-width="3" cx="116.59" cy="-142" rx="100.68" ry="18" style=""/>
<text text-anchor="middle" x="116.59" y="-137.8" font-family="Times,serif" font-size="14.00" style="">updateReferrerActivity</text>
</g>
<!-- IReferral.payReferral -->
<g id="node3" class="node" pointer-events="visible" data-name="IReferral.payReferral">

<ellipse fill="#ffbdb9" stroke="#ffbdb9" stroke-width="3" cx="116.59" cy="-88" rx="56.72" ry="18" style=""/>
<text text-anchor="middle" x="116.59" y="-83.8" font-family="Times,serif" font-size="14.00" style="">payReferral</text>
</g>
<!-- IReferral.hasReferrer -->
<g id="node4" class="node" pointer-events="visible" data-name="IReferral.hasReferrer">

<ellipse fill="#ffbdb9" stroke="#ffbdb9" stroke-width="3" cx="116.59" cy="-34" rx="56.13" ry="18" style=""/>
<text text-anchor="middle" x="116.59" y="-29.8" font-family="Times,serif" font-size="14.00" style="">hasReferrer</text>
</g>
<!-- Referral.&lt;Constructor&gt; -->
<g id="node5" class="node" pointer-events="visible" data-name="Referral.&lt;Constructor&gt;">

<ellipse fill="#ff9797" stroke="#ff9797" stroke-width="3" cx="116.59" cy="-713" rx="67.54" ry="18" style=""/>
<text text-anchor="middle" x="116.59" y="-708.8" font-family="Times,serif" font-size="14.00" style="">&lt;Constructor&gt;</text>
</g>
<!-- Referral.setReferral -->
<g id="node9" class="node" pointer-events="visible" data-name="Referral.setReferral">

<ellipse fill="#edad56" stroke="#edad56" stroke-width="3" cx="353.24" cy="-659" rx="53.28" ry="18" style=""/>
<text text-anchor="middle" x="353.24" y="-654.8" font-family="Times,serif" font-size="14.00" style="">setReferral</text>
</g>
<!-- Referral.&lt;Constructor&gt;&#45;&gt;Referral.setReferral -->
<g id="edge2" class="edge" data-name="Referral.&lt;Constructor&gt;-&gt;Referral.setReferral">

<path fill="none" stroke="#1bc6a6" stroke-width="2" d="M168.21,-701.35C206.76,-692.48 259.69,-680.3 298.89,-671.28" style=""/>
<polygon fill="#1bc6a6" stroke="#1bc6a6" stroke-width="2" points="299.83,-674.65 308.79,-669 298.26,-667.83 299.83,-674.65" style=""/>
</g>
<!-- Referral._setupRole -->
<g id="node17" class="node" pointer-events="visible" data-name="Referral._setupRole">

<ellipse fill="#edad56" stroke="#edad56" stroke-width="3" cx="353.24" cy="-713" rx="54.47" ry="18" style=""/>
<text text-anchor="middle" x="353.24" y="-708.8" font-family="Times,serif" font-size="14.00" style="">_setupRole</text>
</g>
<!-- Referral.&lt;Constructor&gt;&#45;&gt;Referral._setupRole -->
<g id="edge1" class="edge" data-name="Referral.&lt;Constructor&gt;-&gt;Referral._setupRole">

<path fill="none" stroke="#1bc6a6" stroke-width="2" d="M184.2,-713C216.84,-713 255.97,-713 288.26,-713" style=""/>
<polygon fill="#1bc6a6" stroke="#1bc6a6" stroke-width="2" points="288.48,-716.5 298.48,-713 288.48,-709.5 288.48,-716.5" style=""/>
</g>
<!-- Referral.&lt;Receive Ether&gt; -->
<g id="node6" class="node" pointer-events="visible" data-name="Referral.&lt;Receive Ether&gt;">

<ellipse fill="#ffbdb9" stroke="brown" stroke-width="3" cx="116.59" cy="-659" rx="76.21" ry="18" style=""/>
<text text-anchor="middle" x="116.59" y="-654.8" font-family="Times,serif" font-size="14.00" style="">&lt;Receive Ether&gt;</text>
</g>
<!-- Referral._getRefereeBonusRate -->
<g id="node7" class="node" pointer-events="visible" data-name="Referral._getRefereeBonusRate">

<ellipse fill="#edad56" stroke="#edad56" stroke-width="3" cx="353.24" cy="-551" rx="100.12" ry="18" style=""/>
<text text-anchor="middle" x="353.24" y="-546.8" font-family="Times,serif" font-size="14.00" style="">_getRefereeBonusRate</text>
</g>
<!-- Referral._isCircularReference -->
<g id="node8" class="node" pointer-events="visible" data-name="Referral._isCircularReference">

<ellipse fill="#edad56" stroke="#edad56" stroke-width="3" cx="353.24" cy="-605" rx="93.15" ry="18" style=""/>
<text text-anchor="middle" x="353.24" y="-600.8" font-family="Times,serif" font-size="14.00" style="">_isCircularReference</text>
</g>
<!-- Referral.WrongLevelRate -->
<g id="node18" class="node" pointer-events="visible" data-name="Referral.WrongLevelRate">

<ellipse fill="#edad56" stroke="#edad56" stroke-width="3" cx="599.54" cy="-632" rx="77.57" ry="18" style=""/>
<text text-anchor="middle" x="599.54" y="-627.8" font-family="Times,serif" font-size="14.00" style="">WrongLevelRate</text>
</g>
<!-- Referral.setReferral&#45;&gt;Referral.WrongLevelRate -->
<g id="edge3" class="edge" data-name="Referral.setReferral-&gt;Referral.WrongLevelRate">

<path fill="none" stroke="#1bc6a6" stroke-width="2" d="M404.26,-653.47C437.33,-649.82 481.37,-644.95 519.16,-640.77" style=""/>
<polygon fill="#1bc6a6" stroke="#1bc6a6" stroke-width="2" points="519.58,-644.25 529.13,-639.67 518.81,-637.29 519.58,-644.25" style=""/>
</g>
<!-- Referral.WrongRefereeBonusRate -->
<g id="node19" class="node" pointer-events="visible" data-name="Referral.WrongRefereeBonusRate">

<ellipse fill="#edad56" stroke="#edad56" stroke-width="3" cx="599.54" cy="-686" rx="110.49" ry="18" style=""/>
<text text-anchor="middle" x="599.54" y="-681.8" font-family="Times,serif" font-size="14.00" style="">WrongRefereeBonusRate</text>
</g>
<!-- Referral.setReferral&#45;&gt;Referral.WrongRefereeBonusRate -->
<g id="edge4" class="edge" data-name="Referral.setReferral-&gt;Referral.WrongRefereeBonusRate">

<path fill="none" stroke="#1bc6a6" stroke-width="2" d="M404.26,-664.53C431.1,-667.49 465.16,-671.26 497.24,-674.8" style=""/>
<polygon fill="#1bc6a6" stroke="#1bc6a6" stroke-width="2" points="497.26,-678.33 507.58,-675.95 498.03,-671.37 497.26,-678.33" style=""/>
</g>
<!-- Referral.addReferrer -->
<g id="node10" class="node" pointer-events="visible" data-name="Referral.addReferrer">

<ellipse fill="#ffbdb9" stroke="#ffbdb9" stroke-width="3" cx="116.59" cy="-605" rx="57.28" ry="18" style=""/>
<text text-anchor="middle" x="116.59" y="-600.8" font-family="Times,serif" font-size="14.00" style="">addReferrer</text>
</g>
<!-- Referral.addReferrer&#45;&gt;Referral._isCircularReference -->
<g id="edge5" class="edge" data-name="Referral.addReferrer-&gt;Referral._isCircularReference">

<path fill="none" stroke="#1bc6a6" stroke-width="2" d="M173.79,-605C196.53,-605 223.53,-605 249.54,-605" style=""/>
<polygon fill="#1bc6a6" stroke="#1bc6a6" stroke-width="2" points="249.84,-608.5 259.84,-605 249.84,-601.5 249.84,-608.5" style=""/>
</g>
<!-- Referral.payReferral -->
<g id="node11" class="node" pointer-events="visible" data-name="Referral.payReferral">

<ellipse fill="#ffbdb9" stroke="#ffbdb9" stroke-width="3" cx="116.59" cy="-551" rx="56.72" ry="18" style=""/>
<text text-anchor="middle" x="116.59" y="-546.8" font-family="Times,serif" font-size="14.00" style="">payReferral</text>
</g>
<!-- Referral.payReferral&#45;&gt;Referral._getRefereeBonusRate -->
<g id="edge6" class="edge" data-name="Referral.payReferral-&gt;Referral._getRefereeBonusRate">

<path fill="none" stroke="#1bc6a6" stroke-width="2" d="M173.49,-551C194.37,-551 218.86,-551 242.9,-551" style=""/>
<polygon fill="#1bc6a6" stroke="#1bc6a6" stroke-width="2" points="243.16,-554.5 253.16,-551 243.16,-547.5 243.16,-554.5" style=""/>
</g>
<!-- Referral.updateReferrerActivity -->
<g id="node12" class="node" pointer-events="visible" data-name="Referral.updateReferrerActivity">

<ellipse fill="#ffbdb9" stroke="#ffbdb9" stroke-width="3" cx="116.59" cy="-497" rx="100.68" ry="18" style=""/>
<text text-anchor="middle" x="116.59" y="-492.8" font-family="Times,serif" font-size="14.00" style="">updateReferrerActivity</text>
</g>
<!-- Referral.withdrawCredits -->
<g id="node13" class="node" pointer-events="visible" data-name="Referral.withdrawCredits">

<ellipse fill="#ffbdb9" stroke="#ffbdb9" stroke-width="3" cx="116.59" cy="-443" rx="75.3" ry="18" style=""/>
<text text-anchor="middle" x="116.59" y="-438.8" font-family="Times,serif" font-size="14.00" style="">withdrawCredits</text>
</g>
<!-- Referral.payable -->
<g id="node20" class="node" pointer-events="visible" data-name="Referral.payable">

<ellipse fill="#edad56" stroke="#edad56" stroke-width="3" cx="353.24" cy="-416" rx="41.13" ry="18" style=""/>
<text text-anchor="middle" x="353.24" y="-411.8" font-family="Times,serif" font-size="14.00" style="">payable</text>
</g>
<!-- Referral.withdrawCredits&#45;&gt;Referral.payable -->
<g id="edge7" class="edge" data-name="Referral.withdrawCredits-&gt;Referral.payable">

<path fill="none" stroke="#1bc6a6" stroke-width="2" d="M184.83,-435.26C222.51,-430.93 268.67,-425.62 302.97,-421.67" style=""/>
<polygon fill="#1bc6a6" stroke="#1bc6a6" stroke-width="2" points="303.68,-425.11 313.21,-420.49 302.87,-418.16 303.68,-425.11" style=""/>
</g>
<!-- Referral.IERC20 -->
<g id="node21" class="node" pointer-events="visible" data-name="Referral.IERC20">

<ellipse fill="#edad56" stroke="#edad56" stroke-width="3" cx="353.24" cy="-470" rx="42.88" ry="18" style=""/>
<text text-anchor="middle" x="353.24" y="-465.8" font-family="Times,serif" font-size="14.00" style="">IERC20</text>
</g>
<!-- Referral.withdrawCredits&#45;&gt;Referral.IERC20 -->
<g id="edge9" class="edge" data-name="Referral.withdrawCredits-&gt;Referral.IERC20">

<path fill="none" stroke="#1bc6a6" stroke-width="2" d="M184.83,-450.74C222.02,-455.02 267.47,-460.25 301.62,-464.18" style=""/>
<polygon fill="#1bc6a6" stroke="#1bc6a6" stroke-width="2" points="301.5,-467.69 311.84,-465.35 302.3,-460.73 301.5,-467.69" style=""/>
</g>
<!-- payee.transfer -->
<g id="node22" class="node" pointer-events="visible" data-name="payee.transfer">

<ellipse fill="#edad56" stroke="#edad56" stroke-width="3" cx="353.24" cy="-196" rx="40.54" ry="18" style=""/>
<text text-anchor="middle" x="353.24" y="-191.8" font-family="Times,serif" font-size="14.00" style="">transfer</text>
</g>
<!-- Referral.withdrawCredits&#45;&gt;payee.transfer -->
<g id="edge8" class="edge" data-name="Referral.withdrawCredits-&gt;payee.transfer">

<path fill="none" stroke="white" stroke-width="2" d="M188.45,-437.41C202.25,-433.22 215.43,-426.53 225.18,-416 275.69,-361.4 210.2,-311.71 253.18,-251 266.81,-231.73 289.43,-218.45 309.61,-209.76" style=""/>
<polygon fill="white" stroke="white" stroke-width="2" points="311.02,-212.97 318.97,-205.98 308.39,-206.48 311.02,-212.97" style=""/>
</g>
<!-- Referral.hasReferrer -->
<g id="node14" class="node" pointer-events="visible" data-name="Referral.hasReferrer">

<ellipse fill="#ffbdb9" stroke="#ffbdb9" stroke-width="3" cx="116.59" cy="-389" rx="56.13" ry="18" style=""/>
<text text-anchor="middle" x="116.59" y="-384.8" font-family="Times,serif" font-size="14.00" style="">hasReferrer</text>
</g>
<!-- Referral.referralCreditOf -->
<g id="node15" class="node" pointer-events="visible" data-name="Referral.referralCreditOf">

<ellipse fill="#ffbdb9" stroke="#ffbdb9" stroke-width="3" cx="116.59" cy="-335" rx="73.53" ry="18" style=""/>
<text text-anchor="middle" x="116.59" y="-330.8" font-family="Times,serif" font-size="14.00" style="">referralCreditOf</text>
</g>
<!-- Referral.getReferralAccount -->
<g id="node16" class="node" pointer-events="visible" data-name="Referral.getReferralAccount">

<ellipse fill="#ffbdb9" stroke="#ffbdb9" stroke-width="3" cx="116.59" cy="-281" rx="87.36" ry="18" style=""/>
<text text-anchor="middle" x="116.59" y="-276.8" font-family="Times,serif" font-size="14.00" style="">getReferralAccount</text>
</g>
<!-- key -->
<g id="node23" class="node" pointer-events="visible" data-name="key">

<polygon fill="#edad56" stroke="transparent" stroke-width="3" points="181.59,-868 51.59,-868 51.59,-780 181.59,-780 181.59,-868" style=""/>
<text text-anchor="start" x="101.22" y="-849.4" font-family="Times,serif" font-size="14.00" style="">Internal Call</text>
<text text-anchor="start" x="97.33" y="-829.4" font-family="Times,serif" font-size="14.00" style="">External Call</text>
<text text-anchor="start" x="74.79" y="-809.4" font-family="Times,serif" font-size="14.00" style="">Defined Contract</text>
<text text-anchor="start" x="61.19" y="-789.4" font-family="Times,serif" font-size="14.00" style="">Undefined Contract</text>
</g>
<!-- key2 -->
<g id="node24" class="node" pointer-events="visible" data-name="key2">

<polygon fill="#edad56" stroke="transparent" stroke-width="3" points="380.24,-868 326.24,-868 326.24,-780 380.24,-780 380.24,-868" style=""/>
<text text-anchor="start" x="340.99" y="-849.4" font-family="Times,serif" font-size="14.00" style="">   </text>
<text text-anchor="start" x="340.99" y="-829.4" font-family="Times,serif" font-size="14.00" style="">   </text>
<polygon fill="#445773" stroke="transparent" points="339.24,-804 339.24,-824 367.24,-824 367.24,-804 339.24,-804" style=""/>
<text text-anchor="start" x="340.99" y="-809.4" font-family="Times,serif" font-size="14.00" style="">   </text>
<polygon fill="none" stroke="#e8726d" points="341.24,-786 341.24,-802 365.24,-802 365.24,-786 341.24,-786" style=""/>
</g>
<!-- key&#45;&gt;key2 -->
<g id="edge10" class="edge" data-name="key-&gt;key2">

<path fill="none" stroke="#1bc6a6" stroke-width="2" d="M174.59,-854C243.77,-854 263.6,-854 327.96,-854" style=""/>
<polygon fill="#1bc6a6" stroke="#1bc6a6" stroke-width="2" points="328.24,-857.5 338.24,-854 328.24,-850.5 328.24,-857.5" style=""/>
</g>
<!-- key&#45;&gt;key2 -->
<g id="edge11" class="edge" data-name="key-&gt;key2">

<path fill="none" stroke="white" stroke-width="2" d="M174.59,-834C243.77,-834 263.6,-834 327.96,-834" style=""/>
<polygon fill="white" stroke="white" stroke-width="2" points="328.24,-837.5 338.24,-834 328.24,-830.5 328.24,-837.5" style=""/>
</g>
</g>
</svg>