<?xml version="1.0" standalone="no"?>
<svg xmlns="http://www.w3.org/2000/svg" xmlns:xlink="http://www.w3.org/1999/xlink" width="446pt" height="454pt" viewBox="0.00 0.00 446.28 454.00">
<g id="graph0" class="graph" transform="translate(4,450) scale(1)" data-name="G">

<polygon fill="#2e3e56" stroke="none" points="-4,4 -4,-450 442.28,-450 442.28,4 -4,4" style=""/>
<g id="clust1" class="cluster" data-name="clusterRoulette">

<path fill="#445773" stroke="#445773" d="M20,-8C20,-8 418.28,-8 418.28,-8 424.28,-8 430.28,-14 430.28,-20 430.28,-20 430.28,-289 430.28,-289 430.28,-295 424.28,-301 418.28,-301 418.28,-301 20,-301 20,-301 14,-301 8,-295 8,-289 8,-289 8,-20 8,-20 8,-14 14,-8 20,-8" style=""/>
<text text-anchor="middle" x="219.14" y="-284.4" font-family="Times,serif" font-size="14.00" fill="#f0f0f0" style="">Roulette</text>
</g>
<g id="clust2" class="cluster" data-name="cluster_01">

<polygon fill="#2e3e56" stroke="black" points="34.5,-309 34.5,-438 363.64,-438 363.64,-309 34.5,-309" style=""/>
<text text-anchor="middle" x="199.07" y="-421.4" font-family="Times,serif" font-size="14.00" style="">Legend</text>
</g>
<!-- Roulette.&lt;Constructor&gt; -->
<g id="node1" class="node" pointer-events="visible" data-name="Roulette.&lt;Constructor&gt;">

<ellipse fill="#ff9797" stroke="#ff9797" stroke-width="3" cx="107.5" cy="-250" rx="67.55" ry="18" style=""/>
<text text-anchor="middle" x="107.5" y="-245.8" font-family="Times,serif" font-size="14.00" style="">&lt;Constructor&gt;</text>
</g>
<!-- Roulette._getPayout -->
<g id="node2" class="node" pointer-events="visible" data-name="Roulette._getPayout">

<ellipse fill="#edad56" stroke="#edad56" stroke-width="3" cx="328.64" cy="-142" rx="54.48" ry="18" style=""/>
<text text-anchor="middle" x="328.64" y="-137.8" font-family="Times,serif" font-size="14.00" style="">_getPayout</text>
</g>
<!-- Roulette.wager -->
<g id="node3" class="node" pointer-events="visible" data-name="Roulette.wager">

<ellipse fill="#ffbdb9" stroke="brown" stroke-width="3" cx="107.5" cy="-196" rx="34.75" ry="18" style=""/>
<text text-anchor="middle" x="107.5" y="-191.8" font-family="Times,serif" font-size="14.00" style="">wager</text>
</g>
<!-- Roulette.wager&#45;&gt;Roulette._getPayout -->
<g id="edge3" class="edge" data-name="Roulette.wager-&gt;Roulette._getPayout">

<path fill="none" stroke="#1bc6a6" stroke-width="2" d="M139.43,-188.38C174.49,-179.74 232.26,-165.5 274.56,-155.08" style=""/>
<polygon fill="#1bc6a6" stroke="#1bc6a6" stroke-width="2" points="275.54,-158.44 284.41,-152.65 273.87,-151.65 275.54,-158.44" style=""/>
</g>
<!-- Roulette.NumbersNotInRange -->
<g id="node6" class="node" pointer-events="visible" data-name="Roulette.NumbersNotInRange">

<ellipse fill="#edad56" stroke="#edad56" stroke-width="3" cx="328.64" cy="-250" rx="93.78" ry="18" style=""/>
<text text-anchor="middle" x="328.64" y="-245.8" font-family="Times,serif" font-size="14.00" style="">NumbersNotInRange</text>
</g>
<!-- Roulette.wager&#45;&gt;Roulette.NumbersNotInRange -->
<g id="edge1" class="edge" data-name="Roulette.wager-&gt;Roulette.NumbersNotInRange">

<path fill="none" stroke="#1bc6a6" stroke-width="2" d="M139.43,-203.62C170.71,-211.33 220.07,-223.49 260.39,-233.43" style=""/>
<polygon fill="#1bc6a6" stroke="#1bc6a6" stroke-width="2" points="259.61,-236.84 270.16,-235.84 261.29,-230.05 259.61,-236.84" style=""/>
</g>
<!-- Roulette._newBet -->
<g id="node7" class="node" pointer-events="visible" data-name="Roulette._newBet">

<ellipse fill="#edad56" stroke="#edad56" stroke-width="3" cx="328.64" cy="-196" rx="45.23" ry="18" style=""/>
<text text-anchor="middle" x="328.64" y="-191.8" font-family="Times,serif" font-size="14.00" style="">_newBet</text>
</g>
<!-- Roulette.wager&#45;&gt;Roulette._newBet -->
<g id="edge2" class="edge" data-name="Roulette.wager-&gt;Roulette._newBet">

<path fill="none" stroke="#1bc6a6" stroke-width="2" d="M142.26,-196C177.12,-196 232.07,-196 273.11,-196" style=""/>
<polygon fill="#1bc6a6" stroke="#1bc6a6" stroke-width="2" points="273.22,-199.5 283.22,-196 273.22,-192.5 273.22,-199.5" style=""/>
</g>
<!-- Roulette.fulfillRandomWords -->
<g id="node4" class="node" pointer-events="visible" data-name="Roulette.fulfillRandomWords">

<ellipse fill="#f2c383" stroke="#f2c383" stroke-width="3" cx="107.5" cy="-115" rx="91.5" ry="18" style=""/>
<text text-anchor="middle" x="107.5" y="-110.8" font-family="Times,serif" font-size="14.00" style="">fulfillRandomWords</text>
</g>
<!-- Roulette.fulfillRandomWords&#45;&gt;Roulette._getPayout -->
<g id="edge5" class="edge" data-name="Roulette.fulfillRandomWords-&gt;Roulette._getPayout">

<path fill="none" stroke="#1bc6a6" stroke-width="2" d="M185.45,-124.48C212.22,-127.78 241.85,-131.43 267.11,-134.54" style=""/>
<polygon fill="#1bc6a6" stroke="#1bc6a6" stroke-width="2" points="266.92,-138.05 277.28,-135.8 267.78,-131.1 266.92,-138.05" style=""/>
</g>
<!-- Roulette._resolveBet -->
<g id="node8" class="node" pointer-events="visible" data-name="Roulette._resolveBet">

<ellipse fill="#edad56" stroke="#edad56" stroke-width="3" cx="328.64" cy="-88" rx="57.32" ry="18" style=""/>
<text text-anchor="middle" x="328.64" y="-83.8" font-family="Times,serif" font-size="14.00" style="">_resolveBet</text>
</g>
<!-- Roulette.fulfillRandomWords&#45;&gt;Roulette._resolveBet -->
<g id="edge4" class="edge" data-name="Roulette.fulfillRandomWords-&gt;Roulette._resolveBet">

<path fill="none" stroke="#1bc6a6" stroke-width="2" d="M185.45,-105.52C211.46,-102.31 240.18,-98.78 264.95,-95.72" style=""/>
<polygon fill="#1bc6a6" stroke="#1bc6a6" stroke-width="2" points="265.45,-99.19 274.95,-94.49 264.59,-92.24 265.45,-99.19" style=""/>
</g>
<!-- Roulette.getLastUserBets -->
<g id="node5" class="node" pointer-events="visible" data-name="Roulette.getLastUserBets">

<ellipse fill="#ffbdb9" stroke="#ffbdb9" stroke-width="3" cx="107.5" cy="-34" rx="74.73" ry="18" style=""/>
<text text-anchor="middle" x="107.5" y="-29.8" font-family="Times,serif" font-size="14.00" style="">getLastUserBets</text>
</g>
<!-- Roulette._getLastUserBets -->
<g id="node9" class="node" pointer-events="visible" data-name="Roulette._getLastUserBets">

<ellipse fill="#edad56" stroke="#edad56" stroke-width="3" cx="328.64" cy="-34" rx="79.88" ry="18" style=""/>
<text text-anchor="middle" x="328.64" y="-29.8" font-family="Times,serif" font-size="14.00" style="">_getLastUserBets</text>
</g>
<!-- Roulette.getLastUserBets&#45;&gt;Roulette._getLastUserBets -->
<g id="edge6" class="edge" data-name="Roulette.getLastUserBets-&gt;Roulette._getLastUserBets">

<path fill="none" stroke="#1bc6a6" stroke-width="2" d="M182.38,-34C200.5,-34 220.08,-34 238.81,-34" style=""/>
<polygon fill="#1bc6a6" stroke="#1bc6a6" stroke-width="2" points="238.82,-37.5 248.82,-34 238.82,-30.5 238.82,-37.5" style=""/>
</g>
<!-- key -->
<g id="node10" class="node" pointer-events="visible" data-name="key">

<polygon fill="#edad56" stroke="none" stroke-width="3" points="172.5,-405 42.5,-405 42.5,-317 172.5,-317 172.5,-405" style=""/>
<text text-anchor="start" x="92.14" y="-386.4" font-family="Times,serif" font-size="14.00" style="">Internal Call</text>
<text text-anchor="start" x="88.25" y="-366.4" font-family="Times,serif" font-size="14.00" style="">External Call</text>
<text text-anchor="start" x="65.7" y="-346.4" font-family="Times,serif" font-size="14.00" style="">Defined Contract</text>
<text text-anchor="start" x="52.1" y="-326.4" font-family="Times,serif" font-size="14.00" style="">Undefined Contract</text>
</g>
<!-- key2 -->
<g id="node11" class="node" pointer-events="visible" data-name="key2">

<polygon fill="#edad56" stroke="none" stroke-width="3" points="355.64,-405 301.64,-405 301.64,-317 355.64,-317 355.64,-405" style=""/>
<text text-anchor="start" x="318.64" y="-386.4" font-family="Times,serif" font-size="14.00" style="">   </text>
<text text-anchor="start" x="318.64" y="-366.4" font-family="Times,serif" font-size="14.00" style="">   </text>
<polygon fill="#445773" stroke="none" points="316.64,-341 316.64,-361 341.64,-361 341.64,-341 316.64,-341" style=""/>
<text text-anchor="start" x="318.64" y="-346.4" font-family="Times,serif" font-size="14.00" style="">   </text>
<polygon fill="none" stroke="#e8726d" points="318.64,-323 318.64,-339 339.64,-339 339.64,-323 318.64,-323" style=""/>
</g>
<!-- key&#45;&gt;key2 -->
<g id="edge7" class="edge" data-name="key-&gt;key2">

<path fill="none" stroke="#1bc6a6" stroke-width="2" d="M165.5,-391C228.71,-391 247.01,-391 305.48,-391" style=""/>
<polygon fill="#1bc6a6" stroke="#1bc6a6" stroke-width="2" points="305.64,-394.5 315.64,-391 305.64,-387.5 305.64,-394.5" style=""/>
</g>
<!-- key&#45;&gt;key2 -->
<g id="edge8" class="edge" data-name="key-&gt;key2">

<path fill="none" stroke="white" stroke-width="2" d="M165.5,-371C228.71,-371 247.01,-371 305.48,-371" style=""/>
<polygon fill="white" stroke="white" stroke-width="2" points="305.64,-374.5 315.64,-371 305.64,-367.5 305.64,-374.5" style=""/>
</g>
</g>
</svg>