<?xml version="1.0" standalone="no"?>
<svg xmlns="http://www.w3.org/2000/svg" xmlns:xlink="http://www.w3.org/1999/xlink" width="446pt" height="508pt" viewBox="0.00 0.00 446.28 508.00">
<g id="graph0" class="graph" transform="translate(4,504) scale(1)" data-name="G">

<polygon fill="#2e3e56" stroke="none" points="-4,4 -4,-504 442.28,-504 442.28,4 -4,4" style=""/>
<g id="clust1" class="cluster" data-name="clusterRoulette">

<path fill="#445773" stroke="#445773" d="M20,-8C20,-8 418.28,-8 418.28,-8 424.28,-8 430.28,-14 430.28,-20 430.28,-20 430.28,-343 430.28,-343 430.28,-349 424.28,-355 418.28,-355 418.28,-355 20,-355 20,-355 14,-355 8,-349 8,-343 8,-343 8,-20 8,-20 8,-14 14,-8 20,-8" style=""/>
<text text-anchor="middle" x="219.14" y="-338.4" font-family="Times,serif" font-size="14.00" fill="#f0f0f0" style="">Roulette</text>
</g>
<g id="clust2" class="cluster" data-name="cluster_01">

<polygon fill="#2e3e56" stroke="black" points="34.5,-363 34.5,-492 363.64,-492 363.64,-363 34.5,-363" style=""/>
<text text-anchor="middle" x="199.07" y="-475.4" font-family="Times,serif" font-size="14.00" style="">Legend</text>
</g>
<!-- Roulette.&lt;Constructor&gt; -->
<g id="node1" class="node" pointer-events="visible" data-name="Roulette.&lt;Constructor&gt;">

<ellipse fill="#ff9797" stroke="#ff9797" stroke-width="3" cx="107.5" cy="-304" rx="67.55" ry="18" style=""/>
<text text-anchor="middle" x="107.5" y="-299.8" font-family="Times,serif" font-size="14.00" style="">&lt;Constructor&gt;</text>
</g>
<!-- Roulette._getPayout -->
<g id="node2" class="node" pointer-events="visible" data-name="Roulette._getPayout">

<ellipse fill="#edad56" stroke="#edad56" stroke-width="3" cx="328.64" cy="-196" rx="54.48" ry="18" style=""/>
<text text-anchor="middle" x="328.64" y="-191.8" font-family="Times,serif" font-size="14.00" style="">_getPayout</text>
</g>
<!-- Roulette.wager -->
<g id="node3" class="node" pointer-events="visible" data-name="Roulette.wager">

<ellipse fill="#ffbdb9" stroke="brown" stroke-width="3" cx="107.5" cy="-250" rx="34.75" ry="18" style=""/>
<text text-anchor="middle" x="107.5" y="-245.8" font-family="Times,serif" font-size="14.00" style="">wager</text>
</g>
<!-- Roulette.wager&#45;&gt;Roulette._getPayout -->
<g id="edge3" class="edge" data-name="Roulette.wager-&gt;Roulette._getPayout">

<path fill="none" stroke="#1bc6a6" stroke-width="2" d="M140.36,-242.15C174.36,-233.77 228.91,-220.33 270.39,-210.11" style=""/>
<polygon fill="#1bc6a6" stroke="#1bc6a6" stroke-width="2" points="271,-213.56 279.87,-207.77 269.32,-206.77 271,-213.56" style=""/>
</g>
<!-- Roulette.NumbersNotInRange -->
<g id="node6" class="node" pointer-events="visible" data-name="Roulette.NumbersNotInRange">

<ellipse fill="#edad56" stroke="#edad56" stroke-width="3" cx="328.64" cy="-250" rx="93.78" ry="18" style=""/>
<text text-anchor="middle" x="328.64" y="-245.8" font-family="Times,serif" font-size="14.00" style="">NumbersNotInRange</text>
</g>
<!-- Roulette.wager&#45;&gt;Roulette.NumbersNotInRange -->
<g id="edge1" class="edge" data-name="Roulette.wager-&gt;Roulette.NumbersNotInRange">

<path fill="none" stroke="#1bc6a6" stroke-width="2" d="M143.71,-250C164.8,-250 192.84,-250 220.67,-250" style=""/>
<polygon fill="#1bc6a6" stroke="#1bc6a6" stroke-width="2" points="220.38,-253.5 230.38,-250 220.38,-246.5 220.38,-253.5" style=""/>
</g>
<!-- Roulette._newBet -->
<g id="node7" class="node" pointer-events="visible" data-name="Roulette._newBet">

<ellipse fill="#edad56" stroke="#edad56" stroke-width="3" cx="328.64" cy="-304" rx="45.23" ry="18" style=""/>
<text text-anchor="middle" x="328.64" y="-299.8" font-family="Times,serif" font-size="14.00" style="">_newBet</text>
</g>
<!-- Roulette.wager&#45;&gt;Roulette._newBet -->
<g id="edge2" class="edge" data-name="Roulette.wager-&gt;Roulette._newBet">

<path fill="none" stroke="#1bc6a6" stroke-width="2" d="M140.36,-257.85C175.86,-266.6 233.79,-280.87 275.82,-291.23" style=""/>
<polygon fill="#1bc6a6" stroke="#1bc6a6" stroke-width="2" points="274.83,-294.59 285.38,-293.59 276.51,-287.8 274.83,-294.59" style=""/>
</g>
<!-- Roulette.fulfillRandomWords -->
<g id="node4" class="node" pointer-events="visible" data-name="Roulette.fulfillRandomWords">

<ellipse fill="#f2c383" stroke="#f2c383" stroke-width="3" cx="107.5" cy="-142" rx="91.5" ry="18" style=""/>
<text text-anchor="middle" x="107.5" y="-137.8" font-family="Times,serif" font-size="14.00" style="">fulfillRandomWords</text>
</g>
<!-- Roulette.fulfillRandomWords&#45;&gt;Roulette._getPayout -->
<g id="edge5" class="edge" data-name="Roulette.fulfillRandomWords-&gt;Roulette._getPayout">

<path fill="none" stroke="#1bc6a6" stroke-width="2" d="M168.09,-156.68C199.84,-164.51 238.71,-174.09 270.13,-181.83" style=""/>
<polygon fill="#1bc6a6" stroke="#1bc6a6" stroke-width="2" points="269.17,-185.2 279.72,-184.19 270.85,-178.4 269.17,-185.2" style=""/>
</g>
<!-- Roulette._resolveBet -->
<g id="node8" class="node" pointer-events="visible" data-name="Roulette._resolveBet">

<ellipse fill="#edad56" stroke="#edad56" stroke-width="3" cx="328.64" cy="-142" rx="57.32" ry="18" style=""/>
<text text-anchor="middle" x="328.64" y="-137.8" font-family="Times,serif" font-size="14.00" style="">_resolveBet</text>
</g>
<!-- Roulette.fulfillRandomWords&#45;&gt;Roulette._resolveBet -->
<g id="edge4" class="edge" data-name="Roulette.fulfillRandomWords-&gt;Roulette._resolveBet">

<path fill="none" stroke="#1bc6a6" stroke-width="2" d="M200.48,-142C219.42,-142 239.09,-142 257.13,-142" style=""/>
<polygon fill="#1bc6a6" stroke="#1bc6a6" stroke-width="2" points="256.92,-145.5 266.92,-142 256.92,-138.5 256.92,-145.5" style=""/>
</g>
<!-- Roulette._accountVRFCost -->
<g id="node9" class="node" pointer-events="visible" data-name="Roulette._accountVRFCost">

<ellipse fill="#edad56" stroke="#edad56" stroke-width="3" cx="328.64" cy="-88" rx="82.28" ry="18" style=""/>
<text text-anchor="middle" x="328.64" y="-83.8" font-family="Times,serif" font-size="14.00" style="">_accountVRFCost</text>
</g>
<!-- Roulette.fulfillRandomWords&#45;&gt;Roulette._accountVRFCost -->
<g id="edge6" class="edge" data-name="Roulette.fulfillRandomWords-&gt;Roulette._accountVRFCost">

<path fill="none" stroke="#1bc6a6" stroke-width="2" d="M168.09,-127.32C195.91,-120.46 229.2,-112.26 258.16,-105.12" style=""/>
<polygon fill="#1bc6a6" stroke="#1bc6a6" stroke-width="2" points="258.89,-108.55 267.76,-102.75 257.22,-101.75 258.89,-108.55" style=""/>
</g>
<!-- Roulette.getLastUserBets -->
<g id="node5" class="node" pointer-events="visible" data-name="Roulette.getLastUserBets">

<ellipse fill="#ffbdb9" stroke="#ffbdb9" stroke-width="3" cx="107.5" cy="-34" rx="74.73" ry="18" style=""/>
<text text-anchor="middle" x="107.5" y="-29.8" font-family="Times,serif" font-size="14.00" style="">getLastUserBets</text>
</g>
<!-- Roulette._getLastUserBets -->
<g id="node10" class="node" pointer-events="visible" data-name="Roulette._getLastUserBets">

<ellipse fill="#edad56" stroke="#edad56" stroke-width="3" cx="328.64" cy="-34" rx="79.88" ry="18" style=""/>
<text text-anchor="middle" x="328.64" y="-29.8" font-family="Times,serif" font-size="14.00" style="">_getLastUserBets</text>
</g>
<!-- Roulette.getLastUserBets&#45;&gt;Roulette._getLastUserBets -->
<g id="edge7" class="edge" data-name="Roulette.getLastUserBets-&gt;Roulette._getLastUserBets">

<path fill="none" stroke="#1bc6a6" stroke-width="2" d="M183.61,-34C200,-34 217.53,-34 234.52,-34" style=""/>
<polygon fill="#1bc6a6" stroke="#1bc6a6" stroke-width="2" points="234.36,-37.5 244.36,-34 234.36,-30.5 234.36,-37.5" style=""/>
</g>
<!-- key -->
<g id="node11" class="node" pointer-events="visible" data-name="key">

<polygon fill="#edad56" stroke="none" stroke-width="3" points="172.5,-459 42.5,-459 42.5,-371 172.5,-371 172.5,-459" style=""/>
<text text-anchor="start" x="92.14" y="-440.4" font-family="Times,serif" font-size="14.00" style="">Internal Call</text>
<text text-anchor="start" x="88.25" y="-420.4" font-family="Times,serif" font-size="14.00" style="">External Call</text>
<text text-anchor="start" x="65.7" y="-400.4" font-family="Times,serif" font-size="14.00" style="">Defined Contract</text>
<text text-anchor="start" x="52.1" y="-380.4" font-family="Times,serif" font-size="14.00" style="">Undefined Contract</text>
</g>
<!-- key2 -->
<g id="node12" class="node" pointer-events="visible" data-name="key2">

<polygon fill="#edad56" stroke="none" stroke-width="3" points="355.64,-459 301.64,-459 301.64,-371 355.64,-371 355.64,-459" style=""/>
<text text-anchor="start" x="318.64" y="-440.4" font-family="Times,serif" font-size="14.00" style="">   </text>
<text text-anchor="start" x="318.64" y="-420.4" font-family="Times,serif" font-size="14.00" style="">   </text>
<polygon fill="#445773" stroke="none" points="316.64,-395 316.64,-415 341.64,-415 341.64,-395 316.64,-395" style=""/>
<text text-anchor="start" x="318.64" y="-400.4" font-family="Times,serif" font-size="14.00" style="">   </text>
<polygon fill="none" stroke="#e8726d" points="318.64,-377 318.64,-393 339.64,-393 339.64,-377 318.64,-377" style=""/>
</g>
<!-- key&#45;&gt;key2 -->
<g id="edge8" class="edge" data-name="key-&gt;key2">

<path fill="none" stroke="#1bc6a6" stroke-width="2" d="M165.5,-445C227.66,-445 246.39,-445 302.62,-445" style=""/>
<polygon fill="#1bc6a6" stroke="#1bc6a6" stroke-width="2" points="302.61,-448.5 312.61,-445 302.61,-441.5 302.61,-448.5" style=""/>
</g>
<!-- key&#45;&gt;key2 -->
<g id="edge9" class="edge" data-name="key-&gt;key2">

<path fill="none" stroke="white" stroke-width="2" d="M165.5,-425C227.66,-425 246.39,-425 302.62,-425" style=""/>
<polygon fill="white" stroke="white" stroke-width="2" points="302.61,-428.5 312.61,-425 302.61,-421.5 302.61,-428.5" style=""/>
</g>
</g>
</svg>